<?xml version="1.0" encoding="UTF-8"?>
<svg id="_797" data-name="1797" xmlns="http://www.w3.org/2000/svg" xmlns:xlink="http://www.w3.org/1999/xlink" viewBox="0 0 640 634">
  <defs>
    <style>
      .cls-1 {
        fill: none;
      }

      .cls-2 {
        clip-path: url(#clippath);
      }

      .cls-2, .cls-3, .cls-4, .cls-5, .cls-6, .cls-7, .cls-8, .cls-9, .cls-10, .cls-11, .cls-12, .cls-13 {
        fill: #10162f;
      }

      .cls-14 {
        fill: #f4ffe2;
      }

      .cls-15 {
        fill: #fff;
      }

      .cls-16 {
        fill: #fff5ff;
      }

      .cls-17 {
        fill: #66c4ff;
      }

      .cls-18 {
        fill: #64c3ff;
      }

      .cls-4 {
        clip-path: url(#clippath-21);
      }

      .cls-5 {
        clip-path: url(#clippath-19);
      }

      .cls-6 {
        clip-path: url(#clippath-10);
      }

      .cls-7 {
        clip-path: url(#clippath-15);
      }

      .cls-8 {
        clip-path: url(#clippath-17);
      }

      .cls-9 {
        clip-path: url(#clippath-12);
      }

      .cls-19 {
        clip-path: url(#clippath-1);
      }

      .cls-20 {
        clip-path: url(#clippath-3);
      }

      .cls-21 {
        clip-path: url(#clippath-7);
      }

      .cls-22 {
        clip-path: url(#clippath-5);
      }

      .cls-23 {
        clip-path: url(#clippath-9);
      }

      .cls-24 {
        clip-path: url(#clippath-20);
      }

      .cls-25 {
        clip-path: url(#clippath-22);
      }

      .cls-26 {
        clip-path: url(#clippath-14);
      }

      .cls-27 {
        clip-path: url(#clippath-13);
      }

      .cls-28 {
        clip-path: url(#clippath-16);
      }

      .cls-29 {
        clip-path: url(#clippath-11);
      }

      .cls-30 {
        clip-path: url(#clippath-18);
      }

      .cls-10 {
        clip-path: url(#clippath-2);
      }

      .cls-11 {
        clip-path: url(#clippath-4);
      }

      .cls-12 {
        clip-path: url(#clippath-8);
      }

      .cls-13 {
        clip-path: url(#clippath-6);
      }
    </style>
    <clipPath id="clippath">
      <rect class="cls-14" x="502.23" y="234.05" width="70.95" height="50.4"/>
    </clipPath>
    <clipPath id="clippath-1">
      <path class="cls-2" d="M573.68,284.95h-71.96v-51.4h71.96v51.4Zm-70.96-1h69.96v-49.4h-69.96v49.4Z"/>
    </clipPath>
    <clipPath id="clippath-2">
      <rect class="cls-14" x="541.97" y="368.11" width="58.16" height="41.32"/>
    </clipPath>
    <clipPath id="clippath-3">
      <path class="cls-10" d="M600.64,409.92h-59.17v-42.32h59.17v42.32Zm-58.17-1h57.17v-40.32h-57.17v40.32Z"/>
    </clipPath>
    <clipPath id="clippath-4">
      <rect class="cls-14" x="476.47" y="368.11" width="58.16" height="41.32"/>
    </clipPath>
    <clipPath id="clippath-5">
      <path class="cls-11" d="M535.13,409.92h-59.17v-42.32h59.17v42.32Zm-58.17-1h57.17v-40.32h-57.17v40.32Z"/>
    </clipPath>
    <clipPath id="clippath-6">
      <rect class="cls-14" x="105.73" y="368.11" width="58.16" height="41.32"/>
    </clipPath>
    <clipPath id="clippath-7">
      <path class="cls-13" d="M164.4,409.92h-59.17v-42.32h59.17v42.32Zm-58.17-1h57.17v-40.32h-57.17v40.32Z"/>
    </clipPath>
    <clipPath id="clippath-8">
      <rect class="cls-14" x="40.23" y="368.11" width="58.16" height="41.32"/>
    </clipPath>
    <clipPath id="clippath-9">
      <path class="cls-12" d="M98.89,409.92H39.72v-42.32h59.17v42.32Zm-58.17-1h57.17v-40.32H40.72v40.32Z"/>
    </clipPath>
    <clipPath id="clippath-10">
      <rect class="cls-14" x="66.84" y="234.05" width="70.95" height="50.4"/>
    </clipPath>
    <clipPath id="clippath-11">
      <path class="cls-6" d="M138.29,284.95H66.34v-51.4h71.95v51.4Zm-70.95-1h69.95v-49.4H67.34v49.4Z"/>
    </clipPath>
    <clipPath id="clippath-12">
      <rect class="cls-14" x="358.97" y="234.05" width="70.95" height="50.4"/>
    </clipPath>
    <clipPath id="clippath-13">
      <path class="cls-9" d="M430.42,284.95h-71.96v-51.4h71.96v51.4Zm-70.96-1h69.96v-49.4h-69.96v49.4Z"/>
    </clipPath>
    <clipPath id="clippath-14">
      <rect class="cls-1" x="209.35" y="234.05" width="70.95" height="50.4"/>
    </clipPath>
    <clipPath id="clippath-15">
      <rect class="cls-14" x="398.67" y="368.11" width="58.16" height="41.32"/>
    </clipPath>
    <clipPath id="clippath-16">
      <path class="cls-7" d="M457.34,409.92h-59.17v-42.32h59.17v42.32Zm-58.17-1h57.17v-40.32h-57.17v40.32Z"/>
    </clipPath>
    <clipPath id="clippath-17">
      <rect class="cls-14" x="333.16" y="368.11" width="58.16" height="41.32"/>
    </clipPath>
    <clipPath id="clippath-18">
      <path class="cls-8" d="M391.83,409.92h-59.17v-42.32h59.17v42.32Zm-58.17-1h57.17v-40.32h-57.17v40.32Z"/>
    </clipPath>
    <clipPath id="clippath-19">
      <rect class="cls-14" x="248.67" y="368.11" width="58.16" height="41.32"/>
    </clipPath>
    <clipPath id="clippath-20">
      <path class="cls-5" d="M307.34,409.92h-59.17v-42.32h59.17v42.32Zm-58.17-1h57.17v-40.32h-57.17v40.32Z"/>
    </clipPath>
    <clipPath id="clippath-21">
      <rect class="cls-14" x="183.16" y="368.11" width="58.16" height="41.32"/>
    </clipPath>
    <clipPath id="clippath-22">
      <path class="cls-4" d="M241.83,409.92h-59.17v-42.32h59.17v42.32Zm-58.17-1h57.17v-40.32h-57.17v40.32Z"/>
    </clipPath>
  </defs>
  <g>
    <path class="cls-15" d="M320.74,486.78c-.28,0-.5-.22-.5-.5v-41.74c0-.28,.22-.5,.5-.5s.5,.22,.5,.5v41.74c0,.28-.22,.5-.5,.5Z"/>
    <path class="cls-15" d="M320.73,486.92c-.13,0-.26-.05-.35-.15l-10.5-10.5c-.2-.2-.2-.51,0-.71s.51-.2,.71,0l10.15,10.15,10.15-10.15c.2-.2,.51-.2,.71,0s.2,.51,0,.71l-10.5,10.5c-.1,.1-.23,.15-.35,.15Z"/>
  </g>
  <g>
    <rect class="cls-16" x="146.61" y="496.84" width="340" height="96.4"/>
    <path class="cls-3" d="M487.11,593.74H146.11v-97.4H487.11v97.4Zm-340-1H486.11v-95.4H147.11v95.4Z"/>
  </g>
  <g>
    <path class="cls-17" d="M319.42,72.75v120.13"/>
    <path class="cls-15" d="M319.43,193.38c-.28,0-.5-.22-.5-.5V72.75c0-.28,.22-.5,.5-.5s.5,.22,.5,.5v120.13c0,.28-.22,.5-.5,.5Z"/>
  </g>
  <g>
    <path class="cls-17" d="M537.87,275.19v52.74"/>
    <path class="cls-15" d="M537.87,328.43c-.28,0-.5-.22-.5-.5v-52.74c0-.28,.22-.5,.5-.5s.5,.22,.5,.5v52.74c0,.28-.22,.5-.5,.5Z"/>
  </g>
  <g>
    <g>
      <path class="cls-18" d="M351.64,82.79V46.58h-63.29v36.21h0c0,2.93,14.17,5.31,31.64,5.31s31.64-2.38,31.64-5.31h0Z"/>
      <path class="cls-3" d="M320,88.61c-8.48,0-16.46-.56-22.46-1.56-6.43-1.08-9.69-2.51-9.69-4.25V46.08h64.29v36.71c0,1.74-3.26,3.17-9.69,4.25-6,1.01-13.98,1.56-22.46,1.56Zm-31.14-41.52v35.71c0,2.01,11.85,4.81,31.14,4.81s31.14-2.8,31.14-4.81V47.08h-62.29Z"/>
    </g>
    <g>
      <ellipse class="cls-18" cx="320" cy="46.3" rx="31.64" ry="5.54"/>
      <path class="cls-3" d="M320,52.34c-15.58,0-32.14-2.12-32.14-6.04s16.56-6.04,32.14-6.04,32.14,2.12,32.14,6.04-16.56,6.04-32.14,6.04Zm0-11.08c-20.05,0-31.14,2.98-31.14,5.04s11.09,5.04,31.14,5.04,31.14-2.98,31.14-5.04-11.09-5.04-31.14-5.04Z"/>
    </g>
  </g>
  <g>
    <path d="M311.42,64.95c.75,0,1.33,.2,1.73,.6,.41,.4,.61,.93,.61,1.59,0,.51-.12,.95-.37,1.31-.25,.36-.6,.61-1.07,.75l2.13,3.44h-1.59l-2.07-3.32h-.75v3.32h-1.43v-7.7h2.8Zm.67,2.85c.16-.14,.24-.36,.24-.66s-.08-.52-.24-.66-.38-.21-.66-.21h-1.39v1.74h1.39c.28,0,.5-.07,.66-.21Z"/>
    <path d="M317.72,64.95c.64,0,1.23,.14,1.77,.42,.54,.28,.98,.71,1.31,1.28,.33,.58,.5,1.29,.5,2.15s-.17,1.58-.5,2.15c-.33,.58-.77,1-1.31,1.28s-1.13,.42-1.77,.42h-2.41v-7.7h2.41Zm1.39,5.81c.49-.38,.74-1.03,.74-1.96s-.25-1.58-.74-1.96c-.5-.38-1.11-.57-1.84-.57h-.53v5.06h.53c.73,0,1.35-.19,1.84-.57Z"/>
    <path d="M325.1,64.95c.64,0,1.23,.14,1.77,.42,.54,.28,.98,.71,1.31,1.28,.33,.58,.5,1.29,.5,2.15s-.17,1.58-.5,2.15c-.33,.58-.77,1-1.31,1.28s-1.13,.42-1.77,.42h-2.41v-7.7h2.41Zm1.39,5.81c.49-.38,.74-1.03,.74-1.96s-.25-1.58-.74-1.96c-.5-.38-1.11-.57-1.84-.57h-.53v5.06h.53c.73,0,1.35-.19,1.84-.57Z"/>
  </g>
  <g>
    <path class="cls-15" d="M335.98,102.83c0,1-.27,1.76-.82,2.28-.54,.52-1.27,.78-2.16,.78s-1.62-.26-2.16-.78c-.54-.52-.82-1.28-.82-2.28v-1.88h-3.84v-1.82h9.8v3.7Zm-3.96,.88c.21,.22,.54,.34,.98,.34s.76-.11,.98-.34c.21-.22,.32-.54,.32-.95v-1.81h-2.6v1.81c0,.41,.11,.73,.32,.95Z"/>
    <path class="cls-15" d="M326.63,107.22c.37-.4,.9-.6,1.58-.6s1.26,.27,1.68,.8,.63,1.25,.63,2.16v1.23h.31c.34,0,.6-.12,.78-.35s.26-.53,.26-.88c0-.61-.27-1.01-.81-1.22l.34-1.47c.59,.11,1.06,.41,1.42,.9s.54,1.08,.54,1.79c0,.94-.25,1.67-.75,2.19-.5,.52-1.23,.78-2.21,.78h-4.21v-1.43l.9-.18c-.67-.55-1.01-1.27-1.01-2.17,0-.62,.19-1.14,.56-1.54Zm1.32,3.11c.27,.32,.62,.48,1.06,.48h.14v-1.16c0-.38-.08-.68-.22-.89-.15-.21-.38-.31-.69-.31-.21,0-.37,.07-.5,.22-.12,.14-.19,.33-.19,.57,0,.42,.13,.79,.4,1.11Z"/>
    <path class="cls-15" d="M333.24,116.04h-1.15c.4,.25,.71,.56,.93,.92s.33,.75,.33,1.16c0,.26-.05,.55-.14,.85l-1.61-.32c.13-.21,.2-.46,.2-.73,0-.55-.25-1-.75-1.36-.5-.36-1.29-.53-2.36-.53h-2.51v-1.74h7.06v1.74Z"/>
    <path class="cls-15" d="M326.73,121.48c.44-.46,1.09-.69,1.95-.69h3.08v-1.09h1.48v1.09h1.76l1.09,1.74h-2.86v1.86h-1.48v-1.86h-3.05c-.42,0-.72,.08-.89,.23s-.26,.38-.26,.69c0,.23,.06,.46,.17,.67l-1.4,.41c-.17-.36-.25-.75-.25-1.15,0-.81,.22-1.45,.66-1.9Z"/>
    <path class="cls-15" d="M333.24,125.74v1.74h-7.06v-1.74h7.06Zm1.23,.07c.21-.21,.48-.32,.8-.32s.58,.11,.8,.32,.32,.48,.32,.8-.11,.58-.32,.8c-.21,.21-.48,.32-.8,.32s-.58-.11-.8-.32-.32-.48-.32-.8,.11-.58,.32-.8Z"/>
    <path class="cls-15" d="M326.73,130.36c.44-.46,1.09-.69,1.95-.69h3.08v-1.09h1.48v1.09h1.76l1.09,1.74h-2.86v1.86h-1.48v-1.86h-3.05c-.42,0-.72,.08-.89,.23s-.26,.38-.26,.69c0,.23,.06,.46,.17,.67l-1.4,.41c-.17-.36-.25-.75-.25-1.15,0-.81,.22-1.45,.66-1.9Z"/>
    <path class="cls-15" d="M333.24,134.61v1.74h-7.06v-1.74h7.06Zm1.23,.07c.21-.21,.48-.32,.8-.32s.58,.11,.8,.32,.32,.48,.32,.8-.11,.58-.32,.8-.48,.32-.8,.32-.58-.11-.8-.32c-.21-.21-.32-.48-.32-.8s.11-.58,.32-.8Z"/>
    <path class="cls-15" d="M326.55,139.56c.32-.54,.75-.95,1.3-1.24s1.17-.43,1.86-.43,1.31,.14,1.86,.43c.55,.29,.98,.7,1.3,1.24,.32,.54,.48,1.18,.48,1.92s-.16,1.38-.48,1.92c-.32,.54-.75,.95-1.3,1.24-.55,.28-1.17,.43-1.86,.43s-1.31-.14-1.86-.43c-.55-.29-.98-.7-1.3-1.24-.32-.54-.47-1.18-.47-1.92s.16-1.38,.47-1.92Zm1.63,3.21c.42,.32,.93,.48,1.53,.48s1.12-.16,1.53-.48c.42-.32,.62-.75,.62-1.29s-.21-.97-.62-1.29c-.42-.32-.93-.48-1.53-.48s-1.12,.16-1.53,.48-.62,.75-.62,1.29,.21,.97,.62,1.29Z"/>
    <path class="cls-15" d="M333.24,148.36h-1.13c.38,.27,.69,.59,.91,.97,.22,.37,.34,.78,.34,1.22,0,.65-.18,1.18-.55,1.58-.36,.4-.89,.59-1.58,.59h-5.04v-1.74h4.52c.4,0,.7-.09,.88-.27,.19-.18,.28-.43,.28-.74,0-.29-.11-.56-.34-.8-.22-.24-.55-.44-.99-.59-.43-.15-.95-.22-1.55-.22h-2.81v-1.74h7.06v1.74Z"/>
    <path class="cls-15" d="M333.24,154.62v1.74h-7.06v-1.74h7.06Zm1.23,.07c.21-.21,.48-.32,.8-.32s.58,.11,.8,.32,.32,.48,.32,.8-.11,.58-.32,.8-.48,.32-.8,.32-.58-.11-.8-.32c-.21-.21-.32-.48-.32-.8s.11-.58,.32-.8Z"/>
    <path class="cls-15" d="M333.24,160h-1.13c.38,.27,.69,.59,.91,.97,.22,.37,.34,.78,.34,1.22,0,.65-.18,1.18-.55,1.58-.36,.4-.89,.59-1.58,.59h-5.04v-1.74h4.52c.4,0,.7-.09,.88-.27,.19-.18,.28-.43,.28-.74,0-.29-.11-.56-.34-.8-.22-.24-.55-.44-.99-.59-.43-.15-.95-.22-1.55-.22h-2.81v-1.74h7.06v1.74Z"/>
    <path class="cls-15" d="M323.82,166.47c.4-.59,.98-.89,1.72-.89,.58,0,1.05,.19,1.4,.57,.29-.24,.65-.36,1.09-.36,.33,0,.62,.08,.87,.23,.25,.15,.46,.37,.62,.64,.4-.33,.89-.49,1.46-.49,.48,0,.89,.11,1.25,.34s.64,.54,.83,.94c.2,.4,.29,.83,.29,1.31s-.1,.89-.31,1.3l.7,1.33-1.15,.69-.5-1.01c-.33,.19-.7,.28-1.12,.28-.48,0-.89-.11-1.25-.34s-.63-.54-.82-.94-.28-.83-.28-1.31c0-.35,.05-.7,.15-1.02-.13-.22-.31-.34-.53-.34-.17,0-.3,.06-.39,.17-.09,.11-.13,.28-.13,.49v1.44c0,.76-.18,1.36-.54,1.81s-.87,.67-1.53,.67c-.55,0-1.01-.15-1.37-.46-.36-.3-.63-.7-.8-1.18s-.26-1.01-.26-1.57c0-.94,.2-1.71,.6-2.3Zm1.06,3.37c.14,.27,.36,.4,.66,.4,.27,0,.46-.1,.57-.29,.11-.2,.16-.48,.16-.84v-.95c0-.32,.02-.59,.06-.81-.16-.1-.37-.15-.64-.15-.33,0-.58,.14-.75,.43-.17,.29-.26,.67-.26,1.15,0,.45,.07,.81,.21,1.07Zm5.4-.39c.18,.18,.41,.27,.69,.27s.52-.09,.71-.27c.18-.18,.27-.41,.27-.69s-.09-.51-.27-.69c-.18-.18-.42-.27-.71-.27s-.51,.09-.69,.27c-.18,.18-.27,.41-.27,.69s.09,.51,.27,.69Z"/>
  </g>
  <g>
    <path d="M299.85,521.08c-.7-.39-1.27-.96-1.69-1.71s-.63-1.66-.63-2.72,.21-1.96,.63-2.72,.98-1.33,1.69-1.71c.71-.39,1.48-.58,2.32-.58,1.06,0,1.95,.26,2.65,.78,.7,.52,1.17,1.25,1.41,2.19l-1.64,.42c-.21-.54-.5-.96-.88-1.26s-.9-.45-1.54-.45c-.52,0-.99,.12-1.41,.37s-.75,.62-1,1.12c-.25,.5-.37,1.11-.37,1.84s.12,1.34,.37,1.84c.25,.5,.58,.87,1,1.12s.89,.37,1.41,.37c.64,0,1.16-.15,1.54-.45s.68-.72,.88-1.26l1.64,.42c-.23,.94-.7,1.67-1.41,2.19-.71,.52-1.59,.78-2.65,.78-.84,0-1.61-.19-2.32-.58Z"/>
    <path d="M307.8,511.63h1.74v9.91h-1.74v-9.91Z"/>
    <path d="M312.09,521.11c-.4-.36-.59-.89-.59-1.58v-5.04h1.74v4.52c0,.4,.09,.7,.27,.88s.43,.28,.74,.28c.29,0,.55-.11,.8-.34,.24-.22,.44-.55,.59-.99,.15-.43,.22-.95,.22-1.55v-2.81h1.74v7.06h-1.74v-1.13c-.27,.38-.59,.69-.97,.91s-.78,.34-1.22,.34c-.65,0-1.18-.18-1.58-.55Z"/>
    <path d="M319.94,521.1c-.49-.37-.81-.82-.97-1.34l1.39-.74c.13,.36,.32,.65,.55,.85,.24,.21,.52,.31,.85,.31,.22,0,.42-.06,.57-.18,.16-.12,.24-.29,.24-.51s-.12-.4-.36-.55c-.24-.15-.61-.32-1.09-.51-.53-.21-.95-.49-1.24-.81s-.44-.75-.44-1.26c0-.36,.1-.7,.29-.99s.46-.54,.79-.71,.72-.27,1.15-.27c.48,0,.91,.1,1.3,.3,.39,.2,.7,.48,.91,.85l-1.04,.95c-.28-.41-.66-.62-1.13-.62-.19,0-.35,.05-.48,.15-.14,.1-.2,.23-.2,.39,0,.17,.1,.32,.29,.47,.2,.15,.58,.32,1.15,.52,.55,.2,.97,.45,1.27,.77s.45,.72,.45,1.22c0,.69-.22,1.24-.67,1.66s-1.03,.62-1.74,.62-1.34-.19-1.83-.56Z"/>
    <path d="M326.47,521c-.46-.44-.69-1.09-.69-1.95v-3.08h-1.09v-1.48h1.09v-1.76l1.74-1.09v2.86h1.86v1.48h-1.86v3.05c0,.42,.08,.72,.23,.89,.15,.17,.38,.26,.69,.26,.23,0,.46-.06,.67-.17l.41,1.4c-.36,.17-.75,.25-1.15,.25-.81,0-1.45-.22-1.9-.66Z"/>
    <path d="M336.68,518.58h-4.87c.08,.52,.26,.92,.55,1.19,.29,.27,.67,.41,1.13,.41,.39,0,.72-.09,.99-.27,.27-.18,.51-.45,.72-.83l1.4,.52c-.29,.66-.69,1.17-1.21,1.53-.52,.36-1.18,.53-2,.53-.77,0-1.4-.18-1.91-.54s-.88-.82-1.12-1.37c-.24-.55-.36-1.13-.36-1.73s.12-1.17,.36-1.73c.24-.56,.61-1.01,1.12-1.37s1.15-.54,1.91-.54,1.35,.18,1.85,.53c.49,.35,.86,.79,1.09,1.32s.35,1.08,.35,1.64v.71Zm-1.78-1.37c-.08-.39-.25-.71-.5-.97-.25-.25-.59-.38-1.02-.38-.37,0-.7,.11-.97,.34-.27,.23-.46,.56-.57,1h3.05Z"/>
    <path d="M339.98,514.49v1.15c.25-.4,.56-.71,.92-.93,.36-.22,.75-.33,1.16-.33,.26,0,.55,.05,.85,.14l-.32,1.61c-.21-.13-.46-.2-.73-.2-.55,0-1,.25-1.36,.75-.35,.5-.53,1.29-.53,2.36v2.51h-1.74v-7.06h1.74Z"/>
  </g>
  <g>
    <path class="cls-15" d="M430.96,455.62c.81,0,1.56,.18,2.25,.53,.69,.36,1.25,.9,1.67,1.63,.42,.73,.64,1.65,.64,2.74s-.21,2-.64,2.74-.98,1.28-1.67,1.63-1.44,.53-2.25,.53h-3.07v-9.8h3.07Zm1.77,7.4c.63-.48,.94-1.31,.94-2.5s-.31-2.02-.94-2.5c-.63-.48-1.41-.72-2.35-.72h-.67v6.44h.67c.93,0,1.72-.24,2.35-.72Z"/>
    <path class="cls-15" d="M437.22,457.14c-.21-.21-.32-.48-.32-.8s.11-.58,.32-.8,.48-.32,.8-.32,.58,.11,.8,.32c.21,.21,.32,.48,.32,.8s-.11,.58-.32,.8c-.21,.21-.48,.32-.8,.32s-.58-.11-.8-.32Zm-.07,1.23h1.74v7.06h-1.74v-7.06Z"/>
    <path class="cls-15" d="M441.17,464.98c-.49-.37-.81-.82-.97-1.34l1.39-.74c.13,.36,.31,.65,.55,.85,.24,.21,.52,.31,.85,.31,.22,0,.42-.06,.57-.17,.16-.12,.24-.29,.24-.51s-.12-.4-.36-.55c-.24-.15-.61-.32-1.09-.51-.53-.21-.95-.49-1.24-.81-.29-.33-.44-.75-.44-1.26,0-.36,.1-.7,.29-.99,.19-.3,.46-.54,.79-.71,.34-.18,.72-.27,1.15-.27,.48,0,.91,.1,1.3,.3,.39,.2,.7,.48,.91,.85l-1.04,.95c-.28-.41-.66-.62-1.13-.62-.19,0-.35,.05-.48,.15-.14,.1-.2,.23-.2,.38,0,.17,.1,.32,.29,.47,.2,.15,.58,.32,1.15,.53,.55,.2,.98,.45,1.27,.77,.3,.32,.45,.72,.45,1.22,0,.69-.22,1.24-.67,1.66-.45,.42-1.03,.62-1.74,.62s-1.34-.19-1.83-.56Z"/>
    <path class="cls-15" d="M447.71,464.88c-.46-.44-.69-1.09-.69-1.95v-3.08h-1.09v-1.48h1.09v-1.76l1.74-1.09v2.86h1.86v1.48h-1.86v3.05c0,.42,.08,.72,.23,.89,.15,.17,.38,.26,.69,.26,.23,0,.46-.06,.67-.17l.41,1.4c-.36,.17-.75,.25-1.15,.25-.81,0-1.45-.22-1.9-.66Z"/>
    <path class="cls-15" d="M453.59,458.37v1.15c.25-.4,.56-.71,.92-.93,.36-.22,.75-.33,1.16-.33,.26,0,.55,.05,.85,.14l-.32,1.61c-.21-.13-.46-.2-.73-.2-.55,0-1,.25-1.36,.75-.36,.5-.53,1.29-.53,2.36v2.51h-1.74v-7.06h1.74Z"/>
    <path class="cls-15" d="M457.76,457.14c-.21-.21-.32-.48-.32-.8s.11-.58,.32-.8,.48-.32,.8-.32,.58,.11,.8,.32,.32,.48,.32,.8-.11,.58-.32,.8-.48,.32-.8,.32-.58-.11-.8-.32Zm-.07,1.23h1.74v7.06h-1.74v-7.06Z"/>
    <path class="cls-15" d="M463.76,465.27c-.31-.18-.53-.37-.64-.57v.73h-1.74v-9.91h1.74v3.5c.16-.21,.4-.38,.71-.53,.32-.15,.65-.22,.99-.22,1.04,0,1.83,.33,2.39,.99,.55,.66,.83,1.54,.83,2.65s-.28,2-.83,2.65c-.56,.66-1.35,.99-2.39,.99-.4,0-.76-.09-1.07-.27Zm2.01-1.79c.31-.38,.46-.91,.46-1.58s-.15-1.21-.46-1.59-.7-.57-1.18-.57-.87,.19-1.17,.57c-.3,.38-.46,.91-.46,1.59s.15,1.21,.46,1.59c.3,.38,.69,.57,1.17,.57s.87-.19,1.18-.57Z"/>
    <path class="cls-15" d="M470.21,464.99c-.4-.36-.6-.89-.6-1.58v-5.04h1.74v4.52c0,.4,.09,.7,.27,.88,.18,.19,.43,.28,.74,.28,.29,0,.56-.11,.8-.34,.24-.22,.44-.55,.59-.99s.22-.95,.22-1.55v-2.81h1.74v7.06h-1.74v-1.13c-.27,.38-.59,.69-.97,.91-.37,.22-.78,.34-1.22,.34-.65,0-1.18-.18-1.57-.55Z"/>
    <path class="cls-15" d="M478.59,464.88c-.46-.44-.69-1.09-.69-1.95v-3.08h-1.09v-1.48h1.09v-1.76l1.74-1.09v2.86h1.86v1.48h-1.86v3.05c0,.42,.08,.72,.23,.89s.38,.26,.69,.26c.23,0,.46-.06,.67-.17l.41,1.4c-.36,.17-.75,.25-1.15,.25-.81,0-1.45-.22-1.9-.66Z"/>
    <path class="cls-15" d="M482.91,457.14c-.21-.21-.32-.48-.32-.8s.11-.58,.32-.8,.48-.32,.8-.32,.58,.11,.8,.32c.21,.21,.32,.48,.32,.8s-.11,.58-.32,.8c-.21,.21-.48,.32-.8,.32s-.58-.11-.8-.32Zm-.07,1.23h1.74v7.06h-1.74v-7.06Z"/>
    <path class="cls-15" d="M487.79,465.06c-.54-.32-.95-.75-1.24-1.3-.29-.55-.43-1.17-.43-1.86s.14-1.31,.43-1.86c.28-.55,.7-.98,1.24-1.3,.54-.32,1.18-.48,1.92-.48s1.38,.16,1.92,.48c.54,.32,.95,.75,1.24,1.3,.29,.55,.43,1.17,.43,1.86s-.14,1.31-.43,1.86-.7,.98-1.24,1.3c-.54,.32-1.18,.48-1.92,.48s-1.38-.16-1.92-.48Zm3.21-1.63c.32-.42,.48-.93,.48-1.53s-.16-1.12-.48-1.53c-.32-.42-.75-.62-1.29-.62s-.97,.21-1.29,.62c-.32,.42-.48,.93-.48,1.53s.16,1.12,.48,1.53,.75,.62,1.29,.62,.97-.21,1.29-.62Z"/>
    <path class="cls-15" d="M496.59,458.37v1.13c.27-.38,.59-.69,.97-.91,.37-.22,.78-.34,1.22-.34,.65,0,1.18,.18,1.58,.55,.4,.36,.59,.89,.59,1.58v5.04h-1.74v-4.52c0-.4-.09-.7-.27-.88-.18-.19-.43-.28-.74-.28-.29,0-.56,.11-.8,.34-.24,.22-.44,.55-.59,.99-.15,.43-.22,.95-.22,1.55v2.81h-1.74v-7.06h1.74Z"/>
  </g>
  <g>
    <path class="cls-15" d="M145.03,455.62c.81,0,1.56,.18,2.25,.53,.69,.36,1.25,.9,1.67,1.63,.42,.73,.64,1.65,.64,2.74s-.21,2-.64,2.74-.98,1.28-1.67,1.63-1.44,.53-2.25,.53h-3.07v-9.8h3.07Zm1.77,7.4c.63-.48,.94-1.31,.94-2.5s-.31-2.02-.94-2.5c-.63-.48-1.41-.72-2.35-.72h-.67v6.44h.67c.93,0,1.72-.24,2.35-.72Z"/>
    <path class="cls-15" d="M151.29,457.14c-.21-.21-.32-.48-.32-.8s.11-.58,.32-.8,.48-.32,.8-.32,.58,.11,.8,.32c.21,.21,.32,.48,.32,.8s-.11,.58-.32,.8c-.21,.21-.48,.32-.8,.32s-.58-.11-.8-.32Zm-.07,1.23h1.74v7.06h-1.74v-7.06Z"/>
    <path class="cls-15" d="M155.25,464.98c-.49-.37-.81-.82-.97-1.34l1.39-.74c.13,.36,.31,.65,.55,.85,.24,.21,.52,.31,.85,.31,.22,0,.42-.06,.57-.17,.16-.12,.24-.29,.24-.51s-.12-.4-.36-.55c-.24-.15-.61-.32-1.09-.51-.53-.21-.95-.49-1.24-.81-.29-.33-.44-.75-.44-1.26,0-.36,.1-.7,.29-.99,.19-.3,.46-.54,.79-.71,.34-.18,.72-.27,1.15-.27,.48,0,.91,.1,1.3,.3,.39,.2,.7,.48,.91,.85l-1.04,.95c-.28-.41-.66-.62-1.13-.62-.19,0-.35,.05-.48,.15-.14,.1-.2,.23-.2,.38,0,.17,.1,.32,.29,.47,.2,.15,.58,.32,1.15,.53,.55,.2,.98,.45,1.27,.77,.3,.32,.45,.72,.45,1.22,0,.69-.22,1.24-.67,1.66-.45,.42-1.03,.62-1.74,.62s-1.34-.19-1.83-.56Z"/>
    <path class="cls-15" d="M161.78,464.88c-.46-.44-.69-1.09-.69-1.95v-3.08h-1.09v-1.48h1.09v-1.76l1.74-1.09v2.86h1.86v1.48h-1.86v3.05c0,.42,.08,.72,.23,.89,.15,.17,.38,.26,.69,.26,.23,0,.46-.06,.67-.17l.41,1.4c-.36,.17-.75,.25-1.15,.25-.81,0-1.45-.22-1.9-.66Z"/>
    <path class="cls-15" d="M167.66,458.37v1.15c.25-.4,.56-.71,.92-.93,.36-.22,.75-.33,1.16-.33,.26,0,.55,.05,.85,.14l-.32,1.61c-.21-.13-.46-.2-.73-.2-.55,0-1,.25-1.36,.75-.36,.5-.53,1.29-.53,2.36v2.51h-1.74v-7.06h1.74Z"/>
    <path class="cls-15" d="M171.83,457.14c-.21-.21-.32-.48-.32-.8s.11-.58,.32-.8,.48-.32,.8-.32,.58,.11,.8,.32,.32,.48,.32,.8-.11,.58-.32,.8-.48,.32-.8,.32-.58-.11-.8-.32Zm-.07,1.23h1.74v7.06h-1.74v-7.06Z"/>
    <path class="cls-15" d="M177.83,465.27c-.31-.18-.53-.37-.64-.57v.73h-1.74v-9.91h1.74v3.5c.16-.21,.4-.38,.71-.53,.32-.15,.65-.22,.99-.22,1.04,0,1.83,.33,2.39,.99,.55,.66,.83,1.54,.83,2.65s-.28,2-.83,2.65c-.56,.66-1.35,.99-2.39,.99-.4,0-.76-.09-1.07-.27Zm2.01-1.79c.31-.38,.46-.91,.46-1.58s-.15-1.21-.46-1.59-.7-.57-1.18-.57-.87,.19-1.17,.57c-.3,.38-.46,.91-.46,1.59s.15,1.21,.46,1.59c.3,.38,.69,.57,1.17,.57s.87-.19,1.18-.57Z"/>
    <path class="cls-15" d="M184.28,464.99c-.4-.36-.6-.89-.6-1.58v-5.04h1.74v4.52c0,.4,.09,.7,.27,.88,.18,.19,.43,.28,.74,.28,.29,0,.56-.11,.8-.34,.24-.22,.44-.55,.59-.99s.22-.95,.22-1.55v-2.81h1.74v7.06h-1.74v-1.13c-.27,.38-.59,.69-.97,.91-.37,.22-.78,.34-1.22,.34-.65,0-1.18-.18-1.57-.55Z"/>
    <path class="cls-15" d="M192.66,464.88c-.46-.44-.69-1.09-.69-1.95v-3.08h-1.09v-1.48h1.09v-1.76l1.74-1.09v2.86h1.86v1.48h-1.86v3.05c0,.42,.08,.72,.23,.89s.38,.26,.69,.26c.23,0,.46-.06,.67-.17l.41,1.4c-.36,.17-.75,.25-1.15,.25-.81,0-1.45-.22-1.9-.66Z"/>
    <path class="cls-15" d="M196.99,457.14c-.21-.21-.32-.48-.32-.8s.11-.58,.32-.8,.48-.32,.8-.32,.58,.11,.8,.32c.21,.21,.32,.48,.32,.8s-.11,.58-.32,.8c-.21,.21-.48,.32-.8,.32s-.58-.11-.8-.32Zm-.07,1.23h1.74v7.06h-1.74v-7.06Z"/>
    <path class="cls-15" d="M201.86,465.06c-.54-.32-.95-.75-1.24-1.3-.29-.55-.43-1.17-.43-1.86s.14-1.31,.43-1.86c.28-.55,.7-.98,1.24-1.3,.54-.32,1.18-.48,1.92-.48s1.38,.16,1.92,.48c.54,.32,.95,.75,1.24,1.3,.29,.55,.43,1.17,.43,1.86s-.14,1.31-.43,1.86-.7,.98-1.24,1.3c-.54,.32-1.18,.48-1.92,.48s-1.38-.16-1.92-.48Zm3.21-1.63c.32-.42,.48-.93,.48-1.53s-.16-1.12-.48-1.53c-.32-.42-.75-.62-1.29-.62s-.97,.21-1.29,.62c-.32,.42-.48,.93-.48,1.53s.16,1.12,.48,1.53,.75,.62,1.29,.62,.97-.21,1.29-.62Z"/>
    <path class="cls-15" d="M210.66,458.37v1.13c.27-.38,.59-.69,.97-.91,.37-.22,.78-.34,1.22-.34,.65,0,1.18,.18,1.58,.55,.4,.36,.59,.89,.59,1.58v5.04h-1.74v-4.52c0-.4-.09-.7-.27-.88-.18-.19-.43-.28-.74-.28-.29,0-.56,.11-.8,.34-.24,.22-.44,.55-.59,.99-.15,.43-.22,.95-.22,1.55v2.81h-1.74v-7.06h1.74Z"/>
  </g>
  <path class="cls-15" d="M102.07,227.67h0c-.28,0-.5-.23-.5-.5l.15-34.71h435.79v34.71c0,.28-.22,.5-.5,.5s-.5-.22-.5-.5v-33.71H102.71l-.15,33.71c0,.28-.22,.5-.5,.5Z"/>
  <path class="cls-15" d="M570.87,362.73h0c-.28,0-.5-.23-.49-.51l.39-33.7h-64.23l-.42,33.71c0,.28-.27,.5-.51,.49-.28,0-.5-.23-.49-.51l.43-34.7h66.23l-.41,34.71c0,.27-.23,.49-.5,.49Z"/>
  <path class="cls-15" d="M567.32,444.8H69.2c-.28,0-.5-.22-.5-.5l-.17-34.21c0-.28,.22-.5,.5-.5h0c.28,0,.5,.22,.5,.5l.17,33.71h497.12v-33.71c0-.28,.22-.5,.5-.5s.5,.22,.5,.5v34.21c0,.28-.22,.5-.5,.5Z"/>
  <path class="cls-15" d="M102.07,227.64c-.13,0-.26-.05-.35-.15l-10.5-10.5c-.2-.2-.2-.51,0-.71s.51-.2,.71,0l10.15,10.15,10.15-10.15c.2-.2,.51-.2,.71,0s.2,.51,0,.71l-10.5,10.5c-.1,.1-.23,.15-.35,.15Z"/>
  <path class="cls-15" d="M537.03,227.74c-.13,0-.26-.05-.35-.15l-10.5-10.5c-.2-.2-.2-.51,0-.71s.51-.2,.71,0l10.15,10.15,10.15-10.15c.2-.2,.51-.2,.71,0s.2,.51,0,.71l-10.5,10.5c-.1,.1-.23,.15-.35,.15Z"/>
  <path class="cls-15" d="M570.93,362.89c-.13,0-.26-.05-.35-.15l-10.5-10.5c-.2-.2-.2-.51,0-.71s.51-.2,.71,0l10.15,10.15,10.15-10.15c.2-.2,.51-.2,.71,0s.2,.51,0,.71l-10.5,10.5c-.1,.1-.23,.15-.35,.15Z"/>
  <path class="cls-15" d="M505.61,362.89c-.12,0-.27-.06-.36-.15l-10.1-10.5c-.19-.2-.19-.52,.01-.71,.2-.19,.51-.18,.71,.01l9.75,10.13,10.14-10.14c.2-.2,.51-.2,.71,0s.2,.51,0,.71l-10.5,10.5c-.09,.09-.22,.15-.35,.15Z"/>
  <path class="cls-15" d="M134.61,444.39c-.28,0-.5-.22-.5-.5v-34.67c0-.28,.22-.5,.5-.5s.5,.22,.5,.5v34.67c0,.28-.22,.5-.5,.5Z"/>
  <path class="cls-15" d="M505.77,444.39c-.28,0-.5-.22-.5-.5v-34.67c0-.28,.22-.5,.5-.5s.5,.22,.5,.5v34.67c0,.28-.22,.5-.5,.5Z"/>
  <g>
    <path class="cls-17" d="M101.64,275.19v52.74"/>
    <path class="cls-15" d="M101.64,328.43c-.28,0-.5-.22-.5-.5v-52.74c0-.28,.22-.5,.5-.5s.5,.22,.5,.5v52.74c0,.28-.22,.5-.5,.5Z"/>
  </g>
  <path class="cls-15" d="M69.38,362.73h0c-.28,0-.5-.22-.5-.5l.02-34.71h66.23v34.71c0,.28-.22,.5-.5,.5s-.5-.22-.5-.5v-33.71H69.91l-.02,33.71c0,.28-.22,.5-.5,.5Z"/>
  <path class="cls-15" d="M134.7,362.89c-.13,0-.26-.05-.35-.15l-10.5-10.5c-.2-.2-.2-.51,0-.71s.51-.2,.71,0l10.15,10.15,10.15-10.15c.2-.2,.51-.2,.71,0s.2,.51,0,.71l-10.5,10.5c-.1,.1-.23,.15-.35,.15Z"/>
  <path class="cls-15" d="M69.38,362.89c-.13,0-.26-.05-.35-.15l-10.5-10.5c-.2-.2-.2-.51,0-.71s.51-.2,.71,0l10.15,10.15,10.15-10.15c.2-.2,.51-.2,.71,0s.2,.51,0,.71l-10.5,10.5c-.1,.1-.23,.15-.35,.15Z"/>
  <g>
    <g>
      <rect class="cls-14" x="502.23" y="234.05" width="70.95" height="50.4"/>
      <path class="cls-3" d="M573.68,284.95h-71.96v-51.4h71.96v51.4Zm-70.96-1h69.96v-49.4h-69.96v49.4Z"/>
      <g class="cls-19">
        <g>
          <rect class="cls-14" x="502.23" y="233.92" width="70.95" height="50.66"/>
          <path class="cls-3" d="M573.68,285.08h-71.96v-51.66h71.96v51.66Zm-70.96-1h69.96v-49.66h-69.96v49.66Z"/>
        </g>
      </g>
    </g>
    <g>
      <rect class="cls-14" x="502.23" y="234.05" width="70.95" height="50.4"/>
      <path class="cls-3" d="M573.68,284.95h-71.96v-51.4h71.96v51.4Zm-70.96-1h69.96v-49.4h-69.96v49.4Z"/>
    </g>
    <g>
      <rect class="cls-15" x="507.37" y="239.05" width="60.68" height="40.41"/>
      <path class="cls-3" d="M568.54,279.96h-61.68v-41.41h61.68v41.41Zm-60.68-1h59.68v-39.41h-59.68v39.41Z"/>
    </g>
  </g>
  <g>
    <rect class="cls-15" x="407.79" y="538.14" width="60.68" height="40.41" rx="20.2" ry="20.2"/>
    <path class="cls-3" d="M448.26,579.05h-20.27c-11.42,0-20.7-9.29-20.7-20.7s9.29-20.7,20.7-20.7h20.27c11.42,0,20.7,9.29,20.7,20.7s-9.29,20.7-20.7,20.7Zm-20.27-40.41c-10.86,0-19.7,8.84-19.7,19.7s8.84,19.7,19.7,19.7h20.27c10.86,0,19.7-8.84,19.7-19.7s-8.84-19.7-19.7-19.7h-20.27Z"/>
  </g>
  <g>
    <rect class="cls-15" x="286.88" y="538.14" width="60.68" height="40.41" rx="20.2" ry="20.2"/>
    <path class="cls-3" d="M327.35,579.05h-20.27c-11.42,0-20.7-9.29-20.7-20.7s9.29-20.7,20.7-20.7h20.27c11.42,0,20.7,9.29,20.7,20.7s-9.29,20.7-20.7,20.7Zm-20.27-40.41c-10.87,0-19.7,8.84-19.7,19.7s8.84,19.7,19.7,19.7h20.27c10.87,0,19.7-8.84,19.7-19.7s-8.84-19.7-19.7-19.7h-20.27Z"/>
  </g>
  <g>
    <rect class="cls-15" x="164.34" y="538.14" width="60.68" height="40.41" rx="20.2" ry="20.2"/>
    <path class="cls-3" d="M204.81,579.05h-20.27c-11.42,0-20.7-9.29-20.7-20.7s9.29-20.7,20.7-20.7h20.27c11.42,0,20.7,9.29,20.7,20.7s-9.29,20.7-20.7,20.7Zm-20.27-40.41c-10.87,0-19.7,8.84-19.7,19.7s8.84,19.7,19.7,19.7h20.27c10.86,0,19.7-8.84,19.7-19.7s-8.84-19.7-19.7-19.7h-20.27Z"/>
  </g>
  <g>
    <path d="M425.95,555.23h1.51l2.83,5.08v-5.08h1.43v7.7h-1.51l-2.83-5.08v5.08h-1.43v-7.7Z"/>
    <path d="M434.36,562.64c-.43-.25-.75-.59-.97-1.02s-.34-.92-.34-1.46,.11-1.03,.34-1.46,.55-.77,.97-1.02c.42-.25,.93-.37,1.51-.37s1.08,.12,1.51,.37,.75,.59,.97,1.02,.34,.92,.34,1.46-.11,1.03-.34,1.46-.55,.77-.97,1.02c-.43,.25-.93,.37-1.51,.37s-1.08-.12-1.51-.37Zm2.52-1.28c.25-.33,.37-.73,.37-1.2s-.12-.88-.37-1.21c-.25-.33-.59-.49-1.01-.49s-.76,.16-1.01,.49c-.25,.33-.37,.73-.37,1.21s.12,.88,.37,1.2c.25,.33,.59,.49,1.01,.49s.76-.16,1.01-.49Z"/>
    <path d="M440.24,562.24c-.42-.52-.63-1.21-.63-2.08s.21-1.57,.63-2.08c.42-.52,1.02-.78,1.79-.78,.32,0,.6,.06,.86,.17,.26,.11,.46,.25,.59,.42v-2.75h1.36v7.79h-1.36v-.57c-.09,.17-.26,.32-.52,.46-.26,.14-.57,.2-.93,.2-.77,0-1.37-.26-1.79-.78Zm3-.84c.24-.3,.36-.71,.36-1.25s-.12-.95-.36-1.25-.54-.45-.92-.45-.68,.15-.92,.45c-.24,.3-.36,.71-.36,1.25s.12,.94,.36,1.24c.24,.3,.55,.45,.92,.45s.68-.15,.92-.45Z"/>
    <path d="M451.32,560.59h-3.83c.06,.41,.2,.72,.43,.94,.23,.21,.53,.32,.89,.32,.31,0,.57-.07,.78-.21,.21-.14,.4-.36,.57-.65l1.1,.41c-.23,.52-.54,.92-.95,1.2-.41,.28-.93,.42-1.57,.42-.6,0-1.1-.14-1.5-.42s-.69-.64-.88-1.08c-.19-.44-.28-.89-.28-1.36s.09-.92,.28-1.36c.19-.44,.48-.8,.88-1.08s.9-.42,1.5-.42,1.06,.14,1.45,.41c.39,.28,.67,.62,.86,1.04s.28,.85,.28,1.29v.56Zm-1.4-1.08c-.07-.31-.2-.56-.39-.76s-.46-.3-.8-.3c-.29,0-.55,.09-.76,.27-.21,.18-.36,.44-.45,.79h2.4Z"/>
  </g>
  <g>
    <path d="M305.12,555.23h1.51l2.83,5.08v-5.08h1.43v7.7h-1.51l-2.83-5.08v5.08h-1.43v-7.7Z"/>
    <path d="M313.53,562.64c-.43-.25-.75-.59-.97-1.02s-.34-.92-.34-1.46,.11-1.03,.34-1.46,.55-.77,.97-1.02c.42-.25,.93-.37,1.51-.37s1.08,.12,1.51,.37,.75,.59,.97,1.02,.34,.92,.34,1.46-.11,1.03-.34,1.46-.55,.77-.97,1.02c-.43,.25-.93,.37-1.51,.37s-1.08-.12-1.51-.37Zm2.52-1.28c.25-.33,.37-.73,.37-1.2s-.12-.88-.37-1.21c-.25-.33-.59-.49-1.01-.49s-.76,.16-1.01,.49c-.25,.33-.37,.73-.37,1.21s.12,.88,.37,1.2c.25,.33,.59,.49,1.01,.49s.76-.16,1.01-.49Z"/>
    <path d="M319.41,562.24c-.42-.52-.63-1.21-.63-2.08s.21-1.57,.63-2.08c.42-.52,1.02-.78,1.79-.78,.32,0,.6,.06,.86,.17,.26,.11,.46,.25,.59,.42v-2.75h1.36v7.79h-1.36v-.57c-.09,.17-.26,.32-.52,.46-.26,.14-.57,.2-.93,.2-.77,0-1.37-.26-1.79-.78Zm3-.84c.24-.3,.36-.71,.36-1.25s-.12-.95-.36-1.25-.54-.45-.92-.45-.68,.15-.92,.45c-.24,.3-.36,.71-.36,1.25s.12,.94,.36,1.24c.24,.3,.55,.45,.92,.45s.68-.15,.92-.45Z"/>
    <path d="M330.49,560.59h-3.83c.06,.41,.2,.72,.43,.94,.23,.21,.53,.32,.89,.32,.31,0,.57-.07,.78-.21,.21-.14,.4-.36,.57-.65l1.1,.41c-.23,.52-.54,.92-.95,1.2-.41,.28-.93,.42-1.57,.42-.6,0-1.1-.14-1.5-.42s-.69-.64-.88-1.08c-.19-.44-.28-.89-.28-1.36s.09-.92,.28-1.36c.19-.44,.48-.8,.88-1.08s.9-.42,1.5-.42,1.06,.14,1.45,.41c.39,.28,.67,.62,.86,1.04s.28,.85,.28,1.29v.56Zm-1.4-1.08c-.07-.31-.2-.56-.39-.76s-.46-.3-.8-.3c-.29,0-.55,.09-.76,.27-.21,.18-.36,.44-.45,.79h2.4Z"/>
  </g>
  <g>
    <path d="M182.19,555.23h1.51l2.83,5.08v-5.08h1.43v7.7h-1.51l-2.83-5.08v5.08h-1.43v-7.7Z"/>
    <path d="M190.6,562.64c-.42-.25-.75-.59-.97-1.02s-.33-.92-.33-1.46,.11-1.03,.33-1.46,.55-.77,.97-1.02c.43-.25,.93-.37,1.51-.37s1.08,.12,1.51,.37c.42,.25,.75,.59,.97,1.02s.34,.92,.34,1.46-.11,1.03-.34,1.46-.55,.77-.97,1.02c-.43,.25-.93,.37-1.51,.37s-1.08-.12-1.51-.37Zm2.52-1.28c.25-.33,.37-.73,.37-1.2s-.12-.88-.37-1.21c-.25-.33-.59-.49-1.01-.49s-.76,.16-1.01,.49c-.25,.33-.37,.73-.37,1.21s.12,.88,.37,1.2,.59,.49,1.01,.49,.76-.16,1.01-.49Z"/>
    <path d="M196.48,562.24c-.42-.52-.63-1.21-.63-2.08s.21-1.57,.63-2.08c.42-.52,1.02-.78,1.79-.78,.32,0,.6,.06,.86,.17,.26,.11,.46,.25,.59,.42v-2.75h1.36v7.79h-1.36v-.57c-.09,.17-.26,.32-.52,.46-.26,.14-.57,.2-.93,.2-.77,0-1.37-.26-1.79-.78Zm3-.84c.24-.3,.36-.71,.36-1.25s-.12-.95-.36-1.25c-.24-.3-.54-.45-.92-.45s-.68,.15-.92,.45-.36,.71-.36,1.25,.12,.94,.36,1.24,.55,.45,.92,.45,.68-.15,.92-.45Z"/>
    <path d="M207.56,560.59h-3.83c.06,.41,.2,.72,.43,.94,.23,.21,.53,.32,.89,.32,.31,0,.57-.07,.78-.21,.21-.14,.4-.36,.57-.65l1.1,.41c-.23,.52-.54,.92-.95,1.2-.41,.28-.93,.42-1.57,.42-.6,0-1.1-.14-1.5-.42-.4-.28-.69-.64-.88-1.08-.19-.44-.28-.89-.28-1.36s.09-.92,.28-1.36c.19-.44,.48-.8,.88-1.08,.4-.28,.9-.42,1.5-.42s1.06,.14,1.45,.41c.39,.28,.67,.62,.86,1.04,.18,.42,.27,.85,.27,1.29v.56Zm-1.4-1.08c-.07-.31-.2-.56-.39-.76s-.46-.3-.8-.3c-.29,0-.55,.09-.76,.27s-.36,.44-.45,.79h2.4Z"/>
  </g>
  <g>
    <path d="M519.78,256.06c.79,0,1.38,.21,1.79,.64,.41,.43,.62,1,.62,1.7s-.21,1.27-.62,1.7-1.01,.64-1.79,.64h-1.47v3.01h-1.43v-7.7h2.9Zm.69,3.11c.18-.17,.26-.42,.26-.77s-.09-.6-.26-.77c-.18-.17-.43-.25-.75-.25h-1.42v2.05h1.42c.32,0,.57-.08,.75-.25Z"/>
    <path d="M523.23,263.41c-.32-.29-.47-.71-.47-1.24s.21-.99,.63-1.32,.98-.5,1.69-.5h.97v-.24c0-.27-.09-.48-.27-.61-.18-.13-.42-.2-.69-.2-.48,0-.8,.21-.96,.64l-1.16-.26c.09-.46,.33-.83,.71-1.12s.85-.42,1.4-.42c.74,0,1.31,.2,1.72,.59s.61,.97,.61,1.73v3.31h-1.12l-.14-.7c-.43,.53-1,.79-1.71,.79-.49,0-.89-.15-1.21-.44Zm2.44-1.04c.25-.21,.37-.49,.37-.83v-.11h-.91c-.3,0-.53,.06-.7,.18-.17,.12-.25,.3-.25,.54,0,.16,.06,.29,.17,.39,.11,.1,.26,.15,.45,.15,.33,0,.62-.1,.87-.31Z"/>
    <path d="M530.16,258.22v.9c.2-.32,.44-.56,.73-.73,.29-.17,.59-.26,.91-.26,.21,0,.43,.04,.67,.11l-.25,1.26c-.17-.1-.36-.15-.57-.15-.43,0-.79,.2-1.07,.59s-.42,1.01-.42,1.85v1.97h-1.36v-5.54h1.36Z"/>
    <path d="M534.43,263.33c-.36-.34-.54-.85-.54-1.53v-2.42h-.86v-1.17h.86v-1.39l1.36-.86v2.24h1.46v1.17h-1.46v2.4c0,.33,.06,.56,.18,.7s.3,.2,.54,.2c.18,0,.36-.04,.53-.13l.32,1.1c-.29,.13-.59,.2-.9,.2-.64,0-1.14-.17-1.5-.52Z"/>
    <path d="M537.83,257.25c-.17-.17-.25-.38-.25-.63s.08-.46,.25-.63,.38-.25,.63-.25,.46,.08,.63,.25,.25,.38,.25,.63-.08,.46-.25,.63-.38,.25-.63,.25-.46-.08-.63-.25Zm-.05,.97h1.36v5.54h-1.36v-5.54Z"/>
    <path d="M541.41,263.33c-.36-.34-.54-.85-.54-1.53v-2.42h-.86v-1.17h.86v-1.39l1.36-.86v2.24h1.46v1.17h-1.46v2.4c0,.33,.06,.56,.18,.7s.3,.2,.54,.2c.18,0,.36-.04,.53-.13l.32,1.1c-.29,.13-.59,.2-.9,.2-.64,0-1.14-.17-1.5-.52Z"/>
    <path d="M544.81,257.25c-.17-.17-.25-.38-.25-.63s.08-.46,.25-.63,.38-.25,.63-.25,.46,.08,.63,.25,.25,.38,.25,.63-.08,.46-.25,.63-.38,.25-.63,.25-.46-.08-.63-.25Zm-.05,.97h1.36v5.54h-1.36v-5.54Z"/>
    <path d="M548.64,263.48c-.42-.25-.75-.59-.97-1.02s-.33-.92-.33-1.46,.11-1.03,.33-1.46,.55-.77,.97-1.02c.43-.25,.93-.37,1.51-.37s1.08,.12,1.51,.37c.42,.25,.75,.59,.97,1.02s.34,.92,.34,1.46-.11,1.03-.34,1.46-.55,.77-.97,1.02c-.43,.25-.93,.37-1.51,.37s-1.08-.12-1.51-.37Zm2.52-1.28c.25-.33,.37-.73,.37-1.2s-.12-.88-.37-1.21c-.25-.33-.59-.49-1.01-.49s-.76,.16-1.01,.49c-.25,.33-.37,.73-.37,1.21s.12,.88,.37,1.2,.59,.49,1.01,.49,.76-.16,1.01-.49Z"/>
    <path d="M555.55,258.22v.89c.21-.3,.47-.54,.76-.72,.29-.18,.61-.26,.96-.26,.51,0,.93,.14,1.24,.43,.31,.29,.47,.7,.47,1.24v3.96h-1.36v-3.55c0-.32-.07-.55-.21-.69-.14-.15-.34-.22-.58-.22-.23,0-.44,.09-.63,.26-.19,.18-.34,.43-.46,.78-.12,.34-.18,.75-.18,1.21v2.21h-1.36v-5.54h1.36Z"/>
  </g>
  <g>
    <g>
      <rect class="cls-14" x="541.97" y="368.11" width="58.16" height="41.32"/>
      <path class="cls-3" d="M600.64,409.92h-59.17v-42.32h59.17v42.32Zm-58.17-1h57.17v-40.32h-57.17v40.32Z"/>
      <g class="cls-20">
        <g>
          <rect class="cls-14" x="541.97" y="368" width="58.16" height="41.53"/>
          <path class="cls-3" d="M600.64,410.03h-59.17v-42.53h59.17v42.53Zm-58.17-1h57.17v-40.53h-57.17v40.53Z"/>
        </g>
      </g>
    </g>
    <g>
      <rect class="cls-14" x="541.97" y="368.11" width="58.16" height="41.32"/>
      <path class="cls-3" d="M600.64,409.92h-59.17v-42.32h59.17v42.32Zm-58.17-1h57.17v-40.32h-57.17v40.32Z"/>
    </g>
    <g>
      <rect class="cls-15" x="546.18" y="372.2" width="49.74" height="33.12"/>
      <path class="cls-3" d="M596.42,405.83h-50.74v-34.12h50.74v34.12Zm-49.74-1h48.74v-32.12h-48.74v32.12Z"/>
    </g>
  </g>
  <g>
    <path d="M559.9,392.19c-.55-.3-1-.75-1.33-1.35s-.5-1.31-.5-2.13,.17-1.54,.5-2.13c.33-.59,.77-1.04,1.33-1.35,.55-.3,1.16-.46,1.82-.46,.84,0,1.53,.2,2.08,.61s.92,.98,1.11,1.72l-1.29,.33c-.16-.42-.39-.75-.69-.99-.3-.23-.7-.35-1.21-.35-.41,0-.78,.1-1.11,.29s-.59,.49-.79,.88c-.19,.39-.29,.88-.29,1.45s.1,1.05,.29,1.45,.46,.69,.79,.88,.7,.29,1.11,.29c.51,0,.91-.12,1.21-.35,.3-.23,.53-.56,.69-.99l1.29,.33c-.18,.74-.55,1.31-1.11,1.72s-1.25,.61-2.08,.61c-.66,0-1.27-.15-1.82-.46Z"/>
    <path d="M567.14,392.28c-.43-.25-.75-.59-.97-1.02-.22-.43-.34-.92-.34-1.46s.11-1.03,.34-1.46c.22-.43,.55-.77,.97-1.02,.42-.25,.93-.37,1.51-.37s1.08,.12,1.51,.37c.42,.25,.75,.59,.97,1.02,.22,.43,.33,.92,.33,1.46s-.11,1.03-.33,1.46-.55,.77-.97,1.02c-.43,.25-.93,.37-1.51,.37s-1.08-.12-1.51-.37Zm2.52-1.28c.25-.33,.37-.73,.37-1.21s-.12-.88-.37-1.2-.59-.49-1.01-.49-.76,.16-1.01,.49c-.25,.33-.37,.73-.37,1.2s.12,.88,.37,1.21c.25,.33,.59,.49,1.01,.49s.76-.16,1.01-.49Z"/>
    <path d="M574.06,387.02v.57c.09-.16,.25-.31,.5-.45,.25-.14,.53-.21,.84-.21,.81,0,1.44,.26,1.88,.78s.65,1.21,.65,2.08-.22,1.57-.65,2.08-1.06,.78-1.88,.78c-.27,0-.53-.06-.78-.18-.25-.12-.44-.26-.56-.42v2.75h-1.36v-7.79h1.36Zm2.08,4.01c.24-.3,.36-.71,.36-1.24s-.12-.95-.36-1.25-.55-.45-.92-.45-.68,.15-.92,.45-.36,.71-.36,1.25,.12,.95,.36,1.25,.54,.45,.92,.45,.68-.15,.92-.45Z"/>
    <path d="M582.22,387.02h1.36l-2.86,7.79h-1.32l.95-2.62-2-5.17h1.38l1.26,3.41,1.23-3.41Z"/>
  </g>
  <g>
    <g>
      <rect class="cls-14" x="476.47" y="368.11" width="58.16" height="41.32"/>
      <path class="cls-3" d="M535.13,409.92h-59.17v-42.32h59.17v42.32Zm-58.17-1h57.17v-40.32h-57.17v40.32Z"/>
      <g class="cls-22">
        <g>
          <rect class="cls-14" x="476.47" y="368" width="58.16" height="41.53"/>
          <path class="cls-3" d="M535.13,410.03h-59.17v-42.53h59.17v42.53Zm-58.17-1h57.17v-40.53h-57.17v40.53Z"/>
        </g>
      </g>
    </g>
    <g>
      <rect class="cls-14" x="476.47" y="368.11" width="58.16" height="41.32"/>
      <path class="cls-3" d="M535.13,409.92h-59.17v-42.32h59.17v42.32Zm-58.17-1h57.17v-40.32h-57.17v40.32Z"/>
    </g>
    <g>
      <rect class="cls-15" x="480.68" y="372.2" width="49.74" height="33.12"/>
      <path class="cls-3" d="M530.92,405.83h-50.74v-34.12h50.74v34.12Zm-49.74-1h48.74v-32.12h-48.74v32.12Z"/>
    </g>
  </g>
  <g>
    <path d="M488.52,392.21c-.55-.29-.99-.74-1.31-1.33-.33-.59-.49-1.31-.49-2.17s.16-1.58,.49-2.17c.33-.59,.76-1.03,1.31-1.33,.55-.29,1.16-.44,1.83-.44s1.28,.15,1.83,.44c.55,.29,.99,.74,1.31,1.33,.33,.59,.49,1.31,.49,2.17s-.16,1.58-.49,2.17c-.33,.59-.77,1.03-1.31,1.33-.55,.29-1.16,.44-1.83,.44s-1.28-.15-1.83-.44Zm2.92-1.16c.33-.19,.59-.48,.79-.87,.2-.39,.3-.88,.3-1.47s-.1-1.08-.3-1.47-.46-.68-.79-.87-.69-.28-1.09-.28-.77,.09-1.1,.28c-.33,.19-.59,.48-.79,.87-.2,.39-.3,.88-.3,1.47s.1,1.08,.3,1.47c.2,.39,.46,.68,.79,.87,.33,.19,.69,.28,1.1,.28s.77-.09,1.09-.28Z"/>
    <path d="M496.62,387.02v.9c.2-.32,.44-.56,.73-.73,.29-.17,.59-.26,.91-.26,.21,0,.43,.04,.67,.11l-.25,1.27c-.17-.1-.36-.15-.57-.15-.43,0-.79,.2-1.07,.59-.28,.39-.42,1.01-.42,1.85v1.97h-1.36v-5.54h1.36Z"/>
    <path d="M499.89,386.05c-.17-.17-.25-.38-.25-.63s.08-.46,.25-.63c.17-.17,.38-.25,.63-.25s.46,.08,.63,.25c.17,.17,.25,.38,.25,.63s-.08,.46-.25,.63c-.17,.17-.38,.25-.63,.25s-.46-.08-.63-.25Zm-.06,.97h1.37v5.54h-1.37v-5.54Z"/>
    <path d="M503.01,394.42c-.47-.32-.7-.77-.7-1.35,0-.46,.15-.82,.45-1.1-.19-.23-.29-.51-.29-.86,0-.26,.06-.48,.18-.68s.29-.36,.5-.48c-.26-.32-.38-.7-.38-1.14,0-.37,.09-.7,.27-.98s.43-.5,.74-.66c.31-.15,.65-.23,1.03-.23s.7,.08,1.02,.24l1.04-.55,.54,.9-.79,.4c.15,.26,.22,.55,.22,.88,0,.37-.09,.7-.27,.98s-.43,.5-.74,.64c-.31,.15-.65,.22-1.03,.22-.28,0-.55-.04-.8-.12-.18,.1-.26,.24-.26,.42,0,.13,.04,.23,.13,.3s.22,.1,.38,.1h1.13c.59,0,1.07,.14,1.42,.42s.53,.68,.53,1.2c0,.43-.12,.79-.36,1.08s-.55,.5-.93,.63c-.38,.13-.79,.2-1.23,.2-.74,0-1.34-.16-1.81-.47Zm2.65-.84c.21-.11,.31-.28,.31-.52,0-.21-.08-.36-.23-.45-.15-.08-.38-.13-.66-.13h-.75c-.25,0-.46-.01-.64-.04-.08,.12-.12,.29-.12,.51,0,.26,.11,.45,.34,.59,.23,.14,.53,.2,.9,.2,.35,0,.63-.06,.84-.17Zm-.31-4.25c.14-.14,.21-.32,.21-.54s-.07-.41-.21-.56c-.14-.14-.33-.21-.54-.21s-.4,.07-.54,.21c-.14,.14-.21,.33-.21,.56s.07,.4,.21,.54c.14,.14,.32,.21,.54,.21s.4-.07,.54-.21Z"/>
    <path d="M508.4,386.05c-.17-.17-.25-.38-.25-.63s.08-.46,.25-.63c.17-.17,.38-.25,.63-.25s.46,.08,.63,.25c.17,.17,.25,.38,.25,.63s-.08,.46-.25,.63c-.17,.17-.38,.25-.63,.25s-.46-.08-.63-.25Zm-.06,.97h1.37v5.54h-1.37v-5.54Z"/>
    <path d="M512.56,387.02v.89c.21-.3,.47-.54,.76-.71s.61-.26,.96-.26c.51,0,.93,.14,1.24,.43,.31,.29,.47,.7,.47,1.24v3.96h-1.36v-3.55c0-.32-.07-.55-.21-.69s-.34-.22-.58-.22c-.23,0-.44,.09-.63,.26s-.35,.43-.46,.78-.18,.75-.18,1.22v2.21h-1.36v-5.54h1.36Z"/>
    <path d="M517.54,392.21c-.31-.29-.47-.71-.47-1.24s.21-.99,.63-1.32,.98-.5,1.69-.5h.97v-.24c0-.27-.09-.47-.28-.61s-.41-.2-.69-.2c-.48,0-.79,.21-.96,.64l-1.15-.26c.09-.46,.32-.83,.71-1.12,.38-.28,.85-.42,1.4-.42,.74,0,1.31,.2,1.72,.59,.41,.39,.61,.97,.61,1.73v3.31h-1.12l-.14-.7c-.43,.53-1,.79-1.71,.79-.49,0-.89-.15-1.21-.44Zm2.44-1.04c.25-.21,.37-.49,.37-.83v-.11h-.91c-.3,0-.54,.06-.7,.18-.17,.12-.25,.3-.25,.54,0,.16,.06,.29,.17,.39,.11,.1,.26,.15,.45,.15,.33,0,.62-.1,.87-.31Z"/>
    <path d="M523.15,384.77h1.37v7.79h-1.37v-7.79Z"/>
  </g>
  <g>
    <g>
      <rect class="cls-14" x="105.73" y="368.11" width="58.16" height="41.32"/>
      <path class="cls-3" d="M164.4,409.92h-59.17v-42.32h59.17v42.32Zm-58.17-1h57.17v-40.32h-57.17v40.32Z"/>
      <g class="cls-21">
        <g>
          <rect class="cls-14" x="105.73" y="368" width="58.16" height="41.53"/>
          <path class="cls-3" d="M164.4,410.03h-59.17v-42.53h59.17v42.53Zm-58.17-1h57.17v-40.53h-57.17v40.53Z"/>
        </g>
      </g>
    </g>
    <g>
      <rect class="cls-14" x="105.73" y="368.11" width="58.16" height="41.32"/>
      <path class="cls-3" d="M164.4,409.92h-59.17v-42.32h59.17v42.32Zm-58.17-1h57.17v-40.32h-57.17v40.32Z"/>
    </g>
    <g>
      <rect class="cls-15" x="109.94" y="372.2" width="49.74" height="33.12"/>
      <path class="cls-3" d="M160.18,405.83h-50.74v-34.12h50.74v34.12Zm-49.74-1h48.74v-32.12h-48.74v32.12Z"/>
    </g>
  </g>
  <g>
    <path d="M123.66,392.19c-.55-.3-1-.75-1.33-1.35s-.5-1.31-.5-2.13,.17-1.54,.5-2.13c.33-.59,.77-1.04,1.33-1.35,.55-.3,1.16-.46,1.82-.46,.84,0,1.53,.2,2.08,.61s.92,.98,1.11,1.72l-1.29,.33c-.16-.42-.39-.75-.69-.99-.3-.23-.7-.35-1.21-.35-.41,0-.78,.1-1.11,.29s-.59,.49-.79,.88c-.19,.39-.29,.88-.29,1.45s.1,1.05,.29,1.45,.46,.69,.79,.88,.7,.29,1.11,.29c.51,0,.91-.12,1.21-.35,.3-.23,.53-.56,.69-.99l1.29,.33c-.18,.74-.55,1.31-1.11,1.72s-1.25,.61-2.08,.61c-.66,0-1.27-.15-1.82-.46Z"/>
    <path d="M130.9,392.28c-.43-.25-.75-.59-.97-1.02-.22-.43-.34-.92-.34-1.46s.11-1.03,.34-1.46c.22-.43,.55-.77,.97-1.02,.42-.25,.93-.37,1.51-.37s1.08,.12,1.51,.37c.42,.25,.75,.59,.97,1.02,.22,.43,.33,.92,.33,1.46s-.11,1.03-.33,1.46-.55,.77-.97,1.02c-.43,.25-.93,.37-1.51,.37s-1.08-.12-1.51-.37Zm2.52-1.28c.25-.33,.37-.73,.37-1.21s-.12-.88-.37-1.2-.59-.49-1.01-.49-.76,.16-1.01,.49c-.25,.33-.37,.73-.37,1.2s.12,.88,.37,1.21c.25,.33,.59,.49,1.01,.49s.76-.16,1.01-.49Z"/>
    <path d="M137.82,387.02v.57c.09-.16,.25-.31,.5-.45,.25-.14,.53-.21,.84-.21,.81,0,1.44,.26,1.88,.78s.65,1.21,.65,2.08-.22,1.57-.65,2.08-1.06,.78-1.88,.78c-.27,0-.53-.06-.78-.18-.25-.12-.44-.26-.56-.42v2.75h-1.36v-7.79h1.36Zm2.08,4.01c.24-.3,.36-.71,.36-1.24s-.12-.95-.36-1.25-.55-.45-.92-.45-.68,.15-.92,.45-.36,.71-.36,1.25,.12,.95,.36,1.25,.54,.45,.92,.45,.68-.15,.92-.45Z"/>
    <path d="M145.97,387.02h1.36l-2.86,7.79h-1.32l.95-2.62-2-5.17h1.38l1.26,3.41,1.23-3.41Z"/>
  </g>
  <g>
    <g>
      <rect class="cls-14" x="40.23" y="368.11" width="58.16" height="41.32"/>
      <path class="cls-3" d="M98.89,409.92H39.72v-42.32h59.17v42.32Zm-58.17-1h57.17v-40.32H40.72v40.32Z"/>
      <g class="cls-23">
        <g>
          <rect class="cls-14" x="40.23" y="368" width="58.16" height="41.53"/>
          <path class="cls-3" d="M98.89,410.03H39.72v-42.53h59.17v42.53Zm-58.17-1h57.17v-40.53H40.72v40.53Z"/>
        </g>
      </g>
    </g>
    <g>
      <rect class="cls-14" x="40.23" y="368.11" width="58.16" height="41.32"/>
      <path class="cls-3" d="M98.89,409.92H39.72v-42.32h59.17v42.32Zm-58.17-1h57.17v-40.32H40.72v40.32Z"/>
    </g>
    <g>
      <rect class="cls-15" x="44.44" y="372.2" width="49.74" height="33.12"/>
      <path class="cls-3" d="M94.68,405.83H43.94v-34.12h50.74v34.12Zm-49.74-1h48.74v-32.12H44.94v32.12Z"/>
    </g>
  </g>
  <g>
    <path d="M52.28,392.21c-.55-.29-.99-.74-1.31-1.33-.33-.59-.49-1.31-.49-2.17s.16-1.58,.49-2.17c.33-.59,.76-1.03,1.31-1.33,.55-.29,1.16-.44,1.83-.44s1.28,.15,1.83,.44c.55,.29,.99,.74,1.31,1.33,.33,.59,.49,1.31,.49,2.17s-.16,1.58-.49,2.17c-.33,.59-.76,1.03-1.31,1.33-.55,.29-1.16,.44-1.83,.44s-1.28-.15-1.83-.44Zm2.92-1.16c.33-.19,.59-.48,.79-.87,.2-.39,.3-.88,.3-1.47s-.1-1.08-.3-1.47c-.2-.39-.46-.68-.79-.87s-.69-.28-1.09-.28-.77,.09-1.09,.28c-.33,.19-.59,.48-.79,.87s-.3,.88-.3,1.47,.1,1.08,.3,1.47c.2,.39,.46,.68,.79,.87,.33,.19,.69,.28,1.09,.28s.77-.09,1.09-.28Z"/>
    <path d="M60.38,387.02v.9c.2-.32,.44-.56,.73-.73,.29-.17,.59-.26,.91-.26,.21,0,.43,.04,.67,.11l-.25,1.27c-.17-.1-.36-.15-.57-.15-.43,0-.79,.2-1.07,.59-.28,.39-.42,1.01-.42,1.85v1.97h-1.36v-5.54h1.36Z"/>
    <path d="M63.65,386.05c-.17-.17-.25-.38-.25-.63s.08-.46,.25-.63c.17-.17,.38-.25,.63-.25s.46,.08,.63,.25c.17,.17,.25,.38,.25,.63s-.08,.46-.25,.63-.38,.25-.63,.25-.46-.08-.63-.25Zm-.06,.97h1.36v5.54h-1.36v-5.54Z"/>
    <path d="M66.77,394.42c-.47-.32-.7-.77-.7-1.35,0-.46,.15-.82,.45-1.1-.19-.23-.29-.51-.29-.86,0-.26,.06-.48,.18-.68s.29-.36,.5-.48c-.26-.32-.39-.7-.39-1.14,0-.37,.09-.7,.27-.98s.43-.5,.74-.66c.31-.15,.65-.23,1.03-.23s.7,.08,1.02,.24l1.04-.55,.54,.9-.79,.4c.15,.26,.22,.55,.22,.88,0,.37-.09,.7-.27,.98s-.43,.5-.74,.64-.65,.22-1.03,.22c-.28,0-.55-.04-.8-.12-.18,.1-.26,.24-.26,.42,0,.13,.04,.23,.13,.3s.22,.1,.38,.1h1.13c.59,0,1.07,.14,1.42,.42,.35,.28,.53,.68,.53,1.2,0,.43-.12,.79-.36,1.08s-.55,.5-.93,.63c-.38,.13-.79,.2-1.23,.2-.74,0-1.34-.16-1.81-.47Zm2.65-.84c.21-.11,.31-.28,.31-.52,0-.21-.08-.36-.23-.45-.15-.08-.37-.13-.66-.13h-.75c-.25,0-.46-.01-.64-.04-.08,.12-.12,.29-.12,.51,0,.26,.11,.45,.34,.59,.23,.14,.53,.2,.9,.2,.35,0,.63-.06,.84-.17Zm-.31-4.25c.14-.14,.21-.32,.21-.54s-.07-.41-.21-.56-.33-.21-.54-.21-.4,.07-.54,.21c-.14,.14-.21,.33-.21,.56s.07,.4,.21,.54c.14,.14,.32,.21,.54,.21s.4-.07,.54-.21Z"/>
    <path d="M72.16,386.05c-.17-.17-.25-.38-.25-.63s.08-.46,.25-.63c.17-.17,.38-.25,.63-.25s.46,.08,.63,.25c.17,.17,.25,.38,.25,.63s-.08,.46-.25,.63-.38,.25-.63,.25-.46-.08-.63-.25Zm-.06,.97h1.36v5.54h-1.36v-5.54Z"/>
    <path d="M76.32,387.02v.89c.21-.3,.47-.54,.76-.71,.29-.18,.61-.26,.96-.26,.51,0,.93,.14,1.24,.43,.31,.29,.47,.7,.47,1.24v3.96h-1.36v-3.55c0-.32-.07-.55-.21-.69s-.34-.22-.58-.22c-.23,0-.44,.09-.63,.26-.19,.18-.35,.43-.46,.78s-.18,.75-.18,1.22v2.21h-1.36v-5.54h1.36Z"/>
    <path d="M81.3,392.21c-.32-.29-.47-.71-.47-1.24s.21-.99,.63-1.32,.98-.5,1.69-.5h.97v-.24c0-.27-.09-.47-.28-.61s-.41-.2-.69-.2c-.48,0-.8,.21-.96,.64l-1.15-.26c.09-.46,.32-.83,.71-1.12,.38-.28,.85-.42,1.4-.42,.74,0,1.31,.2,1.72,.59,.41,.39,.61,.97,.61,1.73v3.31h-1.12l-.14-.7c-.43,.53-1,.79-1.71,.79-.49,0-.89-.15-1.21-.44Zm2.44-1.04c.25-.21,.37-.49,.37-.83v-.11h-.91c-.3,0-.53,.06-.7,.18s-.25,.3-.25,.54c0,.16,.06,.29,.17,.39,.11,.1,.26,.15,.45,.15,.33,0,.62-.1,.87-.31Z"/>
    <path d="M86.91,384.77h1.36v7.79h-1.36v-7.79Z"/>
  </g>
  <g>
    <g>
      <rect class="cls-14" x="66.84" y="234.05" width="70.95" height="50.4"/>
      <path class="cls-3" d="M138.29,284.95H66.34v-51.4h71.95v51.4Zm-70.95-1h69.95v-49.4H67.34v49.4Z"/>
      <g class="cls-29">
        <g>
          <rect class="cls-14" x="66.84" y="233.92" width="70.95" height="50.66"/>
          <path class="cls-3" d="M138.29,285.08H66.34v-51.66h71.95v51.66Zm-70.95-1h69.95v-49.66H67.34v49.66Z"/>
        </g>
      </g>
    </g>
    <g>
      <rect class="cls-14" x="66.84" y="234.05" width="70.95" height="50.4"/>
      <path class="cls-3" d="M138.29,284.95H66.34v-51.4h71.95v51.4Zm-70.95-1h69.95v-49.4H67.34v49.4Z"/>
    </g>
    <g>
      <rect class="cls-15" x="71.98" y="239.05" width="60.68" height="40.41"/>
      <path class="cls-3" d="M133.16,279.96h-61.68v-41.41h61.68v41.41Zm-60.68-1h59.68v-39.41h-59.68v39.41Z"/>
    </g>
  </g>
  <g>
    <path d="M84.39,256.06c.79,0,1.38,.21,1.79,.64,.41,.43,.62,1,.62,1.7s-.21,1.27-.62,1.7c-.41,.43-1.01,.64-1.79,.64h-1.47v3.01h-1.43v-7.7h2.9Zm.69,3.11c.18-.17,.26-.42,.26-.77s-.09-.6-.26-.77c-.18-.17-.43-.25-.75-.25h-1.42v2.05h1.42c.32,0,.57-.08,.75-.25Z"/>
    <path d="M87.84,263.41c-.32-.29-.47-.71-.47-1.24s.21-.99,.63-1.32,.98-.5,1.69-.5h.97v-.24c0-.27-.09-.48-.28-.61-.18-.13-.41-.2-.69-.2-.48,0-.79,.21-.96,.64l-1.15-.26c.09-.46,.32-.83,.71-1.12s.85-.42,1.4-.42c.74,0,1.31,.2,1.72,.59s.61,.97,.61,1.73v3.31h-1.12l-.14-.7c-.43,.53-1,.79-1.71,.79-.49,0-.89-.15-1.21-.44Zm2.44-1.04c.25-.21,.38-.49,.38-.83v-.11h-.91c-.3,0-.53,.06-.7,.18-.17,.12-.25,.3-.25,.54,0,.16,.06,.29,.17,.39,.11,.1,.26,.15,.45,.15,.33,0,.62-.1,.87-.31Z"/>
    <path d="M94.77,258.22v.9c.2-.32,.44-.56,.73-.73,.29-.17,.59-.26,.91-.26,.21,0,.43,.04,.67,.11l-.25,1.26c-.17-.1-.36-.15-.57-.15-.43,0-.79,.2-1.07,.59-.28,.39-.42,1.01-.42,1.85v1.97h-1.36v-5.54h1.36Z"/>
    <path d="M99.05,263.33c-.36-.34-.54-.85-.54-1.53v-2.42h-.86v-1.17h.86v-1.39l1.36-.86v2.24h1.46v1.17h-1.46v2.4c0,.33,.06,.56,.18,.7s.3,.2,.54,.2c.18,0,.36-.04,.53-.13l.32,1.1c-.29,.13-.59,.2-.9,.2-.64,0-1.14-.17-1.5-.52Z"/>
    <path d="M102.45,257.25c-.17-.17-.25-.38-.25-.63s.08-.46,.25-.63c.17-.17,.38-.25,.63-.25s.46,.08,.63,.25c.17,.17,.25,.38,.25,.63s-.08,.46-.25,.63c-.17,.17-.38,.25-.63,.25s-.46-.08-.63-.25Zm-.05,.97h1.36v5.54h-1.36v-5.54Z"/>
    <path d="M106.02,263.33c-.36-.34-.54-.85-.54-1.53v-2.42h-.86v-1.17h.86v-1.39l1.36-.86v2.24h1.46v1.17h-1.46v2.4c0,.33,.06,.56,.18,.7s.3,.2,.54,.2c.18,0,.36-.04,.53-.13l.32,1.1c-.29,.13-.59,.2-.9,.2-.64,0-1.14-.17-1.5-.52Z"/>
    <path d="M109.42,257.25c-.17-.17-.25-.38-.25-.63s.08-.46,.25-.63c.17-.17,.38-.25,.63-.25s.46,.08,.63,.25c.17,.17,.25,.38,.25,.63s-.08,.46-.25,.63c-.17,.17-.38,.25-.63,.25s-.46-.08-.63-.25Zm-.06,.97h1.36v5.54h-1.36v-5.54Z"/>
    <path d="M113.25,263.48c-.43-.25-.75-.59-.97-1.02-.22-.43-.33-.92-.33-1.46s.11-1.03,.33-1.46c.22-.43,.55-.77,.97-1.02,.42-.25,.93-.37,1.51-.37s1.08,.12,1.51,.37,.75,.59,.97,1.02c.22,.43,.34,.92,.34,1.46s-.11,1.03-.34,1.46c-.22,.43-.55,.77-.97,1.02-.43,.25-.93,.37-1.51,.37s-1.08-.12-1.51-.37Zm2.52-1.28c.25-.33,.37-.73,.37-1.2s-.12-.88-.37-1.21c-.25-.33-.59-.49-1.01-.49s-.76,.16-1.01,.49c-.25,.33-.37,.73-.37,1.21s.12,.88,.37,1.2c.25,.33,.59,.49,1.01,.49s.76-.16,1.01-.49Z"/>
    <path d="M120.17,258.22v.89c.21-.3,.47-.54,.76-.72,.29-.18,.61-.26,.96-.26,.51,0,.93,.14,1.24,.43,.31,.29,.47,.7,.47,1.24v3.96h-1.37v-3.55c0-.32-.07-.55-.21-.69-.14-.15-.33-.22-.58-.22-.23,0-.44,.09-.63,.26-.19,.18-.35,.43-.46,.78-.12,.34-.18,.75-.18,1.21v2.21h-1.36v-5.54h1.36Z"/>
  </g>
  <g>
    <g>
      <path class="cls-17" d="M394.62,192.97v33.91"/>
      <rect class="cls-15" x="394.12" y="192.97" width="1" height="33.91"/>
    </g>
    <path class="cls-15" d="M394.61,227.52c-.13,0-.26-.05-.35-.15l-10.5-10.5c-.2-.2-.2-.51,0-.71s.51-.2,.71,0l10.15,10.15,10.15-10.15c.2-.2,.51-.2,.71,0s.2,.51,0,.71l-10.5,10.5c-.1,.1-.23,.15-.35,.15Z"/>
  </g>
  <g>
    <g>
      <path class="cls-17" d="M244.32,192.97v33.91"/>
      <rect class="cls-15" x="243.82" y="192.97" width="1" height="33.91"/>
    </g>
    <path class="cls-15" d="M244.31,227.52c-.13,0-.26-.05-.35-.15l-10.5-10.5c-.2-.2-.2-.51,0-.71s.51-.2,.71,0l10.15,10.15,10.15-10.15c.2-.2,.51-.2,.71,0s.2,.51,0,.71l-10.5,10.5c-.1,.1-.23,.15-.35,.15Z"/>
  </g>
  <g>
    <path class="cls-17" d="M394.42,275.19v52.74"/>
    <path class="cls-15" d="M394.42,328.43c-.28,0-.5-.22-.5-.5v-52.74c0-.28,.22-.5,.5-.5s.5,.22,.5,.5v52.74c0,.28-.22,.5-.5,.5Z"/>
  </g>
  <path class="cls-15" d="M362.77,362.73h0c-.28,0-.5-.22-.5-.5l.02-34.71h66.23v34.71c0,.28-.22,.5-.5,.5s-.5-.22-.5-.5v-33.71h-64.23l-.02,33.71c0,.28-.22,.5-.5,.5Z"/>
  <path class="cls-15" d="M428.08,362.89c-.13,0-.26-.05-.35-.15l-10.5-10.5c-.2-.2-.2-.51,0-.71s.51-.2,.71,0l10.15,10.15,10.15-10.15c.2-.2,.51-.2,.71,0s.2,.51,0,.71l-10.5,10.5c-.1,.1-.23,.15-.35,.15Z"/>
  <path class="cls-15" d="M362.77,362.89c-.13,0-.26-.05-.35-.15l-10.5-10.5c-.2-.2-.2-.51,0-.71s.51-.2,.71,0l10.15,10.15,10.15-10.15c.2-.2,.51-.2,.71,0s.2,.51,0,.71l-10.5,10.5c-.1,.1-.23,.15-.35,.15Z"/>
  <g>
    <path class="cls-17" d="M244.48,275.19v52.74"/>
    <path class="cls-15" d="M244.48,328.43c-.28,0-.5-.22-.5-.5v-52.74c0-.28,.22-.5,.5-.5s.5,.22,.5,.5v52.74c0,.28-.22,.5-.5,.5Z"/>
  </g>
  <path class="cls-15" d="M210.6,444.39c-.28,0-.5-.22-.5-.5v-34.67c0-.28,.22-.5,.5-.5s.5,.22,.5,.5v34.67c0,.28-.22,.5-.5,.5Z"/>
  <path class="cls-15" d="M277.91,444.39c-.28,0-.5-.22-.5-.5v-34.67c0-.28,.22-.5,.5-.5s.5,.22,.5,.5v34.67c0,.28-.22,.5-.5,.5Z"/>
  <path class="cls-15" d="M362.76,444.39c-.28,0-.5-.22-.5-.5v-34.67c0-.28,.22-.5,.5-.5s.5,.22,.5,.5v34.67c0,.28-.22,.5-.5,.5Z"/>
  <path class="cls-15" d="M427.94,444.39c-.28,0-.5-.22-.5-.5v-34.67c0-.28,.22-.5,.5-.5s.5,.22,.5,.5v34.67c0,.28-.22,.5-.5,.5Z"/>
  <path class="cls-15" d="M212.83,362.73h0c-.28,0-.5-.22-.5-.5l.02-34.71h66.23v34.71c0,.28-.22,.5-.5,.5s-.5-.22-.5-.5v-33.71h-64.23l-.02,33.71c0,.28-.22,.5-.5,.5Z"/>
  <path class="cls-15" d="M278.14,362.89c-.13,0-.26-.05-.35-.15l-10.5-10.5c-.2-.2-.2-.51,0-.71s.51-.2,.71,0l10.15,10.15,10.15-10.15c.2-.2,.51-.2,.71,0s.2,.51,0,.71l-10.5,10.5c-.1,.1-.23,.15-.35,.15Z"/>
  <path class="cls-15" d="M212.83,362.89c-.13,0-.26-.05-.35-.15l-10.5-10.5c-.2-.2-.2-.51,0-.71s.51-.2,.71,0l10.15,10.15,10.15-10.15c.2-.2,.51-.2,.71,0s.2,.51,0,.71l-10.5,10.5c-.1,.1-.23,.15-.35,.15Z"/>
  <g>
    <g>
      <rect class="cls-14" x="358.97" y="234.05" width="70.95" height="50.4"/>
      <path class="cls-3" d="M430.42,284.95h-71.96v-51.4h71.96v51.4Zm-70.96-1h69.96v-49.4h-69.96v49.4Z"/>
      <g class="cls-27">
        <g>
          <rect class="cls-14" x="358.97" y="233.92" width="70.95" height="50.66"/>
          <path class="cls-3" d="M430.42,285.08h-71.96v-51.66h71.96v51.66Zm-70.96-1h69.96v-49.66h-69.96v49.66Z"/>
        </g>
      </g>
    </g>
    <path class="cls-3" d="M430.42,284.95h-71.96v-51.4h71.96v51.4Zm-70.96-1h69.96v-49.4h-69.96v49.4Z"/>
    <g>
      <rect class="cls-15" x="364.11" y="239.05" width="60.68" height="40.41"/>
      <path class="cls-3" d="M425.28,279.96h-61.68v-41.41h61.68v41.41Zm-60.68-1h59.68v-39.41h-59.68v39.41Z"/>
    </g>
  </g>
  <g>
    <g class="cls-26">
      <rect class="cls-15" x="209.35" y="233.92" width="70.95" height="50.66"/>
    </g>
    <g>
      <rect class="cls-14" x="209.35" y="234.05" width="70.95" height="50.4"/>
      <path class="cls-3" d="M280.81,284.95h-71.96v-51.4h71.96v51.4Zm-70.96-1h69.96v-49.4h-69.96v49.4Z"/>
    </g>
    <g>
      <rect class="cls-15" x="214.49" y="239.05" width="60.68" height="40.41"/>
      <path class="cls-3" d="M275.67,279.96h-61.68v-41.41h61.68v41.41Zm-60.68-1h59.68v-39.41h-59.68v39.41Z"/>
    </g>
  </g>
  <g>
    <g>
      <rect class="cls-14" x="398.67" y="368.11" width="58.16" height="41.32"/>
      <path class="cls-3" d="M457.34,409.92h-59.17v-42.32h59.17v42.32Zm-58.17-1h57.17v-40.32h-57.17v40.32Z"/>
      <g class="cls-28">
        <g>
          <rect class="cls-14" x="398.67" y="368" width="58.16" height="41.53"/>
          <path class="cls-3" d="M457.34,410.03h-59.17v-42.53h59.17v42.53Zm-58.17-1h57.17v-40.53h-57.17v40.53Z"/>
        </g>
      </g>
    </g>
    <g>
      <rect class="cls-14" x="398.67" y="368.11" width="58.16" height="41.32"/>
      <path class="cls-3" d="M457.34,409.92h-59.17v-42.32h59.17v42.32Zm-58.17-1h57.17v-40.32h-57.17v40.32Z"/>
    </g>
    <g>
      <rect class="cls-15" x="402.88" y="372.2" width="49.74" height="33.12"/>
      <path class="cls-3" d="M453.12,405.83h-50.74v-34.12h50.74v34.12Zm-49.74-1h48.74v-32.12h-48.74v32.12Z"/>
    </g>
  </g>
  <g>
    <path d="M416.6,392.19c-.55-.3-1-.75-1.33-1.35s-.5-1.31-.5-2.13,.17-1.54,.5-2.13c.33-.59,.77-1.04,1.33-1.35,.55-.3,1.16-.46,1.82-.46,.84,0,1.53,.2,2.08,.61s.92,.98,1.11,1.72l-1.29,.33c-.16-.42-.39-.75-.69-.99-.3-.23-.7-.35-1.21-.35-.41,0-.78,.1-1.11,.29s-.59,.49-.79,.88c-.19,.39-.29,.88-.29,1.45s.1,1.05,.29,1.45,.46,.69,.79,.88,.7,.29,1.11,.29c.51,0,.91-.12,1.21-.35,.3-.23,.53-.56,.69-.99l1.29,.33c-.18,.74-.55,1.31-1.11,1.72s-1.25,.61-2.08,.61c-.66,0-1.27-.15-1.82-.46Z"/>
    <path d="M423.84,392.28c-.43-.25-.75-.59-.97-1.02-.22-.43-.34-.92-.34-1.46s.11-1.03,.34-1.46c.22-.43,.55-.77,.97-1.02,.42-.25,.93-.37,1.51-.37s1.08,.12,1.51,.37c.42,.25,.75,.59,.97,1.02,.22,.43,.33,.92,.33,1.46s-.11,1.03-.33,1.46-.55,.77-.97,1.02c-.43,.25-.93,.37-1.51,.37s-1.08-.12-1.51-.37Zm2.52-1.28c.25-.33,.37-.73,.37-1.21s-.12-.88-.37-1.2-.59-.49-1.01-.49-.76,.16-1.01,.49c-.25,.33-.37,.73-.37,1.2s.12,.88,.37,1.21c.25,.33,.59,.49,1.01,.49s.76-.16,1.01-.49Z"/>
    <path d="M430.76,387.02v.57c.09-.16,.25-.31,.5-.45,.25-.14,.53-.21,.84-.21,.81,0,1.44,.26,1.88,.78s.65,1.21,.65,2.08-.22,1.57-.65,2.08-1.06,.78-1.88,.78c-.27,0-.53-.06-.78-.18-.25-.12-.44-.26-.56-.42v2.75h-1.36v-7.79h1.36Zm2.08,4.01c.24-.3,.36-.71,.36-1.24s-.12-.95-.36-1.25-.55-.45-.92-.45-.68,.15-.92,.45-.36,.71-.36,1.25,.12,.95,.36,1.25,.54,.45,.92,.45,.68-.15,.92-.45Z"/>
    <path d="M438.91,387.02h1.36l-2.86,7.79h-1.32l.95-2.62-2-5.17h1.38l1.26,3.41,1.23-3.41Z"/>
  </g>
  <g>
    <g>
      <rect class="cls-14" x="333.16" y="368.11" width="58.16" height="41.32"/>
      <path class="cls-3" d="M391.83,409.92h-59.17v-42.32h59.17v42.32Zm-58.17-1h57.17v-40.32h-57.17v40.32Z"/>
      <g class="cls-30">
        <g>
          <rect class="cls-14" x="333.16" y="368" width="58.16" height="41.53"/>
          <path class="cls-3" d="M391.83,410.03h-59.17v-42.53h59.17v42.53Zm-58.17-1h57.17v-40.53h-57.17v40.53Z"/>
        </g>
      </g>
    </g>
    <g>
      <rect class="cls-14" x="333.16" y="368.11" width="58.16" height="41.32"/>
      <path class="cls-3" d="M391.83,409.92h-59.17v-42.32h59.17v42.32Zm-58.17-1h57.17v-40.32h-57.17v40.32Z"/>
    </g>
    <g>
      <rect class="cls-15" x="337.38" y="372.2" width="49.74" height="33.12"/>
      <path class="cls-3" d="M387.62,405.83h-50.74v-34.12h50.74v34.12Zm-49.74-1h48.74v-32.12h-48.74v32.12Z"/>
    </g>
  </g>
  <g>
    <path d="M345.22,392.21c-.55-.29-.99-.74-1.31-1.33-.33-.59-.49-1.31-.49-2.17s.16-1.58,.49-2.17c.33-.59,.76-1.03,1.31-1.33,.55-.29,1.16-.44,1.83-.44s1.28,.15,1.83,.44c.55,.29,.99,.74,1.31,1.33,.33,.59,.49,1.31,.49,2.17s-.16,1.58-.49,2.17c-.33,.59-.76,1.03-1.31,1.33-.55,.29-1.16,.44-1.83,.44s-1.28-.15-1.83-.44Zm2.92-1.16c.33-.19,.59-.48,.79-.87,.2-.39,.3-.88,.3-1.47s-.1-1.08-.3-1.47c-.2-.39-.46-.68-.79-.87s-.69-.28-1.09-.28-.77,.09-1.09,.28c-.33,.19-.59,.48-.79,.87s-.3,.88-.3,1.47,.1,1.08,.3,1.47c.2,.39,.46,.68,.79,.87,.33,.19,.69,.28,1.09,.28s.77-.09,1.09-.28Z"/>
    <path d="M353.32,387.02v.9c.2-.32,.44-.56,.73-.73,.29-.17,.59-.26,.91-.26,.21,0,.43,.04,.67,.11l-.25,1.27c-.17-.1-.36-.15-.57-.15-.43,0-.79,.2-1.07,.59-.28,.39-.42,1.01-.42,1.85v1.97h-1.36v-5.54h1.36Z"/>
    <path d="M356.59,386.05c-.17-.17-.25-.38-.25-.63s.08-.46,.25-.63c.17-.17,.38-.25,.63-.25s.46,.08,.63,.25c.17,.17,.25,.38,.25,.63s-.08,.46-.25,.63-.38,.25-.63,.25-.46-.08-.63-.25Zm-.06,.97h1.36v5.54h-1.36v-5.54Z"/>
    <path d="M359.71,394.42c-.47-.32-.7-.77-.7-1.35,0-.46,.15-.82,.45-1.1-.19-.23-.29-.51-.29-.86,0-.26,.06-.48,.18-.68s.29-.36,.5-.48c-.26-.32-.39-.7-.39-1.14,0-.37,.09-.7,.27-.98s.43-.5,.74-.66c.31-.15,.65-.23,1.03-.23s.7,.08,1.02,.24l1.04-.55,.54,.9-.79,.4c.15,.26,.22,.55,.22,.88,0,.37-.09,.7-.27,.98s-.43,.5-.74,.64-.65,.22-1.03,.22c-.28,0-.55-.04-.8-.12-.18,.1-.26,.24-.26,.42,0,.13,.04,.23,.13,.3s.22,.1,.38,.1h1.13c.59,0,1.07,.14,1.42,.42,.35,.28,.53,.68,.53,1.2,0,.43-.12,.79-.36,1.08s-.55,.5-.93,.63c-.38,.13-.79,.2-1.23,.2-.74,0-1.34-.16-1.81-.47Zm2.65-.84c.21-.11,.31-.28,.31-.52,0-.21-.08-.36-.23-.45-.15-.08-.37-.13-.66-.13h-.75c-.25,0-.46-.01-.64-.04-.08,.12-.12,.29-.12,.51,0,.26,.11,.45,.34,.59,.23,.14,.53,.2,.9,.2,.35,0,.63-.06,.84-.17Zm-.31-4.25c.14-.14,.21-.32,.21-.54s-.07-.41-.21-.56-.33-.21-.54-.21-.4,.07-.54,.21c-.14,.14-.21,.33-.21,.56s.07,.4,.21,.54c.14,.14,.32,.21,.54,.21s.4-.07,.54-.21Z"/>
    <path d="M365.1,386.05c-.17-.17-.25-.38-.25-.63s.08-.46,.25-.63c.17-.17,.38-.25,.63-.25s.46,.08,.63,.25c.17,.17,.25,.38,.25,.63s-.08,.46-.25,.63-.38,.25-.63,.25-.46-.08-.63-.25Zm-.06,.97h1.36v5.54h-1.36v-5.54Z"/>
    <path d="M369.26,387.02v.89c.21-.3,.47-.54,.76-.71,.29-.18,.61-.26,.96-.26,.51,0,.93,.14,1.24,.43,.31,.29,.47,.7,.47,1.24v3.96h-1.36v-3.55c0-.32-.07-.55-.21-.69s-.34-.22-.58-.22c-.23,0-.44,.09-.63,.26-.19,.18-.35,.43-.46,.78s-.18,.75-.18,1.22v2.21h-1.36v-5.54h1.36Z"/>
    <path d="M374.24,392.21c-.32-.29-.47-.71-.47-1.24s.21-.99,.63-1.32,.98-.5,1.69-.5h.97v-.24c0-.27-.09-.47-.28-.61s-.41-.2-.69-.2c-.48,0-.8,.21-.96,.64l-1.15-.26c.09-.46,.32-.83,.71-1.12,.38-.28,.85-.42,1.4-.42,.74,0,1.31,.2,1.72,.59,.41,.39,.61,.97,.61,1.73v3.31h-1.12l-.14-.7c-.43,.53-1,.79-1.71,.79-.49,0-.89-.15-1.21-.44Zm2.44-1.04c.25-.21,.37-.49,.37-.83v-.11h-.91c-.3,0-.53,.06-.7,.18s-.25,.3-.25,.54c0,.16,.06,.29,.17,.39,.11,.1,.26,.15,.45,.15,.33,0,.62-.1,.87-.31Z"/>
    <path d="M379.85,384.77h1.36v7.79h-1.36v-7.79Z"/>
  </g>
  <g>
    <g>
      <rect class="cls-14" x="248.67" y="368.11" width="58.16" height="41.32"/>
      <path class="cls-3" d="M307.34,409.92h-59.17v-42.32h59.17v42.32Zm-58.17-1h57.17v-40.32h-57.17v40.32Z"/>
      <g class="cls-24">
        <g>
          <rect class="cls-14" x="248.67" y="368" width="58.16" height="41.53"/>
          <path class="cls-3" d="M307.34,410.03h-59.17v-42.53h59.17v42.53Zm-58.17-1h57.17v-40.53h-57.17v40.53Z"/>
        </g>
      </g>
    </g>
    <g>
      <rect class="cls-14" x="248.67" y="368.11" width="58.16" height="41.32"/>
      <path class="cls-3" d="M307.34,409.92h-59.17v-42.32h59.17v42.32Zm-58.17-1h57.17v-40.32h-57.17v40.32Z"/>
    </g>
    <g>
      <rect class="cls-15" x="252.88" y="372.2" width="49.74" height="33.12"/>
      <path class="cls-3" d="M303.12,405.83h-50.74v-34.12h50.74v34.12Zm-49.74-1h48.74v-32.12h-48.74v32.12Z"/>
    </g>
  </g>
  <g>
    <path d="M266.6,392.19c-.55-.3-1-.75-1.33-1.35s-.5-1.31-.5-2.13,.17-1.54,.5-2.13c.33-.59,.77-1.04,1.33-1.35,.55-.3,1.16-.46,1.82-.46,.84,0,1.53,.2,2.08,.61s.92,.98,1.11,1.72l-1.29,.33c-.16-.42-.39-.75-.69-.99-.3-.23-.7-.35-1.21-.35-.41,0-.78,.1-1.11,.29s-.59,.49-.79,.88c-.19,.39-.29,.88-.29,1.45s.1,1.05,.29,1.45,.46,.69,.79,.88,.7,.29,1.11,.29c.51,0,.91-.12,1.21-.35,.3-.23,.53-.56,.69-.99l1.29,.33c-.18,.74-.55,1.31-1.11,1.72s-1.25,.61-2.08,.61c-.66,0-1.27-.15-1.82-.46Z"/>
    <path d="M273.84,392.28c-.43-.25-.75-.59-.97-1.02-.22-.43-.34-.92-.34-1.46s.11-1.03,.34-1.46c.22-.43,.55-.77,.97-1.02,.42-.25,.93-.37,1.51-.37s1.08,.12,1.51,.37c.42,.25,.75,.59,.97,1.02,.22,.43,.33,.92,.33,1.46s-.11,1.03-.33,1.46-.55,.77-.97,1.02c-.43,.25-.93,.37-1.51,.37s-1.08-.12-1.51-.37Zm2.52-1.28c.25-.33,.37-.73,.37-1.21s-.12-.88-.37-1.2-.59-.49-1.01-.49-.76,.16-1.01,.49c-.25,.33-.37,.73-.37,1.2s.12,.88,.37,1.21c.25,.33,.59,.49,1.01,.49s.76-.16,1.01-.49Z"/>
    <path d="M280.76,387.02v.57c.09-.16,.25-.31,.5-.45,.25-.14,.53-.21,.84-.21,.81,0,1.44,.26,1.88,.78s.65,1.21,.65,2.08-.22,1.57-.65,2.08-1.06,.78-1.88,.78c-.27,0-.53-.06-.78-.18-.25-.12-.44-.26-.56-.42v2.75h-1.36v-7.79h1.36Zm2.08,4.01c.24-.3,.36-.71,.36-1.24s-.12-.95-.36-1.25-.55-.45-.92-.45-.68,.15-.92,.45-.36,.71-.36,1.25,.12,.95,.36,1.25,.54,.45,.92,.45,.68-.15,.92-.45Z"/>
    <path d="M288.91,387.02h1.36l-2.86,7.79h-1.32l.95-2.62-2-5.17h1.38l1.26,3.41,1.23-3.41Z"/>
  </g>
  <g>
    <g>
      <rect class="cls-14" x="183.16" y="368.11" width="58.16" height="41.32"/>
      <path class="cls-3" d="M241.83,409.92h-59.17v-42.32h59.17v42.32Zm-58.17-1h57.17v-40.32h-57.17v40.32Z"/>
      <g class="cls-25">
        <g>
          <rect class="cls-14" x="183.16" y="368" width="58.16" height="41.53"/>
          <path class="cls-3" d="M241.83,410.03h-59.17v-42.53h59.17v42.53Zm-58.17-1h57.17v-40.53h-57.17v40.53Z"/>
        </g>
      </g>
    </g>
    <g>
      <rect class="cls-14" x="183.16" y="368.11" width="58.16" height="41.32"/>
      <path class="cls-3" d="M241.83,409.92h-59.17v-42.32h59.17v42.32Zm-58.17-1h57.17v-40.32h-57.17v40.32Z"/>
    </g>
    <g>
      <rect class="cls-15" x="187.38" y="372.2" width="49.74" height="33.12"/>
      <path class="cls-3" d="M237.62,405.83h-50.74v-34.12h50.74v34.12Zm-49.74-1h48.74v-32.12h-48.74v32.12Z"/>
    </g>
  </g>
  <g>
    <path d="M195.22,392.21c-.55-.29-.99-.74-1.31-1.33-.33-.59-.49-1.31-.49-2.17s.16-1.58,.49-2.17c.33-.59,.76-1.03,1.31-1.33,.55-.29,1.16-.44,1.83-.44s1.28,.15,1.83,.44c.55,.29,.99,.74,1.31,1.33,.33,.59,.49,1.31,.49,2.17s-.16,1.58-.49,2.17c-.33,.59-.77,1.03-1.31,1.33-.55,.29-1.16,.44-1.83,.44s-1.28-.15-1.83-.44Zm2.92-1.16c.33-.19,.59-.48,.79-.87,.2-.39,.3-.88,.3-1.47s-.1-1.08-.3-1.47-.46-.68-.79-.87-.69-.28-1.09-.28-.77,.09-1.1,.28c-.33,.19-.59,.48-.79,.87-.2,.39-.3,.88-.3,1.47s.1,1.08,.3,1.47c.2,.39,.46,.68,.79,.87,.33,.19,.69,.28,1.1,.28s.77-.09,1.09-.28Z"/>
    <path d="M203.31,387.02v.9c.2-.32,.44-.56,.73-.73,.29-.17,.59-.26,.91-.26,.21,0,.43,.04,.67,.11l-.25,1.27c-.17-.1-.36-.15-.57-.15-.43,0-.79,.2-1.07,.59-.28,.39-.42,1.01-.42,1.85v1.97h-1.36v-5.54h1.36Z"/>
    <path d="M206.59,386.05c-.17-.17-.25-.38-.25-.63s.08-.46,.25-.63c.17-.17,.38-.25,.63-.25s.46,.08,.63,.25c.17,.17,.25,.38,.25,.63s-.08,.46-.25,.63c-.17,.17-.38,.25-.63,.25s-.46-.08-.63-.25Zm-.06,.97h1.37v5.54h-1.37v-5.54Z"/>
    <path d="M209.71,394.42c-.47-.32-.7-.77-.7-1.35,0-.46,.15-.82,.45-1.1-.19-.23-.29-.51-.29-.86,0-.26,.06-.48,.18-.68s.29-.36,.5-.48c-.26-.32-.38-.7-.38-1.14,0-.37,.09-.7,.27-.98s.43-.5,.74-.66c.31-.15,.65-.23,1.03-.23s.7,.08,1.02,.24l1.04-.55,.54,.9-.79,.4c.15,.26,.22,.55,.22,.88,0,.37-.09,.7-.27,.98s-.43,.5-.74,.64c-.31,.15-.65,.22-1.03,.22-.28,0-.55-.04-.8-.12-.18,.1-.26,.24-.26,.42,0,.13,.04,.23,.13,.3s.22,.1,.38,.1h1.13c.59,0,1.07,.14,1.42,.42s.53,.68,.53,1.2c0,.43-.12,.79-.36,1.08s-.55,.5-.93,.63c-.38,.13-.79,.2-1.23,.2-.74,0-1.34-.16-1.81-.47Zm2.65-.84c.21-.11,.31-.28,.31-.52,0-.21-.08-.36-.23-.45-.15-.08-.38-.13-.66-.13h-.75c-.25,0-.46-.01-.64-.04-.08,.12-.12,.29-.12,.51,0,.26,.11,.45,.34,.59,.23,.14,.53,.2,.9,.2,.35,0,.63-.06,.84-.17Zm-.31-4.25c.14-.14,.21-.32,.21-.54s-.07-.41-.21-.56c-.14-.14-.33-.21-.54-.21s-.4,.07-.54,.21c-.14,.14-.21,.33-.21,.56s.07,.4,.21,.54c.14,.14,.32,.21,.54,.21s.4-.07,.54-.21Z"/>
    <path d="M215.1,386.05c-.17-.17-.25-.38-.25-.63s.08-.46,.25-.63c.17-.17,.38-.25,.63-.25s.46,.08,.63,.25c.17,.17,.25,.38,.25,.63s-.08,.46-.25,.63c-.17,.17-.38,.25-.63,.25s-.46-.08-.63-.25Zm-.06,.97h1.37v5.54h-1.37v-5.54Z"/>
    <path d="M219.26,387.02v.89c.21-.3,.47-.54,.76-.71s.61-.26,.96-.26c.51,0,.93,.14,1.24,.43,.31,.29,.47,.7,.47,1.24v3.96h-1.36v-3.55c0-.32-.07-.55-.21-.69s-.34-.22-.58-.22c-.23,0-.44,.09-.63,.26s-.35,.43-.46,.78-.18,.75-.18,1.22v2.21h-1.36v-5.54h1.36Z"/>
    <path d="M224.24,392.21c-.31-.29-.47-.71-.47-1.24s.21-.99,.63-1.32,.98-.5,1.69-.5h.97v-.24c0-.27-.09-.47-.28-.61s-.41-.2-.69-.2c-.48,0-.79,.21-.96,.64l-1.15-.26c.09-.46,.32-.83,.71-1.12,.38-.28,.85-.42,1.4-.42,.74,0,1.31,.2,1.72,.59,.41,.39,.61,.97,.61,1.73v3.31h-1.12l-.14-.7c-.43,.53-1,.79-1.71,.79-.49,0-.89-.15-1.21-.44Zm2.44-1.04c.25-.21,.37-.49,.37-.83v-.11h-.91c-.3,0-.54,.06-.7,.18-.17,.12-.25,.3-.25,.54,0,.16,.06,.29,.17,.39,.11,.1,.26,.15,.45,.15,.33,0,.62-.1,.87-.31Z"/>
    <path d="M229.85,384.77h1.37v7.79h-1.37v-7.79Z"/>
  </g>
  <g>
    <path d="M376.09,255.22c.79,0,1.38,.21,1.79,.64s.62,1,.62,1.7-.21,1.27-.62,1.7c-.41,.43-1.01,.64-1.79,.64h-1.47v3.01h-1.43v-7.7h2.9Zm.69,3.11c.18-.17,.26-.43,.26-.77s-.09-.6-.26-.77c-.18-.17-.43-.25-.75-.25h-1.42v2.05h1.42c.32,0,.57-.08,.75-.25Z"/>
    <path d="M379.53,262.56c-.32-.29-.47-.71-.47-1.24s.21-.99,.63-1.32,.98-.5,1.69-.5h.97v-.24c0-.27-.09-.47-.27-.61-.18-.14-.42-.2-.69-.2-.48,0-.8,.21-.96,.64l-1.16-.26c.09-.46,.33-.83,.71-1.12s.85-.42,1.4-.42c.74,0,1.31,.2,1.72,.59,.41,.39,.61,.97,.61,1.73v3.31h-1.12l-.14-.7c-.43,.53-1,.79-1.71,.79-.49,0-.89-.15-1.21-.44Zm2.44-1.04c.25-.21,.37-.49,.37-.83v-.11h-.91c-.3,0-.53,.06-.7,.18s-.25,.3-.25,.54c0,.16,.06,.29,.17,.39,.11,.1,.26,.15,.45,.15,.33,0,.62-.1,.87-.31Z"/>
    <path d="M386.46,257.37v.9c.2-.31,.44-.56,.73-.73,.29-.17,.59-.26,.91-.26,.21,0,.43,.04,.67,.11l-.25,1.27c-.17-.1-.36-.15-.57-.15-.43,0-.79,.2-1.07,.59-.28,.39-.42,1.01-.42,1.85v1.97h-1.36v-5.54h1.36Z"/>
    <path d="M390.74,262.49c-.36-.34-.54-.85-.54-1.53v-2.42h-.86v-1.17h.86v-1.39l1.36-.86v2.24h1.46v1.17h-1.46v2.4c0,.33,.06,.56,.18,.7,.12,.14,.3,.2,.54,.2,.18,0,.36-.04,.53-.13l.32,1.1c-.29,.13-.59,.2-.9,.2-.64,0-1.14-.17-1.5-.52Z"/>
    <path d="M394.14,256.4c-.17-.17-.25-.38-.25-.63s.08-.46,.25-.63c.17-.17,.38-.25,.63-.25s.46,.08,.63,.25c.17,.17,.25,.38,.25,.63s-.08,.46-.25,.63c-.17,.17-.38,.25-.63,.25s-.46-.08-.63-.25Zm-.05,.97h1.36v5.54h-1.36v-5.54Z"/>
    <path d="M397.71,262.49c-.36-.34-.54-.85-.54-1.53v-2.42h-.86v-1.17h.86v-1.39l1.36-.86v2.24h1.46v1.17h-1.46v2.4c0,.33,.06,.56,.18,.7,.12,.14,.3,.2,.54,.2,.18,0,.36-.04,.53-.13l.32,1.1c-.29,.13-.59,.2-.9,.2-.64,0-1.14-.17-1.5-.52Z"/>
    <path d="M401.11,256.4c-.17-.17-.25-.38-.25-.63s.08-.46,.25-.63c.17-.17,.38-.25,.63-.25s.46,.08,.63,.25c.17,.17,.25,.38,.25,.63s-.08,.46-.25,.63c-.17,.17-.38,.25-.63,.25s-.46-.08-.63-.25Zm-.05,.97h1.36v5.54h-1.36v-5.54Z"/>
    <path d="M404.94,262.63c-.42-.25-.75-.59-.97-1.02-.22-.43-.33-.92-.33-1.46s.11-1.03,.33-1.46,.55-.77,.97-1.02c.43-.25,.93-.37,1.51-.37s1.08,.12,1.51,.37c.42,.25,.75,.59,.97,1.02s.34,.92,.34,1.46-.11,1.03-.34,1.46c-.22,.43-.55,.77-.97,1.02-.43,.25-.93,.37-1.51,.37s-1.08-.12-1.51-.37Zm2.52-1.28c.25-.33,.37-.73,.37-1.21s-.12-.88-.37-1.2c-.25-.33-.59-.49-1.01-.49s-.76,.16-1.01,.49-.37,.73-.37,1.2,.12,.88,.37,1.21,.59,.49,1.01,.49,.76-.16,1.01-.49Z"/>
    <path d="M411.86,257.37v.89c.21-.3,.47-.54,.76-.71s.61-.26,.96-.26c.51,0,.93,.14,1.24,.43s.47,.7,.47,1.24v3.96h-1.36v-3.55c0-.31-.07-.55-.21-.69-.14-.15-.34-.22-.58-.22-.23,0-.44,.09-.63,.26s-.34,.43-.46,.78-.18,.75-.18,1.22v2.21h-1.36v-5.54h1.36Z"/>
  </g>
  <g>
    <path d="M226.83,255.22c.79,0,1.38,.21,1.79,.64s.62,1,.62,1.7-.21,1.27-.62,1.7c-.41,.43-1.01,.64-1.79,.64h-1.47v3.01h-1.43v-7.7h2.9Zm.69,3.11c.18-.17,.26-.43,.26-.77s-.09-.6-.26-.77c-.18-.17-.43-.25-.75-.25h-1.42v2.05h1.42c.32,0,.57-.08,.75-.25Z"/>
    <path d="M230.27,262.56c-.32-.29-.47-.71-.47-1.24s.21-.99,.63-1.32,.98-.5,1.69-.5h.97v-.24c0-.27-.09-.47-.27-.61-.18-.14-.42-.2-.69-.2-.48,0-.8,.21-.96,.64l-1.16-.26c.09-.46,.33-.83,.71-1.12s.85-.42,1.4-.42c.74,0,1.31,.2,1.72,.59,.41,.39,.61,.97,.61,1.73v3.31h-1.12l-.14-.7c-.43,.53-1,.79-1.71,.79-.49,0-.89-.15-1.21-.44Zm2.44-1.04c.25-.21,.37-.49,.37-.83v-.11h-.91c-.3,0-.53,.06-.7,.18s-.25,.3-.25,.54c0,.16,.06,.29,.17,.39,.11,.1,.26,.15,.45,.15,.33,0,.62-.1,.87-.31Z"/>
    <path d="M237.2,257.37v.9c.2-.31,.44-.56,.73-.73,.29-.17,.59-.26,.91-.26,.21,0,.43,.04,.67,.11l-.25,1.27c-.17-.1-.36-.15-.57-.15-.43,0-.79,.2-1.07,.59-.28,.39-.42,1.01-.42,1.85v1.97h-1.36v-5.54h1.36Z"/>
    <path d="M241.48,262.49c-.36-.34-.54-.85-.54-1.53v-2.42h-.86v-1.17h.86v-1.39l1.36-.86v2.24h1.46v1.17h-1.46v2.4c0,.33,.06,.56,.18,.7,.12,.14,.3,.2,.54,.2,.18,0,.36-.04,.53-.13l.32,1.1c-.29,.13-.59,.2-.9,.2-.64,0-1.14-.17-1.5-.52Z"/>
    <path d="M244.88,256.4c-.17-.17-.25-.38-.25-.63s.08-.46,.25-.63c.17-.17,.38-.25,.63-.25s.46,.08,.63,.25c.17,.17,.25,.38,.25,.63s-.08,.46-.25,.63c-.17,.17-.38,.25-.63,.25s-.46-.08-.63-.25Zm-.05,.97h1.36v5.54h-1.36v-5.54Z"/>
    <path d="M248.45,262.49c-.36-.34-.54-.85-.54-1.53v-2.42h-.86v-1.17h.86v-1.39l1.36-.86v2.24h1.46v1.17h-1.46v2.4c0,.33,.06,.56,.18,.7,.12,.14,.3,.2,.54,.2,.18,0,.36-.04,.53-.13l.32,1.1c-.29,.13-.59,.2-.9,.2-.64,0-1.14-.17-1.5-.52Z"/>
    <path d="M251.85,256.4c-.17-.17-.25-.38-.25-.63s.08-.46,.25-.63c.17-.17,.38-.25,.63-.25s.46,.08,.63,.25c.17,.17,.25,.38,.25,.63s-.08,.46-.25,.63c-.17,.17-.38,.25-.63,.25s-.46-.08-.63-.25Zm-.05,.97h1.36v5.54h-1.36v-5.54Z"/>
    <path d="M255.68,262.63c-.42-.25-.75-.59-.97-1.02-.22-.43-.33-.92-.33-1.46s.11-1.03,.33-1.46,.55-.77,.97-1.02c.43-.25,.93-.37,1.51-.37s1.08,.12,1.51,.37c.42,.25,.75,.59,.97,1.02s.34,.92,.34,1.46-.11,1.03-.34,1.46c-.22,.43-.55,.77-.97,1.02-.43,.25-.93,.37-1.51,.37s-1.08-.12-1.51-.37Zm2.52-1.28c.25-.33,.37-.73,.37-1.21s-.12-.88-.37-1.2c-.25-.33-.59-.49-1.01-.49s-.76,.16-1.01,.49-.37,.73-.37,1.2,.12,.88,.37,1.21,.59,.49,1.01,.49,.76-.16,1.01-.49Z"/>
    <path d="M262.6,257.37v.89c.21-.3,.47-.54,.76-.71s.61-.26,.96-.26c.51,0,.93,.14,1.24,.43s.47,.7,.47,1.24v3.96h-1.36v-3.55c0-.31-.07-.55-.21-.69-.14-.15-.34-.22-.58-.22-.23,0-.44,.09-.63,.26s-.34,.43-.46,.78-.18,.75-.18,1.22v2.21h-1.36v-5.54h1.36Z"/>
  </g>
  <g>
    <path class="cls-15" d="M433.78,292.72c.88,0,1.57,.24,2.05,.71,.48,.47,.72,1.1,.72,1.88,0,.61-.15,1.12-.44,1.55-.29,.43-.71,.73-1.26,.89l2.52,4.07h-1.88l-2.44-3.93h-.88v3.93h-1.69v-9.1h3.31Zm.79,3.37c.19-.16,.29-.42,.29-.78s-.1-.62-.29-.78c-.19-.17-.45-.25-.78-.25h-1.64v2.05h1.64c.33,0,.59-.08,.78-.25Z"/>
    <path class="cls-15" d="M444.01,299.06h-4.52c.07,.49,.24,.85,.51,1.1,.27,.25,.62,.38,1.05,.38,.36,0,.67-.08,.92-.25,.25-.16,.47-.42,.67-.77l1.3,.48c-.27,.62-.64,1.09-1.12,1.42-.48,.33-1.1,.49-1.85,.49-.71,0-1.3-.17-1.77-.5-.47-.33-.82-.76-1.04-1.27-.22-.52-.33-1.05-.33-1.61s.11-1.09,.33-1.61c.22-.52,.57-.94,1.04-1.27,.47-.33,1.06-.5,1.77-.5s1.26,.16,1.72,.49c.46,.33,.8,.73,1.01,1.23s.33,1,.33,1.52v.66Zm-1.65-1.27c-.08-.36-.23-.66-.46-.9-.23-.23-.54-.35-.94-.35-.35,0-.65,.11-.9,.32-.25,.21-.43,.52-.53,.93h2.83Z"/>
    <path class="cls-15" d="M447.08,295.27v.68c.1-.19,.3-.37,.59-.53s.62-.25,.99-.25c.96,0,1.7,.31,2.22,.92,.52,.61,.77,1.43,.77,2.46s-.26,1.85-.77,2.46c-.52,.61-1.25,.92-2.22,.92-.32,0-.63-.07-.92-.21s-.52-.3-.66-.49v3.25h-1.61v-9.2h1.61Zm2.46,4.74c.29-.35,.43-.84,.43-1.47s-.14-1.12-.43-1.48c-.29-.35-.65-.53-1.09-.53s-.8,.18-1.09,.53c-.28,.35-.42,.84-.42,1.48s.14,1.12,.42,1.48c.28,.35,.64,.53,1.09,.53s.81-.18,1.09-.53Z"/>
    <path class="cls-15" d="M453.11,292.61h1.61v9.2h-1.61v-9.2Z"/>
    <path class="cls-15" d="M456.6,294.12c-.2-.2-.3-.45-.3-.74s.1-.54,.3-.74,.45-.3,.74-.3,.54,.1,.74,.3c.2,.2,.3,.45,.3,.74s-.1,.54-.3,.74-.45,.3-.74,.3-.54-.1-.74-.3Zm-.07,1.14h1.61v6.55h-1.61v-6.55Z"/>
    <path class="cls-15" d="M461.03,301.47c-.48-.3-.84-.7-1.09-1.22-.24-.51-.36-1.08-.36-1.72s.12-1.2,.36-1.72,.6-.92,1.09-1.22c.48-.3,1.06-.45,1.75-.45,.73,0,1.35,.16,1.85,.47s.88,.78,1.12,1.4l-1.44,.58c-.17-.36-.38-.62-.63-.81-.25-.18-.55-.27-.9-.27-.49,0-.87,.18-1.12,.55-.26,.37-.38,.85-.38,1.45s.13,1.08,.38,1.45c.25,.37,.63,.55,1.12,.55,.36,0,.66-.09,.9-.27,.25-.18,.46-.45,.63-.81l1.44,.58c-.24,.62-.62,1.08-1.12,1.4-.51,.32-1.12,.47-1.85,.47-.68,0-1.27-.15-1.75-.45Z"/>
    <path class="cls-15" d="M467.22,301.4c-.37-.35-.56-.84-.56-1.47s.25-1.17,.74-1.56,1.16-.58,2-.58h1.14v-.29c0-.32-.11-.56-.33-.72-.22-.16-.49-.24-.82-.24-.56,0-.94,.25-1.13,.75l-1.37-.31c.1-.55,.38-.99,.84-1.32,.45-.33,1.01-.5,1.66-.5,.88,0,1.55,.23,2.03,.7,.48,.46,.72,1.15,.72,2.05v3.91h-1.33l-.17-.83c-.51,.62-1.18,.94-2.01,.94-.58,0-1.06-.17-1.43-.52Zm2.89-1.23c.29-.25,.44-.57,.44-.98v-.13h-1.08c-.36,0-.63,.07-.83,.21s-.29,.35-.29,.64c0,.19,.07,.34,.2,.46,.13,.12,.31,.18,.53,.18,.39,0,.73-.12,1.03-.37Z"/>
    <path class="cls-15" d="M474.71,301.31c-.42-.41-.64-1.01-.64-1.81v-2.86h-1.01v-1.38h1.01v-1.64l1.61-1.01v2.65h1.73v1.38h-1.73v2.83c0,.39,.07,.67,.21,.83,.14,.16,.36,.24,.64,.24,.22,0,.42-.05,.62-.16l.38,1.3c-.34,.16-.69,.23-1.07,.23-.75,0-1.34-.2-1.77-.61Z"/>
    <path class="cls-15" d="M484.19,299.06h-4.52c.07,.49,.24,.85,.51,1.1,.27,.25,.62,.38,1.05,.38,.36,0,.67-.08,.92-.25,.25-.16,.47-.42,.67-.77l1.3,.48c-.27,.62-.64,1.09-1.12,1.42-.48,.33-1.1,.49-1.85,.49-.71,0-1.3-.17-1.77-.5-.47-.33-.82-.76-1.04-1.27-.22-.52-.33-1.05-.33-1.61s.11-1.09,.33-1.61c.22-.52,.57-.94,1.04-1.27,.47-.33,1.06-.5,1.77-.5s1.26,.16,1.72,.49c.46,.33,.8,.73,1.01,1.23s.33,1,.33,1.52v.66Zm-1.65-1.27c-.08-.36-.23-.66-.46-.9-.23-.23-.54-.35-.94-.35-.35,0-.65,.11-.9,.32-.25,.21-.43,.52-.53,.93h2.83Z"/>
    <path class="cls-15" d="M488.08,296.64v-1.38h.83v-.34c0-.77,.2-1.35,.6-1.74,.4-.39,.96-.58,1.66-.58,.49,0,.9,.09,1.22,.26l-.35,1.3c-.29-.12-.55-.18-.78-.18-.49,0-.74,.27-.74,.82v.46h1.38v1.38h-1.38v5.17h-1.61v-5.17h-.83Z"/>
    <path class="cls-15" d="M494.12,301.48c-.5-.29-.89-.7-1.15-1.21-.26-.51-.4-1.09-.4-1.73s.13-1.22,.4-1.73c.26-.51,.65-.92,1.15-1.21,.5-.29,1.1-.44,1.78-.44s1.28,.15,1.78,.44c.5,.29,.89,.7,1.15,1.21,.26,.51,.4,1.09,.4,1.73s-.13,1.22-.4,1.73c-.26,.51-.65,.91-1.15,1.21-.5,.29-1.1,.44-1.78,.44s-1.28-.15-1.78-.44Zm2.98-1.51c.29-.39,.44-.86,.44-1.42s-.15-1.04-.44-1.42c-.29-.38-.69-.58-1.2-.58s-.9,.19-1.2,.58c-.29,.39-.44,.86-.44,1.42s.15,1.04,.44,1.42c.29,.39,.69,.58,1.2,.58s.9-.19,1.2-.58Z"/>
    <path class="cls-15" d="M502.3,295.27v1.07c.23-.37,.52-.66,.86-.86,.34-.2,.7-.31,1.08-.31,.24,0,.51,.04,.79,.13l-.3,1.5c-.2-.12-.42-.18-.68-.18-.51,0-.93,.23-1.26,.7-.33,.46-.49,1.19-.49,2.19v2.33h-1.61v-6.55h1.61Z"/>
    <path class="cls-15" d="M441.06,310.87v1.07c.23-.37,.52-.66,.86-.86,.34-.2,.7-.31,1.08-.31,.24,0,.51,.04,.79,.13l-.3,1.5c-.2-.12-.42-.18-.68-.18-.51,0-.93,.23-1.26,.7-.33,.46-.49,1.19-.49,2.19v2.33h-1.61v-6.55h1.61Z"/>
    <path class="cls-15" d="M450.41,314.66h-4.52c.07,.49,.24,.85,.51,1.1,.27,.25,.62,.38,1.05,.38,.36,0,.67-.08,.92-.25,.25-.16,.47-.42,.67-.77l1.3,.48c-.27,.62-.64,1.09-1.12,1.42-.48,.33-1.1,.49-1.85,.49-.71,0-1.3-.17-1.77-.5-.47-.33-.82-.76-1.04-1.27-.22-.51-.33-1.05-.33-1.61s.11-1.09,.33-1.61,.57-.94,1.04-1.27c.47-.33,1.06-.5,1.77-.5s1.26,.16,1.72,.49c.46,.33,.8,.74,1.01,1.23,.22,.49,.33,1,.33,1.52v.66Zm-1.65-1.27c-.08-.36-.23-.66-.46-.9-.23-.23-.54-.35-.94-.35-.35,0-.65,.11-.9,.32-.25,.21-.43,.52-.53,.93h2.83Z"/>
    <path class="cls-15" d="M452.16,317c-.46-.35-.76-.76-.9-1.25l1.29-.69c.12,.34,.29,.6,.51,.79,.22,.19,.48,.29,.79,.29,.21,0,.39-.05,.53-.16s.22-.27,.22-.47-.11-.37-.34-.51c-.22-.14-.56-.3-1.01-.47-.49-.2-.88-.45-1.15-.75-.27-.3-.41-.69-.41-1.17,0-.34,.09-.65,.27-.92,.18-.28,.42-.5,.73-.66,.31-.16,.67-.25,1.07-.25,.44,0,.85,.09,1.21,.28,.36,.19,.65,.45,.85,.79l-.96,.88c-.26-.38-.61-.57-1.05-.57-.17,0-.32,.05-.45,.14-.13,.09-.19,.21-.19,.36,0,.16,.09,.3,.27,.44,.18,.13,.54,.3,1.07,.49,.51,.18,.91,.42,1.18,.71,.28,.29,.42,.67,.42,1.13,0,.64-.21,1.15-.62,1.54s-.95,.58-1.61,.58-1.24-.17-1.7-.52Z"/>
    <path class="cls-15" d="M457.53,309.72c-.2-.2-.3-.45-.3-.74s.1-.54,.3-.74,.45-.3,.74-.3,.54,.1,.74,.3c.2,.2,.3,.45,.3,.74s-.1,.54-.3,.74-.45,.3-.74,.3-.54-.1-.74-.3Zm-.06,1.14h1.61v6.55h-1.61v-6.55Z"/>
    <path class="cls-15" d="M460.9,308.21h1.61v9.2h-1.61v-9.2Z"/>
    <path class="cls-15" d="M464.4,309.72c-.2-.2-.3-.45-.3-.74s.1-.54,.3-.74c.2-.2,.45-.3,.74-.3s.54,.1,.74,.3,.3,.45,.3,.74-.1,.54-.3,.74c-.2,.2-.45,.3-.74,.3s-.54-.1-.74-.3Zm-.07,1.14h1.61v6.55h-1.61v-6.55Z"/>
    <path class="cls-15" d="M473.58,314.66h-4.52c.07,.49,.24,.85,.51,1.1,.27,.25,.62,.38,1.05,.38,.36,0,.67-.08,.92-.25,.25-.16,.47-.42,.67-.77l1.3,.48c-.27,.62-.64,1.09-1.12,1.42-.48,.33-1.1,.49-1.85,.49-.71,0-1.3-.17-1.77-.5s-.82-.76-1.04-1.27c-.22-.51-.33-1.05-.33-1.61s.11-1.09,.33-1.61c.22-.52,.57-.94,1.04-1.27s1.06-.5,1.77-.5,1.26,.16,1.72,.49c.46,.33,.8,.74,1.01,1.23,.22,.49,.33,1,.33,1.52v.66Zm-1.65-1.27c-.08-.36-.23-.66-.46-.9-.23-.23-.54-.35-.94-.35-.35,0-.65,.11-.9,.32-.25,.21-.43,.52-.53,.93h2.83Z"/>
    <path class="cls-15" d="M476.64,310.87v1.05c.25-.36,.55-.64,.9-.84s.72-.31,1.13-.31c.61,0,1.09,.17,1.46,.51,.37,.34,.55,.83,.55,1.47v4.68h-1.61v-4.2c0-.37-.08-.65-.25-.82-.17-.17-.4-.26-.68-.26-.27,0-.52,.1-.74,.31s-.41,.51-.55,.92c-.14,.4-.21,.88-.21,1.44v2.61h-1.61v-6.55h1.61Z"/>
    <path class="cls-15" d="M483.59,317.07c-.48-.3-.84-.7-1.08-1.21-.24-.51-.36-1.08-.36-1.72s.12-1.2,.36-1.72c.24-.51,.6-.92,1.08-1.21,.48-.3,1.06-.45,1.75-.45,.73,0,1.34,.16,1.85,.47,.51,.32,.88,.78,1.12,1.4l-1.44,.58c-.17-.36-.38-.62-.63-.81s-.55-.27-.9-.27c-.49,0-.87,.18-1.12,.55s-.38,.85-.38,1.45,.13,1.08,.38,1.45,.63,.55,1.12,.55c.35,0,.66-.09,.9-.27s.46-.45,.63-.81l1.44,.58c-.24,.62-.62,1.08-1.12,1.4-.51,.32-1.12,.47-1.85,.47-.69,0-1.27-.15-1.75-.45Z"/>
    <path class="cls-15" d="M495.53,314.66h-4.52c.07,.49,.24,.85,.51,1.1,.27,.25,.62,.38,1.05,.38,.36,0,.67-.08,.92-.25,.25-.16,.47-.42,.67-.77l1.3,.48c-.27,.62-.64,1.09-1.12,1.42-.48,.33-1.1,.49-1.85,.49-.71,0-1.3-.17-1.77-.5-.47-.33-.82-.76-1.04-1.27-.22-.51-.33-1.05-.33-1.61s.11-1.09,.33-1.61,.57-.94,1.04-1.27c.47-.33,1.06-.5,1.77-.5s1.26,.16,1.72,.49c.46,.33,.8,.74,1.01,1.23,.22,.49,.33,1,.33,1.52v.66Zm-1.65-1.27c-.08-.36-.23-.66-.46-.9-.23-.23-.54-.35-.94-.35-.35,0-.65,.11-.9,.32-.25,.21-.43,.52-.53,.93h2.83Z"/>
  </g>
  <g>
    <path class="cls-15" d="M286.47,292.72c.88,0,1.57,.24,2.05,.71,.48,.47,.72,1.1,.72,1.88,0,.61-.15,1.12-.44,1.55-.29,.43-.72,.73-1.26,.89l2.52,4.07h-1.88l-2.44-3.93h-.88v3.93h-1.69v-9.1h3.32Zm.79,3.37c.19-.16,.29-.42,.29-.78s-.1-.62-.29-.78c-.19-.17-.45-.25-.78-.25h-1.64v2.05h1.64c.33,0,.59-.08,.78-.25Z"/>
    <path class="cls-15" d="M296.7,299.06h-4.52c.07,.49,.24,.85,.51,1.1,.27,.25,.62,.38,1.05,.38,.36,0,.67-.08,.92-.25,.25-.16,.47-.42,.67-.77l1.3,.48c-.27,.62-.64,1.09-1.12,1.42-.48,.33-1.1,.49-1.85,.49-.71,0-1.3-.17-1.77-.5-.47-.33-.82-.76-1.04-1.27s-.33-1.05-.33-1.61,.11-1.09,.33-1.61,.57-.94,1.04-1.27c.47-.33,1.06-.5,1.77-.5s1.26,.16,1.72,.49,.8,.73,1.01,1.23,.33,1,.33,1.52v.66Zm-1.65-1.27c-.08-.36-.23-.66-.46-.9-.23-.23-.54-.35-.94-.35-.35,0-.65,.11-.9,.32-.25,.21-.43,.52-.53,.93h2.83Z"/>
    <path class="cls-15" d="M299.77,295.27v.68c.1-.19,.3-.37,.59-.53,.29-.17,.62-.25,1-.25,.96,0,1.7,.31,2.22,.92,.51,.61,.77,1.43,.77,2.46s-.26,1.85-.77,2.46c-.52,.61-1.25,.92-2.22,.92-.32,0-.63-.07-.92-.21-.29-.14-.52-.3-.66-.49v3.25h-1.61v-9.2h1.61Zm2.46,4.74c.29-.35,.43-.84,.43-1.47s-.14-1.12-.43-1.48c-.29-.35-.65-.53-1.09-.53s-.8,.18-1.09,.53c-.28,.35-.42,.84-.42,1.48s.14,1.12,.42,1.48c.28,.35,.64,.53,1.09,.53s.81-.18,1.09-.53Z"/>
    <path class="cls-15" d="M305.8,292.61h1.61v9.2h-1.61v-9.2Z"/>
    <path class="cls-15" d="M309.29,294.12c-.2-.2-.3-.45-.3-.74s.1-.54,.3-.74c.2-.2,.45-.3,.74-.3s.54,.1,.74,.3c.2,.2,.3,.45,.3,.74s-.1,.54-.3,.74c-.2,.2-.45,.3-.74,.3s-.54-.1-.74-.3Zm-.06,1.14h1.61v6.55h-1.61v-6.55Z"/>
    <path class="cls-15" d="M313.72,301.47c-.48-.3-.84-.7-1.08-1.22-.24-.51-.36-1.08-.36-1.72s.12-1.2,.36-1.72c.24-.51,.6-.92,1.08-1.22,.48-.3,1.06-.45,1.75-.45,.73,0,1.34,.16,1.85,.47,.51,.32,.88,.78,1.12,1.4l-1.44,.58c-.17-.36-.38-.62-.63-.81-.25-.18-.55-.27-.9-.27-.49,0-.87,.18-1.12,.55s-.38,.85-.38,1.45,.13,1.08,.38,1.45c.26,.37,.63,.55,1.12,.55,.35,0,.66-.09,.9-.27,.25-.18,.46-.45,.63-.81l1.44,.58c-.24,.62-.62,1.08-1.12,1.4-.51,.32-1.12,.47-1.85,.47-.69,0-1.27-.15-1.75-.45Z"/>
    <path class="cls-15" d="M319.92,301.4c-.37-.35-.56-.84-.56-1.47s.25-1.17,.74-1.56,1.16-.58,2-.58h1.14v-.29c0-.32-.11-.56-.33-.72-.22-.16-.49-.24-.82-.24-.56,0-.94,.25-1.13,.75l-1.37-.31c.1-.55,.38-.99,.84-1.32,.46-.33,1.01-.5,1.66-.5,.88,0,1.55,.23,2.04,.7,.48,.46,.72,1.15,.72,2.05v3.91h-1.33l-.17-.83c-.51,.62-1.18,.94-2.02,.94-.58,0-1.06-.17-1.43-.52Zm2.89-1.23c.29-.25,.44-.57,.44-.98v-.13h-1.08c-.36,0-.63,.07-.83,.21-.2,.14-.29,.35-.29,.64,0,.19,.07,.34,.2,.46,.13,.12,.31,.18,.53,.18,.39,0,.73-.12,1.03-.37Z"/>
    <path class="cls-15" d="M327.4,301.31c-.42-.41-.64-1.01-.64-1.81v-2.86h-1.01v-1.38h1.01v-1.64l1.61-1.01v2.65h1.73v1.38h-1.73v2.83c0,.39,.07,.67,.21,.83,.14,.16,.36,.24,.64,.24,.22,0,.42-.05,.62-.16l.38,1.3c-.34,.16-.69,.23-1.07,.23-.75,0-1.34-.2-1.77-.61Z"/>
    <path class="cls-15" d="M336.88,299.06h-4.52c.07,.49,.24,.85,.51,1.1,.27,.25,.62,.38,1.05,.38,.36,0,.67-.08,.92-.25,.25-.16,.47-.42,.67-.77l1.3,.48c-.27,.62-.64,1.09-1.12,1.42-.48,.33-1.1,.49-1.85,.49-.71,0-1.3-.17-1.77-.5-.47-.33-.82-.76-1.04-1.27s-.33-1.05-.33-1.61,.11-1.09,.33-1.61,.57-.94,1.04-1.27c.47-.33,1.06-.5,1.77-.5s1.26,.16,1.72,.49,.8,.73,1.01,1.23,.33,1,.33,1.52v.66Zm-1.65-1.27c-.08-.36-.23-.66-.46-.9-.23-.23-.54-.35-.94-.35-.35,0-.65,.11-.9,.32-.25,.21-.43,.52-.53,.93h2.83Z"/>
    <path class="cls-15" d="M340.77,296.64v-1.38h.83v-.34c0-.77,.2-1.35,.6-1.74s.96-.58,1.66-.58c.49,0,.9,.09,1.22,.26l-.35,1.3c-.29-.12-.55-.18-.78-.18-.49,0-.74,.27-.74,.82v.46h1.38v1.38h-1.38v5.17h-1.61v-5.17h-.83Z"/>
    <path class="cls-15" d="M346.81,301.48c-.5-.29-.89-.7-1.15-1.21-.26-.51-.4-1.09-.4-1.73s.13-1.22,.4-1.73c.26-.51,.65-.92,1.15-1.21,.5-.29,1.1-.44,1.78-.44s1.28,.15,1.78,.44c.5,.29,.89,.7,1.15,1.21,.26,.51,.4,1.09,.4,1.73s-.13,1.22-.4,1.73c-.26,.51-.65,.91-1.15,1.21-.5,.29-1.1,.44-1.78,.44s-1.28-.15-1.78-.44Zm2.98-1.51c.29-.39,.44-.86,.44-1.42s-.15-1.04-.44-1.42c-.29-.38-.69-.58-1.2-.58s-.9,.19-1.2,.58c-.29,.39-.44,.86-.44,1.42s.15,1.04,.44,1.42,.69,.58,1.2,.58,.9-.19,1.2-.58Z"/>
    <path class="cls-15" d="M354.99,295.27v1.07c.23-.37,.52-.66,.86-.86,.34-.2,.7-.31,1.08-.31,.24,0,.51,.04,.79,.13l-.3,1.5c-.2-.12-.42-.18-.68-.18-.51,0-.93,.23-1.26,.7s-.49,1.19-.49,2.19v2.33h-1.61v-6.55h1.61Z"/>
    <path class="cls-15" d="M293.75,310.87v1.07c.23-.37,.52-.66,.86-.86,.34-.2,.7-.31,1.08-.31,.24,0,.51,.04,.79,.13l-.3,1.5c-.2-.12-.42-.18-.68-.18-.51,0-.93,.23-1.26,.7s-.49,1.19-.49,2.19v2.33h-1.61v-6.55h1.61Z"/>
    <path class="cls-15" d="M303.1,314.66h-4.52c.07,.49,.24,.85,.51,1.1,.27,.25,.62,.38,1.05,.38,.36,0,.67-.08,.92-.25,.25-.16,.47-.42,.67-.77l1.3,.48c-.27,.62-.64,1.09-1.12,1.42-.48,.33-1.1,.49-1.85,.49-.71,0-1.3-.17-1.77-.5s-.82-.76-1.04-1.27c-.22-.51-.33-1.05-.33-1.61s.11-1.09,.33-1.61c.22-.52,.57-.94,1.04-1.27s1.06-.5,1.77-.5,1.26,.16,1.72,.49c.46,.33,.8,.74,1.01,1.23,.22,.49,.33,1,.33,1.52v.66Zm-1.65-1.27c-.08-.36-.23-.66-.46-.9-.23-.23-.54-.35-.94-.35-.35,0-.65,.11-.9,.32-.25,.21-.43,.52-.53,.93h2.83Z"/>
    <path class="cls-15" d="M304.85,317c-.46-.35-.76-.76-.9-1.25l1.29-.69c.12,.34,.29,.6,.51,.79,.22,.19,.48,.29,.79,.29,.21,0,.39-.05,.53-.16s.22-.27,.22-.47-.11-.37-.34-.51c-.23-.14-.56-.3-1.01-.47-.49-.2-.88-.45-1.15-.75-.27-.3-.41-.69-.41-1.17,0-.34,.09-.65,.27-.92s.42-.5,.73-.66c.31-.16,.67-.25,1.07-.25,.44,0,.84,.09,1.21,.28,.36,.19,.65,.45,.84,.79l-.96,.88c-.26-.38-.61-.57-1.05-.57-.17,0-.32,.05-.45,.14-.12,.09-.19,.21-.19,.36,0,.16,.09,.3,.27,.44,.18,.13,.54,.3,1.07,.49,.51,.18,.91,.42,1.18,.71,.28,.29,.42,.67,.42,1.13,0,.64-.21,1.15-.62,1.54s-.95,.58-1.61,.58-1.24-.17-1.7-.52Z"/>
    <path class="cls-15" d="M310.22,309.72c-.2-.2-.3-.45-.3-.74s.1-.54,.3-.74c.2-.2,.45-.3,.74-.3s.54,.1,.74,.3,.3,.45,.3,.74-.1,.54-.3,.74c-.2,.2-.45,.3-.74,.3s-.54-.1-.74-.3Zm-.07,1.14h1.61v6.55h-1.61v-6.55Z"/>
    <path class="cls-15" d="M313.59,308.21h1.61v9.2h-1.61v-9.2Z"/>
    <path class="cls-15" d="M317.09,309.72c-.2-.2-.3-.45-.3-.74s.1-.54,.3-.74,.45-.3,.74-.3,.54,.1,.74,.3c.2,.2,.3,.45,.3,.74s-.1,.54-.3,.74-.45,.3-.74,.3-.54-.1-.74-.3Zm-.06,1.14h1.61v6.55h-1.61v-6.55Z"/>
    <path class="cls-15" d="M326.27,314.66h-4.52c.07,.49,.24,.85,.51,1.1,.27,.25,.62,.38,1.05,.38,.36,0,.67-.08,.92-.25,.25-.16,.47-.42,.67-.77l1.3,.48c-.27,.62-.64,1.09-1.12,1.42-.48,.33-1.1,.49-1.85,.49-.71,0-1.3-.17-1.77-.5-.47-.33-.82-.76-1.04-1.27-.22-.51-.33-1.05-.33-1.61s.11-1.09,.33-1.61,.57-.94,1.04-1.27c.47-.33,1.06-.5,1.77-.5s1.26,.16,1.72,.49c.46,.33,.8,.74,1.01,1.23,.22,.49,.33,1,.33,1.52v.66Zm-1.65-1.27c-.08-.36-.23-.66-.46-.9-.23-.23-.54-.35-.94-.35-.35,0-.65,.11-.9,.32-.25,.21-.43,.52-.53,.93h2.83Z"/>
    <path class="cls-15" d="M329.33,310.87v1.05c.25-.36,.55-.64,.9-.84s.72-.31,1.13-.31c.61,0,1.09,.17,1.46,.51,.37,.34,.55,.83,.55,1.47v4.68h-1.61v-4.2c0-.37-.08-.65-.25-.82-.17-.17-.4-.26-.68-.26-.27,0-.52,.1-.74,.31s-.41,.51-.55,.92c-.14,.4-.21,.88-.21,1.44v2.61h-1.61v-6.55h1.61Z"/>
    <path class="cls-15" d="M336.28,317.07c-.48-.3-.84-.7-1.09-1.21-.24-.51-.36-1.08-.36-1.72s.12-1.2,.36-1.72c.24-.51,.6-.92,1.09-1.21,.48-.3,1.06-.45,1.75-.45,.73,0,1.35,.16,1.85,.47s.88,.78,1.12,1.4l-1.44,.58c-.17-.36-.38-.62-.63-.81s-.55-.27-.9-.27c-.49,0-.87,.18-1.12,.55-.26,.37-.38,.85-.38,1.45s.13,1.08,.38,1.45c.25,.37,.63,.55,1.12,.55,.36,0,.66-.09,.9-.27s.46-.45,.63-.81l1.44,.58c-.24,.62-.62,1.08-1.12,1.4s-1.12,.47-1.85,.47c-.68,0-1.27-.15-1.75-.45Z"/>
    <path class="cls-15" d="M348.22,314.66h-4.52c.07,.49,.24,.85,.51,1.1,.27,.25,.62,.38,1.05,.38,.36,0,.67-.08,.92-.25,.25-.16,.47-.42,.67-.77l1.3,.48c-.27,.62-.64,1.09-1.12,1.42-.48,.33-1.1,.49-1.85,.49-.71,0-1.3-.17-1.77-.5s-.82-.76-1.04-1.27c-.22-.51-.33-1.05-.33-1.61s.11-1.09,.33-1.61c.22-.52,.57-.94,1.04-1.27s1.06-.5,1.77-.5,1.26,.16,1.72,.49c.46,.33,.8,.74,1.01,1.23,.22,.49,.33,1,.33,1.52v.66Zm-1.65-1.27c-.08-.36-.23-.66-.46-.9-.23-.23-.54-.35-.94-.35-.35,0-.65,.11-.9,.32-.25,.21-.43,.52-.53,.93h2.83Z"/>
  </g>
  <g>
    <path class="cls-15" d="M139.57,292.72c.88,0,1.57,.24,2.05,.71,.48,.47,.72,1.1,.72,1.88,0,.61-.15,1.12-.44,1.55-.29,.43-.71,.73-1.26,.89l2.52,4.07h-1.88l-2.44-3.93h-.88v3.93h-1.69v-9.1h3.31Zm.79,3.37c.19-.16,.29-.42,.29-.78s-.1-.62-.29-.78c-.19-.17-.45-.25-.78-.25h-1.64v2.05h1.64c.33,0,.59-.08,.78-.25Z"/>
    <path class="cls-15" d="M149.8,299.06h-4.52c.07,.49,.24,.85,.51,1.1,.27,.25,.62,.38,1.05,.38,.36,0,.67-.08,.92-.25,.25-.16,.47-.42,.67-.77l1.3,.48c-.27,.62-.64,1.09-1.12,1.42-.48,.33-1.1,.49-1.85,.49-.71,0-1.3-.17-1.77-.5-.47-.33-.82-.76-1.04-1.27-.22-.52-.33-1.05-.33-1.61s.11-1.09,.33-1.61c.22-.52,.57-.94,1.04-1.27,.47-.33,1.06-.5,1.77-.5s1.26,.16,1.72,.49c.46,.33,.8,.73,1.01,1.23s.33,1,.33,1.52v.66Zm-1.65-1.27c-.08-.36-.23-.66-.46-.9-.23-.23-.54-.35-.94-.35-.35,0-.65,.11-.9,.32-.25,.21-.43,.52-.53,.93h2.83Z"/>
    <path class="cls-15" d="M152.86,295.27v.68c.1-.19,.3-.37,.59-.53s.62-.25,.99-.25c.96,0,1.7,.31,2.22,.92,.52,.61,.77,1.43,.77,2.46s-.26,1.85-.77,2.46c-.52,.61-1.25,.92-2.22,.92-.32,0-.63-.07-.92-.21s-.52-.3-.66-.49v3.25h-1.61v-9.2h1.61Zm2.46,4.74c.29-.35,.43-.84,.43-1.47s-.14-1.12-.43-1.48c-.29-.35-.65-.53-1.09-.53s-.8,.18-1.09,.53c-.28,.35-.42,.84-.42,1.48s.14,1.12,.42,1.48c.28,.35,.64,.53,1.09,.53s.81-.18,1.09-.53Z"/>
    <path class="cls-15" d="M158.9,292.61h1.61v9.2h-1.61v-9.2Z"/>
    <path class="cls-15" d="M162.39,294.12c-.2-.2-.3-.45-.3-.74s.1-.54,.3-.74,.45-.3,.74-.3,.54,.1,.74,.3c.2,.2,.3,.45,.3,.74s-.1,.54-.3,.74-.45,.3-.74,.3-.54-.1-.74-.3Zm-.07,1.14h1.61v6.55h-1.61v-6.55Z"/>
    <path class="cls-15" d="M166.82,301.47c-.48-.3-.84-.7-1.09-1.22-.24-.51-.36-1.08-.36-1.72s.12-1.2,.36-1.72,.6-.92,1.09-1.22c.48-.3,1.06-.45,1.75-.45,.73,0,1.35,.16,1.85,.47s.88,.78,1.12,1.4l-1.44,.58c-.17-.36-.38-.62-.63-.81-.25-.18-.55-.27-.9-.27-.49,0-.87,.18-1.12,.55-.26,.37-.38,.85-.38,1.45s.13,1.08,.38,1.45c.25,.37,.63,.55,1.12,.55,.36,0,.66-.09,.9-.27,.25-.18,.46-.45,.63-.81l1.44,.58c-.24,.62-.62,1.08-1.12,1.4-.51,.32-1.12,.47-1.85,.47-.68,0-1.27-.15-1.75-.45Z"/>
    <path class="cls-15" d="M173.01,301.4c-.37-.35-.56-.84-.56-1.47s.25-1.17,.74-1.56,1.16-.58,2-.58h1.14v-.29c0-.32-.11-.56-.33-.72-.22-.16-.49-.24-.82-.24-.56,0-.94,.25-1.13,.75l-1.37-.31c.1-.55,.38-.99,.84-1.32,.45-.33,1.01-.5,1.66-.5,.88,0,1.55,.23,2.03,.7,.48,.46,.72,1.15,.72,2.05v3.91h-1.33l-.17-.83c-.51,.62-1.18,.94-2.01,.94-.58,0-1.06-.17-1.43-.52Zm2.89-1.23c.29-.25,.44-.57,.44-.98v-.13h-1.08c-.36,0-.63,.07-.83,.21s-.29,.35-.29,.64c0,.19,.07,.34,.2,.46,.13,.12,.31,.18,.53,.18,.39,0,.73-.12,1.03-.37Z"/>
    <path class="cls-15" d="M180.5,301.31c-.42-.41-.64-1.01-.64-1.81v-2.86h-1.01v-1.38h1.01v-1.64l1.61-1.01v2.65h1.73v1.38h-1.73v2.83c0,.39,.07,.67,.21,.83,.14,.16,.36,.24,.64,.24,.22,0,.42-.05,.62-.16l.38,1.3c-.34,.16-.69,.23-1.07,.23-.75,0-1.34-.2-1.77-.61Z"/>
    <path class="cls-15" d="M189.98,299.06h-4.52c.07,.49,.24,.85,.51,1.1,.27,.25,.62,.38,1.05,.38,.36,0,.67-.08,.92-.25,.25-.16,.47-.42,.67-.77l1.3,.48c-.27,.62-.64,1.09-1.12,1.42-.48,.33-1.1,.49-1.85,.49-.71,0-1.3-.17-1.77-.5-.47-.33-.82-.76-1.04-1.27-.22-.52-.33-1.05-.33-1.61s.11-1.09,.33-1.61c.22-.52,.57-.94,1.04-1.27,.47-.33,1.06-.5,1.77-.5s1.26,.16,1.72,.49c.46,.33,.8,.73,1.01,1.23s.33,1,.33,1.52v.66Zm-1.65-1.27c-.08-.36-.23-.66-.46-.9-.23-.23-.54-.35-.94-.35-.35,0-.65,.11-.9,.32-.25,.21-.43,.52-.53,.93h2.83Z"/>
    <path class="cls-15" d="M193.87,296.64v-1.38h.83v-.34c0-.77,.2-1.35,.6-1.74,.4-.39,.96-.58,1.66-.58,.49,0,.9,.09,1.22,.26l-.35,1.3c-.29-.12-.55-.18-.78-.18-.49,0-.74,.27-.74,.82v.46h1.38v1.38h-1.38v5.17h-1.61v-5.17h-.83Z"/>
    <path class="cls-15" d="M199.91,301.48c-.5-.29-.89-.7-1.15-1.21-.26-.51-.4-1.09-.4-1.73s.13-1.22,.4-1.73c.26-.51,.65-.92,1.15-1.21,.5-.29,1.1-.44,1.78-.44s1.28,.15,1.78,.44c.5,.29,.89,.7,1.15,1.21,.26,.51,.4,1.09,.4,1.73s-.13,1.22-.4,1.73c-.26,.51-.65,.91-1.15,1.21-.5,.29-1.1,.44-1.78,.44s-1.28-.15-1.78-.44Zm2.98-1.51c.29-.39,.44-.86,.44-1.42s-.15-1.04-.44-1.42c-.29-.38-.69-.58-1.2-.58s-.9,.19-1.2,.58c-.29,.39-.44,.86-.44,1.42s.15,1.04,.44,1.42c.29,.39,.69,.58,1.2,.58s.9-.19,1.2-.58Z"/>
    <path class="cls-15" d="M208.09,295.27v1.07c.23-.37,.52-.66,.86-.86,.34-.2,.7-.31,1.08-.31,.24,0,.51,.04,.79,.13l-.3,1.5c-.2-.12-.42-.18-.68-.18-.51,0-.93,.23-1.26,.7-.33,.46-.49,1.19-.49,2.19v2.33h-1.61v-6.55h1.61Z"/>
    <path class="cls-15" d="M146.85,310.87v1.07c.23-.37,.52-.66,.86-.86,.34-.2,.7-.31,1.08-.31,.24,0,.51,.04,.79,.13l-.3,1.5c-.2-.12-.42-.18-.68-.18-.51,0-.93,.23-1.26,.7-.33,.46-.49,1.19-.49,2.19v2.33h-1.61v-6.55h1.61Z"/>
    <path class="cls-15" d="M156.2,314.66h-4.52c.07,.49,.24,.85,.51,1.1,.27,.25,.62,.38,1.05,.38,.36,0,.67-.08,.92-.25,.25-.16,.47-.42,.67-.77l1.3,.48c-.27,.62-.64,1.09-1.12,1.42-.48,.33-1.1,.49-1.85,.49-.71,0-1.3-.17-1.77-.5-.47-.33-.82-.76-1.04-1.27-.22-.51-.33-1.05-.33-1.61s.11-1.09,.33-1.61,.57-.94,1.04-1.27c.47-.33,1.06-.5,1.77-.5s1.26,.16,1.72,.49c.46,.33,.8,.74,1.01,1.23,.22,.49,.33,1,.33,1.52v.66Zm-1.65-1.27c-.08-.36-.23-.66-.46-.9-.23-.23-.54-.35-.94-.35-.35,0-.65,.11-.9,.32-.25,.21-.43,.52-.53,.93h2.83Z"/>
    <path class="cls-15" d="M157.95,317c-.46-.35-.76-.76-.9-1.25l1.29-.69c.12,.34,.29,.6,.51,.79,.22,.19,.48,.29,.79,.29,.21,0,.39-.05,.53-.16s.22-.27,.22-.47-.11-.37-.34-.51c-.22-.14-.56-.3-1.01-.47-.49-.2-.88-.45-1.15-.75-.27-.3-.41-.69-.41-1.17,0-.34,.09-.65,.27-.92,.18-.28,.42-.5,.73-.66,.31-.16,.67-.25,1.07-.25,.44,0,.85,.09,1.21,.28,.36,.19,.65,.45,.85,.79l-.96,.88c-.26-.38-.61-.57-1.05-.57-.17,0-.32,.05-.45,.14-.13,.09-.19,.21-.19,.36,0,.16,.09,.3,.27,.44,.18,.13,.54,.3,1.07,.49,.51,.18,.91,.42,1.18,.71,.28,.29,.42,.67,.42,1.13,0,.64-.21,1.15-.62,1.54s-.95,.58-1.61,.58-1.24-.17-1.7-.52Z"/>
    <path class="cls-15" d="M163.32,309.72c-.2-.2-.3-.45-.3-.74s.1-.54,.3-.74,.45-.3,.74-.3,.54,.1,.74,.3c.2,.2,.3,.45,.3,.74s-.1,.54-.3,.74-.45,.3-.74,.3-.54-.1-.74-.3Zm-.06,1.14h1.61v6.55h-1.61v-6.55Z"/>
    <path class="cls-15" d="M166.69,308.21h1.61v9.2h-1.61v-9.2Z"/>
    <path class="cls-15" d="M170.19,309.72c-.2-.2-.3-.45-.3-.74s.1-.54,.3-.74c.2-.2,.45-.3,.74-.3s.54,.1,.74,.3,.3,.45,.3,.74-.1,.54-.3,.74c-.2,.2-.45,.3-.74,.3s-.54-.1-.74-.3Zm-.07,1.14h1.61v6.55h-1.61v-6.55Z"/>
    <path class="cls-15" d="M179.37,314.66h-4.52c.07,.49,.24,.85,.51,1.1,.27,.25,.62,.38,1.05,.38,.36,0,.67-.08,.92-.25,.25-.16,.47-.42,.67-.77l1.3,.48c-.27,.62-.64,1.09-1.12,1.42-.48,.33-1.1,.49-1.85,.49-.71,0-1.3-.17-1.77-.5s-.82-.76-1.04-1.27c-.22-.51-.33-1.05-.33-1.61s.11-1.09,.33-1.61c.22-.52,.57-.94,1.04-1.27s1.06-.5,1.77-.5,1.26,.16,1.72,.49c.46,.33,.8,.74,1.01,1.23,.22,.49,.33,1,.33,1.52v.66Zm-1.65-1.27c-.08-.36-.23-.66-.46-.9-.23-.23-.54-.35-.94-.35-.35,0-.65,.11-.9,.32-.25,.21-.43,.52-.53,.93h2.83Z"/>
    <path class="cls-15" d="M182.43,310.87v1.05c.25-.36,.55-.64,.9-.84s.72-.31,1.13-.31c.61,0,1.09,.17,1.46,.51,.37,.34,.55,.83,.55,1.47v4.68h-1.61v-4.2c0-.37-.08-.65-.25-.82-.17-.17-.4-.26-.68-.26-.27,0-.52,.1-.74,.31s-.41,.51-.55,.92c-.14,.4-.21,.88-.21,1.44v2.61h-1.61v-6.55h1.61Z"/>
    <path class="cls-15" d="M189.38,317.07c-.48-.3-.84-.7-1.08-1.21-.24-.51-.36-1.08-.36-1.72s.12-1.2,.36-1.72c.24-.51,.6-.92,1.08-1.21,.48-.3,1.06-.45,1.75-.45,.73,0,1.34,.16,1.85,.47,.51,.32,.88,.78,1.12,1.4l-1.44,.58c-.17-.36-.38-.62-.63-.81s-.55-.27-.9-.27c-.49,0-.87,.18-1.12,.55s-.38,.85-.38,1.45,.13,1.08,.38,1.45,.63,.55,1.12,.55c.35,0,.66-.09,.9-.27s.46-.45,.63-.81l1.44,.58c-.24,.62-.62,1.08-1.12,1.4-.51,.32-1.12,.47-1.85,.47-.69,0-1.27-.15-1.75-.45Z"/>
    <path class="cls-15" d="M201.32,314.66h-4.52c.07,.49,.24,.85,.51,1.1,.27,.25,.62,.38,1.05,.38,.36,0,.67-.08,.92-.25,.25-.16,.47-.42,.67-.77l1.3,.48c-.27,.62-.64,1.09-1.12,1.42-.48,.33-1.1,.49-1.85,.49-.71,0-1.3-.17-1.77-.5-.47-.33-.82-.76-1.04-1.27-.22-.51-.33-1.05-.33-1.61s.11-1.09,.33-1.61,.57-.94,1.04-1.27c.47-.33,1.06-.5,1.77-.5s1.26,.16,1.72,.49c.46,.33,.8,.74,1.01,1.23,.22,.49,.33,1,.33,1.52v.66Zm-1.65-1.27c-.08-.36-.23-.66-.46-.9-.23-.23-.54-.35-.94-.35-.35,0-.65,.11-.9,.32-.25,.21-.43,.52-.53,.93h2.83Z"/>
  </g>
</svg>