<svg version="1.1" viewBox="0.0 0.0 960.0 720.0" fill="none" stroke="none" stroke-linecap="square" stroke-miterlimit="10" xmlns:xlink="http://www.w3.org/1999/xlink" xmlns="http://www.w3.org/2000/svg"><clipPath id="p.0"><path d="m0 0l960.0 0l0 720.0l-960.0 0l0 -720.0z" clip-rule="nonzero"/></clipPath><g clip-path="url(#p.0)"><path fill="#000000" fill-opacity="0.0" d="m0 0l960.0 0l0 720.0l-960.0 0z" fill-rule="evenodd"/><path fill="#4e768d" d="m412.99213 199.72179l0 0c0 -37.00743 30.000458 -67.00787 67.00787 -67.00787l0 0c17.771606 0 34.815308 7.059738 47.381714 19.626144c12.566406 12.5664215 19.62616 29.610138 19.62616 47.38173l0 0c0 37.00743 -30.000427 67.00786 -67.00787 67.00786l0 0c-37.007416 0 -67.00787 -30.000427 -67.00787 -67.00786z" fill-rule="evenodd"/><path fill="#000000" fill-opacity="0.0" d="m437.95538 152.18898l87.590576 0l0 96.944885l-87.590576 0z" fill-rule="evenodd"/><path fill="#ffffff" d="m496.17255 217.22273l0 5.40625l-30.28125 0q-0.0625 -2.03125 0.65625 -3.90625q1.15625 -3.09375 3.703125 -6.09375q2.546875 -3.0 7.359375 -6.9375q7.46875 -6.125 10.09375 -9.703125q2.625 -3.578125 2.625 -6.765625q0 -3.34375 -2.390625 -5.640625q-2.390625 -2.296875 -6.234375 -2.296875q-4.0625 0 -6.5 2.4375q-2.4375 2.4375 -2.46875 6.75l-5.78125 -0.59375q0.59375 -6.46875 4.46875 -9.859375q3.875 -3.390625 10.40625 -3.390625q6.59375 0 10.4375 3.65625q3.84375 3.65625 3.84375 9.0625q0 2.75 -1.125 5.40625q-1.125 2.65625 -3.734375 5.59375q-2.609375 2.9375 -8.671875 8.0625q-5.0625 4.25 -6.5 5.765625q-1.4375 1.515625 -2.375 3.046875l22.46875 0z" fill-rule="nonzero"/><path fill="#000000" fill-opacity="0.0" d="m432.6183 247.1035l-112.629944 82.67717" fill-rule="evenodd"/><path stroke="#4e768d" stroke-width="4.0" stroke-linejoin="round" stroke-linecap="butt" d="m432.6183 247.1035l-112.629944 82.67717" fill-rule="evenodd"/><path fill="#4e768d" d="m252.99213 396.79266l0 0c0 -37.007446 30.000458 -67.00787 67.00787 -67.00787l0 0c17.771606 0 34.815308 7.059723 47.381714 19.62613c12.566437 12.566437 19.62616 29.610138 19.62616 47.381744l0 0c0 37.007416 -30.000458 67.00787 -67.00787 67.00787l0 0c-37.007416 0 -67.00787 -30.000458 -67.00787 -67.00787z" fill-rule="evenodd"/><path fill="#4e768d" d="m573.8635 396.7874l0 0c0 -37.007446 30.000427 -67.00787 67.00787 -67.00787l0 0c17.771606 0 34.815308 7.059723 47.381714 19.62613c12.566406 12.566437 19.62616 29.610138 19.62616 47.381744l0 0c0 37.007416 -30.000427 67.00787 -67.00787 67.00787l0 0c-37.007446 0 -67.00787 -30.000458 -67.00787 -67.00787z" fill-rule="evenodd"/><path fill="#4e768d" d="m492.99213 593.0079l0 0c0 -37.007446 30.000427 -67.00787 67.00787 -67.00787l0 0c17.771606 0 34.815308 7.0597534 47.381714 19.62616c12.566406 12.566406 19.62616 29.610107 19.62616 47.381714l0 0c0 37.007446 -30.000427 67.00787 -67.00787 67.00787l0 0c-37.007446 0 -67.00787 -30.000427 -67.00787 -67.00787z" fill-rule="evenodd"/><path fill="#4e768d" d="m172.99213 593.0079l0 0c0 -37.007446 30.000443 -67.00787 67.00787 -67.00787l0 0c17.771606 0 34.815308 7.0597534 47.381714 19.62616c12.566437 12.566406 19.62616 29.610107 19.62616 47.381714l0 0c0 37.007446 -30.000458 67.00787 -67.00787 67.00787l0 0c-37.00743 0 -67.00787 -30.000427 -67.00787 -67.00787z" fill-rule="evenodd"/><path fill="#4e768d" d="m652.9921 593.0079l0 0c0 -37.007446 30.000427 -67.00787 67.00787 -67.00787l0 0c17.771606 0 34.815308 7.0597534 47.381714 19.62616c12.566406 12.566406 19.62616 29.610107 19.62616 47.381714l0 0c0 37.007446 -30.000427 67.00787 -67.00787 67.00787l0 0c-37.007446 0 -67.00787 -30.000427 -67.00787 -67.00787z" fill-rule="evenodd"/><path fill="#4e768d" d="m332.99213 593.0079l0 0c0 -37.007446 30.000458 -67.00787 67.00787 -67.00787l0 0c17.771606 0 34.815308 7.0597534 47.381714 19.62616c12.566437 12.566406 19.62616 29.610107 19.62616 47.381714l0 0c0 37.007446 -30.000458 67.00787 -67.00787 67.00787l0 0c-37.007416 0 -67.00787 -30.000427 -67.00787 -67.00787z" fill-rule="evenodd"/><path fill="#000000" fill-opacity="0.0" d="m527.3817 247.1035l113.48035 82.67717" fill-rule="evenodd"/><path stroke="#4e768d" stroke-width="4.0" stroke-linejoin="round" stroke-linecap="butt" d="m527.3817 247.1035l113.48035 82.67717" fill-rule="evenodd"/><path fill="#000000" fill-opacity="0.0" d="m272.6183 444.17438l-32.62993 81.82678" fill-rule="evenodd"/><path stroke="#4e768d" stroke-width="4.0" stroke-linejoin="round" stroke-linecap="butt" d="m272.6183 444.17438l-32.62993 81.82678" fill-rule="evenodd"/><path fill="#000000" fill-opacity="0.0" d="m367.3817 444.17438l32.629944 81.82678" fill-rule="evenodd"/><path stroke="#4e768d" stroke-width="4.0" stroke-linejoin="round" stroke-linecap="butt" d="m367.3817 444.17438l32.629944 81.82678" fill-rule="evenodd"/><path fill="#000000" fill-opacity="0.0" d="m593.4897 444.16913l-33.480347 81.82678" fill-rule="evenodd"/><path stroke="#4e768d" stroke-width="4.0" stroke-linejoin="round" stroke-linecap="butt" d="m593.4897 444.16913l-33.480347 81.82678" fill-rule="evenodd"/><path fill="#000000" fill-opacity="0.0" d="m688.2531 444.16913l31.748047 81.82678" fill-rule="evenodd"/><path stroke="#4e768d" stroke-width="4.0" stroke-linejoin="round" stroke-linecap="butt" d="m688.2531 444.16913l31.748047 81.82678" fill-rule="evenodd"/><path fill="#000000" fill-opacity="0.0" d="m335.90552 59.984253l288.18896 0l0 67.874016l-288.18896 0z" fill-rule="evenodd"/><path fill="#52b1d8" d="m439.56055 98.18112l3.578125 -0.3125q0.25 2.15625 1.171875 3.53125q0.9375 1.375 2.890625 2.234375q1.953125 0.84375 4.390625 0.84375q2.171875 0 3.828125 -0.640625q1.65625 -0.65625 2.46875 -1.78125q0.8125 -1.125 0.8125 -2.453125q0 -1.34375 -0.78125 -2.34375q-0.78125 -1.015625 -2.578125 -1.6875q-1.15625 -0.453125 -5.109375 -1.390625q-3.9375 -0.953125 -5.515625 -1.796875q-2.046875 -1.078125 -3.0625 -2.671875q-1.0 -1.59375 -1.0 -3.5625q0 -2.171875 1.234375 -4.046875q1.234375 -1.890625 3.59375 -2.859375q2.359375 -0.984375 5.25 -0.984375q3.1875 0 5.609375 1.03125q2.4375 1.015625 3.75 3.015625q1.3125 1.984375 1.40625 4.515625l-3.640625 0.265625q-0.28125 -2.71875 -1.984375 -4.09375q-1.6875 -1.390625 -4.984375 -1.390625q-3.4375 0 -5.015625 1.265625q-1.5625 1.25 -1.5625 3.03125q0 1.546875 1.109375 2.53125q1.09375 1.0 5.703125 2.046875q4.625 1.046875 6.34375 1.828125q2.5 1.15625 3.6875 2.921875q1.203125 1.765625 1.203125 4.0625q0 2.296875 -1.3125 4.3125q-1.3125 2.015625 -3.765625 3.140625q-2.4375 1.125 -5.515625 1.125q-3.875 0 -6.515625 -1.125q-2.625 -1.140625 -4.125 -3.40625q-1.484375 -2.28125 -1.5625 -5.15625zm35.195312 6.0625l0.515625 3.09375q-1.484375 0.328125 -2.65625 0.328125q-1.921875 0 -2.984375 -0.609375q-1.046875 -0.609375 -1.484375 -1.59375q-0.421875 -0.984375 -0.421875 -4.15625l0 -11.9375l-2.578125 0l0 -2.734375l2.578125 0l0 -5.125l3.5 -2.109375l0 7.234375l3.53125 0l0 2.734375l-3.53125 0l0 12.140625q0 1.5 0.1875 1.9375q0.1875 0.421875 0.59375 0.671875q0.421875 0.25 1.203125 0.25q0.59375 0 1.546875 -0.125zm16.972656 0.578125q-1.953125 1.65625 -3.765625 2.34375q-1.796875 0.6875 -3.875 0.6875q-3.40625 0 -5.25 -1.671875q-1.828125 -1.671875 -1.828125 -4.265625q0 -1.53125 0.6875 -2.78125q0.6875 -1.265625 1.8125 -2.015625q1.125 -0.765625 2.53125 -1.15625q1.03125 -0.28125 3.125 -0.53125q4.265625 -0.515625 6.265625 -1.21875q0.03125 -0.71875 0.03125 -0.90625q0 -2.15625 -1.0 -3.03125q-1.34375 -1.1875 -4.0 -1.1875q-2.484375 0 -3.671875 0.875q-1.171875 0.859375 -1.75 3.0625l-3.4375 -0.46875q0.46875 -2.203125 1.546875 -3.5625q1.078125 -1.359375 3.109375 -2.09375q2.03125 -0.734375 4.703125 -0.734375q2.65625 0 4.3125 0.625q1.671875 0.625 2.453125 1.578125q0.78125 0.953125 1.09375 2.390625q0.171875 0.90625 0.171875 3.25l0 4.6875q0 4.890625 0.21875 6.203125q0.234375 1.296875 0.890625 2.484375l-3.671875 0q-0.546875 -1.09375 -0.703125 -2.5625zm-0.296875 -7.84375q-1.90625 0.78125 -5.734375 1.328125q-2.171875 0.3125 -3.078125 0.703125q-0.890625 0.390625 -1.375 1.140625q-0.484375 0.75 -0.484375 1.671875q0 1.40625 1.0625 2.34375q1.0625 0.9375 3.109375 0.9375q2.03125 0 3.609375 -0.890625q1.59375 -0.890625 2.328125 -2.4375q0.5625 -1.1875 0.5625 -3.515625l0 -1.28125zm8.964844 10.40625l0 -20.75l3.171875 0l0 3.15625q1.203125 -2.21875 2.234375 -2.921875q1.03125 -0.703125 2.25 -0.703125q1.78125 0 3.625 1.140625l-1.21875 3.265625q-1.28125 -0.765625 -2.578125 -0.765625q-1.15625 0 -2.078125 0.703125q-0.90625 0.6875 -1.296875 1.90625q-0.59375 1.875 -0.59375 4.109375l0 10.859375l-3.515625 0zm21.039062 -3.140625l0.515625 3.09375q-1.484375 0.328125 -2.65625 0.328125q-1.921875 0 -2.984375 -0.609375q-1.046875 -0.609375 -1.484375 -1.59375q-0.421875 -0.984375 -0.421875 -4.15625l0 -11.9375l-2.578125 0l0 -2.734375l2.578125 0l0 -5.125l3.5 -2.109375l0 7.234375l3.53125 0l0 2.734375l-3.53125 0l0 12.140625q0 1.5 0.1875 1.9375q0.1875 0.421875 0.59375 0.671875q0.421875 0.25 1.203125 0.25q0.59375 0 1.546875 -0.125z" fill-rule="nonzero"/><path fill="#000000" fill-opacity="0.0" d="m597.0761 348.31497l87.590576 0l0 96.944885l-87.590576 0z" fill-rule="evenodd"/><path fill="#ffffff" d="m626.1058 378.94247l0 -5.40625l29.65625 0l0 4.375q-4.375 4.65625 -8.671875 12.375q-4.296875 7.71875 -6.640625 15.875q-1.6875 5.75 -2.15625 12.59375l-5.78125 0q0.09375 -5.40625 2.125 -13.0625q2.03125 -7.65625 5.828125 -14.765625q3.796875 -7.109375 8.078125 -11.984375l-22.4375 0z" fill-rule="nonzero"/><path fill="#000000" fill-opacity="0.0" d="m276.2047 348.31497l87.590576 0l0 96.944885l-87.590576 0z" fill-rule="evenodd"/><path fill="#ffffff" d="m304.85938 406.75497l5.90625 -0.5q0.65625 4.3125 3.046875 6.484375q2.390625 2.171875 5.765625 2.171875q4.0625 0 6.875 -3.0625q2.8125 -3.0625 2.8125 -8.125q0 -4.8125 -2.703125 -7.59375q-2.703125 -2.78125 -7.078125 -2.78125q-2.71875 0 -4.90625 1.234375q-2.1875 1.234375 -3.4375 3.203125l-5.28125 -0.6875l4.4375 -23.53125l22.78125 0l0 5.375l-18.28125 0l-2.46875 12.3125q4.125 -2.875 8.65625 -2.875q6.0 0 10.125 4.15625q4.125 4.15625 4.125 10.6875q0 6.21875 -3.625 10.75q-4.40625 5.5625 -12.03125 5.5625q-6.25 0 -10.203125 -3.5q-3.953125 -3.5 -4.515625 -9.28125z" fill-rule="nonzero"/><path fill="#000000" fill-opacity="0.0" d="m196.20473 544.53546l87.59056 0l0 96.944824l-87.59056 0z" fill-rule="evenodd"/><path fill="#ffffff" d="m225.70312 604.3817l5.40625 -0.5q0.6875 3.8125 2.625 5.53125q1.9375 1.71875 4.96875 1.71875q2.59375 0 4.546875 -1.1875q1.953125 -1.1875 3.203125 -3.171875q1.25 -1.984375 2.09375 -5.359375q0.84375 -3.375 0.84375 -6.875q0 -0.375 -0.03125 -1.125q-1.6875 2.6875 -4.609375 4.359375q-2.921875 1.671875 -6.328125 1.671875q-5.6875 0 -9.625 -4.125q-3.9375 -4.125 -3.9375 -10.875q0 -6.96875 4.109375 -11.21875q4.109375 -4.25 10.296875 -4.25q4.46875 0 8.171875 2.40625q3.703125 2.40625 5.625 6.859375q1.921875 4.453125 1.921875 12.890625q0 8.78125 -1.90625 13.984375q-1.90625 5.203125 -5.671875 7.921875q-3.765625 2.71875 -8.828125 2.71875q-5.375 0 -8.78125 -2.984375q-3.40625 -2.984375 -4.09375 -8.390625zm23.03125 -20.21875q0 -4.84375 -2.578125 -7.6875q-2.578125 -2.84375 -6.203125 -2.84375q-3.75 0 -6.53125 3.0625q-2.78125 3.0625 -2.78125 7.9375q0 4.375 2.640625 7.109375q2.640625 2.734375 6.515625 2.734375q3.90625 0 6.421875 -2.734375q2.515625 -2.734375 2.515625 -7.578125z" fill-rule="nonzero"/><path fill="#000000" fill-opacity="0.0" d="m332.2047 544.53546l134.01575 0l0 96.944824l-134.01575 0z" fill-rule="evenodd"/><path fill="#ffffff" d="m369.6657 614.97546l-5.625 0l0 -35.84375q-2.03125 1.9375 -5.328125 3.875q-3.296875 1.9375 -5.921875 2.90625l0 -5.4375q4.71875 -2.21875 8.25 -5.375q3.53125 -3.15625 5.0 -6.125l3.625 0l0 46.0zm14.40625 -22.59375q0 -8.125 1.671875 -13.078125q1.671875 -4.953125 4.96875 -7.640625q3.296875 -2.6875 8.296875 -2.6875q3.6875 0 6.46875 1.484375q2.78125 1.484375 4.59375 4.28125q1.8125 2.796875 2.84375 6.8125q1.03125 4.015625 1.03125 10.828125q0 8.0625 -1.65625 13.015625q-1.65625 4.953125 -4.953125 7.65625q-3.296875 2.703125 -8.328125 2.703125q-6.625 0 -10.40625 -4.75q-4.53125 -5.71875 -4.53125 -18.625zm5.78125 0q0 11.28125 2.640625 15.015625q2.640625 3.734375 6.515625 3.734375q3.875 0 6.515625 -3.75q2.640625 -3.75 2.640625 -15.0q0 -11.3125 -2.640625 -15.03125q-2.640625 -3.71875 -6.578125 -3.71875q-3.875 0 -6.1875 3.28125q-2.90625 4.1875 -2.90625 15.46875zm29.8125 0q0 -8.125 1.671875 -13.078125q1.671875 -4.953125 4.96875 -7.640625q3.296875 -2.6875 8.296875 -2.6875q3.6875 0 6.46875 1.484375q2.78125 1.484375 4.59375 4.28125q1.8125 2.796875 2.84375 6.8125q1.03125 4.015625 1.03125 10.828125q0 8.0625 -1.65625 13.015625q-1.65625 4.953125 -4.953125 7.65625q-3.296875 2.703125 -8.328125 2.703125q-6.625 0 -10.40625 -4.75q-4.53125 -5.71875 -4.53125 -18.625zm5.78125 0q0 11.28125 2.640625 15.015625q2.640625 3.734375 6.515625 3.734375q3.875 0 6.515625 -3.75q2.640625 -3.75 2.640625 -15.0q0 -11.3125 -2.640625 -15.03125q-2.640625 -3.71875 -6.578125 -3.71875q-3.875 0 -6.1875 3.28125q-2.90625 4.1875 -2.90625 15.46875z" fill-rule="nonzero"/><path fill="#000000" fill-opacity="0.0" d="m507.15222 544.53546l105.98425 0l0 96.944824l-105.98425 0z" fill-rule="evenodd"/><path fill="#ffffff" d="m550.76935 614.97546l-5.625 0l0 -35.84375q-2.03125 1.9375 -5.328125 3.875q-3.296875 1.9375 -5.921875 2.90625l0 -5.4375q4.71875 -2.21875 8.25 -5.375q3.53125 -3.15625 5.0 -6.125l3.625 0l0 46.0zm30.84375 0l-5.625 0l0 -35.84375q-2.03125 1.9375 -5.328125 3.875q-3.296875 1.9375 -5.921875 2.90625l0 -5.4375q4.71875 -2.21875 8.25 -5.375q3.53125 -3.15625 5.0 -6.125l3.625 0l0 46.0z" fill-rule="nonzero"/><path fill="#000000" fill-opacity="0.0" d="m667.44617 544.53546l105.98425 0l0 96.944824l-105.98425 0z" fill-rule="evenodd"/><path fill="#ffffff" d="m708.6883 614.97546l-5.625 0l0 -35.84375q-2.03125 1.9375 -5.328125 3.875q-3.296875 1.9375 -5.921875 2.90625l0 -5.4375q4.71875 -2.21875 8.25 -5.375q3.53125 -3.15625 5.0 -6.125l3.625 0l0 46.0zm14.4375 -12.09375l5.625 -0.75q0.96875 4.78125 3.296875 6.890625q2.328125 2.109375 5.671875 2.109375q3.96875 0 6.703125 -2.75q2.734375 -2.75 2.734375 -6.8125q0 -3.875 -2.53125 -6.390625q-2.53125 -2.515625 -6.4375 -2.515625q-1.59375 0 -3.96875 0.625l0.625 -4.9375q0.5625 0.0625 0.90625 0.0625q3.59375 0 6.46875 -1.875q2.875 -1.875 2.875 -5.78125q0 -3.09375 -2.09375 -5.125q-2.09375 -2.03125 -5.40625 -2.03125q-3.28125 0 -5.46875 2.0625q-2.1875 2.0625 -2.8125 6.1875l-5.625 -1.0q1.03125 -5.65625 4.6875 -8.765625q3.65625 -3.109375 9.09375 -3.109375q3.75 0 6.90625 1.609375q3.15625 1.609375 4.828125 4.390625q1.671875 2.78125 1.671875 5.90625q0 2.96875 -1.59375 5.40625q-1.59375 2.4375 -4.71875 3.875q4.0625 0.9375 6.3125 3.890625q2.25 2.953125 2.25 7.390625q0 6.0 -4.375 10.171875q-4.375 4.171875 -11.0625 4.171875q-6.03125 0 -10.015625 -3.59375q-3.984375 -3.59375 -4.546875 -9.3125z" fill-rule="nonzero"/></g></svg>