<svg id="Layer_1" data-name="Layer 1" xmlns="http://www.w3.org/2000/svg" viewBox="0 0 4173 1554"><defs><style>.cls-1{fill:#00feb9;}.cls-1,.cls-2{stroke:#000;stroke-miterlimit:10;stroke-width:6px;}.cls-2{fill:none;}</style></defs><line class="cls-1" x1="1273" y1="710" x2="1468" y2="917"/><line class="cls-1" x1="1181" y1="698" x2="969" y2="901"/><rect class="cls-1" x="2652.5" y="753.5" width="157.5" height="157.5"/><rect class="cls-1" x="2876.5" y="753.5" width="157.5" height="157.5"/><rect class="cls-1" x="3104.5" y="753.5" width="157.5" height="157.5"/><rect class="cls-1" x="3328.5" y="753.5" width="157.5" height="157.5"/><rect class="cls-1" x="3565.5" y="753.5" width="157.5" height="157.5"/><path d="M2368.73,1005.38h10.84V1060h-10.84Z"/><path d="M2410.3,1023.32c7.73,0,13.26,4.92,13.26,13.26V1060h-10.14v-20.82c0-4.53-2.88-6.4-6.08-6.4a9.91,9.91,0,0,0-7.57,4.06V1060h-10.14v-35.72h9.91v1.4c0,1.25-.16,2.81-.16,2.81A14.08,14.08,0,0,1,2410.3,1023.32Z"/><path d="M2458.2,1055.46c-1.8,3-6,5.46-11.16,5.46-9.83,0-17.31-7.88-17.31-18.8s7.41-18.8,17.23-18.8c5.46,0,9.6,2.5,11.39,5.54,0-1.17-.15-4.13-.15-6.78v-16.7h10.14V1060H2458.2Zm-18-13.34c0,5.46,3.74,9.83,9.12,9.83s9.13-4.37,9.13-9.83-3.74-9.75-9.13-9.75S2440.18,1036.58,2440.18,1042.12Z"/><path d="M2512.09,1045.09H2485.5a8.48,8.48,0,0,0,15.36,3.51l10.53,1.09c-3.2,7.64-9.9,11.23-17.86,11.23-10.69,0-18.72-7.88-18.72-18.8s7.88-18.8,18.56-18.8c9.83,0,18.72,6.4,18.72,21.38Zm-26.83-6.79h16a7.74,7.74,0,0,0-7.88-6.55A8,8,0,0,0,2485.26,1038.3Z"/><path d="M2525.2,1042.2l-11.31-17.94h11.7l6.32,10.69,6.55-10.69h11.39L2538.54,1042l11.46,18h-11.78l-6.47-10.68-6.24,10.68h-11.7Z"/><path d="M2562,1024.26a6.83,6.83,0,1,1-6.78,6.86A6.83,6.83,0,0,1,2562,1024.26Zm0,23.09a6.79,6.79,0,1,1,0,13.57,6.79,6.79,0,0,1,0-13.57Z"/><path d="M938.51,336.66v.15c6.31,2.58,10.14,7.18,10.14,13.5,0,8.73-6.48,15.67-18,15.67H911.2v-54.6h17.63c11.24,0,16.85,6.94,16.85,14A12.07,12.07,0,0,1,938.51,336.66Zm-16.46-16.07v12.16h5.53c3.91,0,7.1-1.95,7.1-6.16s-3.35-6-7.1-6Zm0,36.27h5.61c6.56,0,9.68-3,9.68-7.49,0-4.6-3.83-6.94-9.13-6.94h-6.16Z"/><path d="M966.82,366H956.68V338.84h-5v-8.58h15.13Zm-5.54-54.6a6.54,6.54,0,0,1,6.55,6.55,6.51,6.51,0,0,1-13,0A6.52,6.52,0,0,1,961.28,311.38Z"/><path d="M996.23,329.32c7.72,0,13.26,4.92,13.26,13.26V366H999.35V345.16c0-4.53-2.89-6.4-6.09-6.4a9.91,9.91,0,0,0-7.57,4.06V366H975.55V330.26h9.91v1.4c0,1.25-.16,2.81-.16,2.81A14.08,14.08,0,0,1,996.23,329.32Z"/><path d="M1037.64,342.19c0-2.57-2-4.21-5.93-4.21-3.58,0-8.11,1.8-10.76,3.36l-4-7.65a30.56,30.56,0,0,1,15.29-4.37c8.11,0,15.52,3.75,15.52,13.19V366h-10.14v-3.35c-1.87,2.81-5.93,4.29-10,4.29-7.57,0-12.48-5.38-12.48-11.23,0-6.79,5-11,13-11h7c1.71,0,2.49-.78,2.49-2.11Zm0,11v-2.57c-.62.62-1.71.78-3.12.78h-3.82c-3.2,0-5.07,1.4-5.07,3.9s1.95,4.21,5.07,4.21C1034.37,359.51,1037.64,357.64,1037.64,353.19Z"/><path d="M1078.05,340.24h-4.29c-5.15,0-7.49,2.42-7.49,8.66V366h-10.14V330.26H1066V336a9.4,9.4,0,0,1,9.28-6.16,11.75,11.75,0,0,1,2.81.31Z"/><path d="M1095.05,366h-2.57l-12.25-35.72h11.31l7.57,25.43,7.64-25.43h11l-14.28,41.34c-1.79,5.23-4.6,8-11.15,8h-7v-8.5h5a3.72,3.72,0,0,0,4-2.81Z"/><path d="M1174.53,311.38v9.67h-16.3V366h-10.76V321.05h-16.31v-9.67Z"/><path d="M1194.5,340.24h-4.29c-5.15,0-7.49,2.42-7.49,8.66V366h-10.14V330.26h9.83V336a9.41,9.41,0,0,1,9.28-6.16,11.7,11.7,0,0,1,2.81.31Z"/><path d="M1234.83,351.09h-26.6a8.49,8.49,0,0,0,15.37,3.51l10.53,1.09c-3.2,7.64-9.91,11.23-17.87,11.23-10.68,0-18.72-7.88-18.72-18.8s7.88-18.8,18.57-18.8c9.83,0,18.72,6.4,18.72,21.38ZM1208,344.3h16a7.75,7.75,0,0,0-7.88-6.55A8,8,0,0,0,1208,344.3Z"/><path d="M1275.85,351.09h-26.59a8.48,8.48,0,0,0,15.36,3.51l10.53,1.09c-3.2,7.64-9.9,11.23-17.86,11.23-10.69,0-18.72-7.88-18.72-18.8s7.88-18.8,18.56-18.8c9.83,0,18.72,6.4,18.72,21.38ZM1249,344.3h16a7.74,7.74,0,0,0-7.88-6.55A8,8,0,0,0,1249,344.3Z"/><path d="M3037.94,366h-11.7l-4.68-14.89H3005.1L3000.74,366h-11.39l17.63-54.6h12.94Zm-24.57-42.9h-.15l-5.54,18.72h11.15Z"/><path d="M3064.85,340.24h-4.29c-5.15,0-7.49,2.42-7.49,8.66V366h-10.14V330.26h9.83V336a9.42,9.42,0,0,1,9.28-6.16,11.64,11.64,0,0,1,2.81.31Z"/><path d="M3092.46,340.24h-4.29c-5.15,0-7.49,2.42-7.49,8.66V366h-10.14V330.26h9.83V336a9.42,9.42,0,0,1,9.28-6.16,11.64,11.64,0,0,1,2.81.31Z"/><path d="M3117.66,342.19c0-2.57-2-4.21-5.93-4.21-3.59,0-8.11,1.8-10.77,3.36l-4-7.65a30.55,30.55,0,0,1,15.28-4.37c8.12,0,15.53,3.75,15.53,13.19V366h-10.14v-3.35c-1.88,2.81-5.93,4.29-10,4.29-7.56,0-12.48-5.38-12.48-11.23,0-6.79,5-11,12.95-11h7c1.72,0,2.5-.78,2.5-2.11Zm0,11v-2.57a4.44,4.44,0,0,1-3.12.78h-3.83c-3.19,0-5.07,1.4-5.07,3.9s2,4.21,5.07,4.21C3114.38,359.51,3117.66,357.64,3117.66,353.19Z"/><path d="M3146.83,366h-2.58L3132,330.26h11.31l7.56,25.43,7.65-25.43h11l-14.28,41.34c-1.79,5.23-4.6,8-11.15,8h-7v-8.5h5a3.72,3.72,0,0,0,4-2.81Z"/><path d="M1862.56,150.47,1845.17,107v62.37h-17V81.17h24.7l19.28,50,19.65-50h23.57v88.2H1898V107l-16.89,43.47Z"/><path d="M1962.48,130.94c0-4.16-3.28-6.8-9.58-6.8-5.79,0-13.1,2.9-17.38,5.42l-6.43-12.35a49.37,49.37,0,0,1,24.7-7.06c13.1,0,25.07,6,25.07,21.3v37.92h-16.38V164c-3,4.53-9.58,6.93-16.13,6.93-12.22,0-20.16-8.7-20.16-18.15,0-11,8.06-17.77,20.92-17.77h11.34c2.77,0,4-1.26,4-3.4Zm0,17.77v-4.16c-1,1-2.77,1.26-5,1.26h-6.17c-5.17,0-8.19,2.27-8.19,6.3s3.15,6.81,8.19,6.81C1957.19,158.92,1962.48,155.89,1962.48,148.71Z"/><path d="M2004.94,140.65l-18.27-29h18.9l10.21,17.27,10.58-17.27h18.4l-18.27,28.61,18.52,29.1h-19l-10.45-17.26-10.08,17.26h-18.91Z"/><path d="M2047,128.67h26.47v13.86H2047Z"/><path d="M2137.75,169.37V132h-35v37.42H2085.2V81.17h17.52V117h35V81.17h17.51v88.2Z"/><path d="M2226.58,145.31h-43a13.07,13.07,0,0,0,13.23,11.59c4.79,0,9.33-2,11.59-5.92l17,1.76c-5.16,12.35-16,18.15-28.85,18.15-17.26,0-30.24-12.73-30.24-30.37s12.72-30.37,30-30.37c15.87,0,30.24,10.33,30.24,34.53Zm-43.35-11h25.83a12.51,12.51,0,0,0-12.72-10.58A12.88,12.88,0,0,0,2183.23,134.34Z"/><path d="M2268.28,130.94c0-4.16-3.27-6.8-9.57-6.8-5.8,0-13.11,2.9-17.39,5.42l-6.43-12.35a49.37,49.37,0,0,1,24.7-7.06c13.1,0,25.07,6,25.07,21.3v37.92h-16.38V164c-3,4.53-9.57,6.93-16.13,6.93-12.22,0-20.16-8.7-20.16-18.15,0-11,8.07-17.77,20.92-17.77h11.34c2.77,0,4-1.26,4-3.4Zm0,17.77v-4.16c-1,1-2.77,1.26-5,1.26h-6.17c-5.17,0-8.19,2.27-8.19,6.3s3.15,6.81,8.19,6.81C2263,158.92,2268.28,155.89,2268.28,148.71Z"/><path d="M2314.52,191.43h-16.38V111.66h16.38v2.78c0,2.77-.25,4-.25,4.66,2.77-4.92,9.58-8.95,18.27-8.95,15.88,0,28,12.73,28,30.37s-12.22,30.37-28.09,30.37c-8.2,0-15-3.91-17.9-8.82Zm-.38-50.91c0,8.82,6.05,15.88,14.75,15.88s14.74-7.06,14.74-15.88-6.05-15.75-14.74-15.75S2314.14,131.57,2314.14,140.52Z"/><path d="M2694.43,805.88h20.91v45.24h10.53v9.36h-32.06v-9.36h10.53V815.24h-9.91Z"/><path d="M2736.47,805.88h20.91v45.24h10.53v9.36h-32.06v-9.36h10.53V815.24h-9.91Z"/><path d="M2920.43,805.88h20.91v45.24h10.53v9.36h-32.06v-9.36h10.53V815.24h-9.91Z"/><path d="M2996.09,833.11c0,19.42-7.56,28.31-19,28.31S2958,852.53,2958,833.11c0-19.12,7.57-28.16,19.11-28.16S2996.09,814,2996.09,833.11Zm-19,18.33c5.38,0,8-6.17,8-18.33s-2.58-18.26-8-18.26-8,6.24-8,18.26S2971.6,851.44,2977.06,851.44Z"/><path d="M3188.49,837.86a11.22,11.22,0,0,1-7.26,2.27c-8.34,0-16.46-5.46-16.46-17.09,0-10.92,7.57-18.09,18.57-18.09,11.62,0,19.26,7.95,19.26,19.34,0,15.76-11.77,28.39-18.17,34.56l-1.72,1.63h-14.35l1.09-.93c4-3.43,13.73-12.48,19.43-21.53Zm-4.84-24.1c-5.23,0-7.88,4.06-7.88,8.82s2.65,9,7.88,9c5.38,0,8-4.13,8-9S3189,813.76,3183.65,813.76Z"/><path d="M3408.73,852.45c5.22,0,7.17-4.06,7.17-9.44s-2.1-9.51-7.33-9.51a8.83,8.83,0,0,0-6.24,2.34l-9.12-1V805.88h32.05v9.36h-22.54v11.31h.39c1.87-1.4,5.38-2,7.8-2,10.38,0,16.3,7.41,16.3,17.86,0,11.07-6.31,19-18.17,19-11.62,0-18.17-6.94-18.17-16.54v-2.41h11.07v2.34C3401.94,848.71,3403.66,852.45,3408.73,852.45Z"/><path d="M3664.75,820.31a13,13,0,0,1-7.8,11.86,14.21,14.21,0,0,1,9,13.1c0,10-7.73,16.15-18.88,16.15s-18.88-6.16-18.88-16.15a14.13,14.13,0,0,1,9-13.1,12.92,12.92,0,0,1-7.87-11.86c0-8.89,6.94-15.36,17.78-15.36S3664.75,811.42,3664.75,820.31ZM3655,844.73c0-4-2.73-7.72-8-7.72s-8,3.74-8,7.72,2.73,7.72,8,7.72S3655,848.78,3655,844.73Zm-.94-23.64c0-3.9-2.11-7.17-7-7.17s-7.1,3.27-7.1,7.17,2.11,7.26,7.1,7.26S3654.06,825,3654.06,821.09Z"/><path d="M2749.07,1032.11c0,19.42-7.56,28.31-19,28.31s-19.11-8.89-19.11-28.31c0-19.12,7.57-28.16,19.11-28.16S2749.07,1013,2749.07,1032.11Zm-19,18.33c5.38,0,8-6.17,8-18.33s-2.58-18.26-8-18.26-8,6.24-8,18.26S2724.58,1050.44,2730,1050.44Z"/><path d="M1648.69,916.88h10.85v54.6h-10.85Z"/><path d="M1690.27,934.82c7.72,0,13.26,4.92,13.26,13.26v23.4h-10.14V950.66c0-4.53-2.89-6.4-6.09-6.4a9.89,9.89,0,0,0-7.56,4.06v23.16H1669.6V935.76h9.9v1.4c0,1.25-.15,2.81-.15,2.81A14.06,14.06,0,0,1,1690.27,934.82Z"/><path d="M1738.16,967c-1.79,3-6,5.46-11.16,5.46-9.82,0-17.31-7.88-17.31-18.8s7.41-18.8,17.24-18.8c5.46,0,9.59,2.5,11.39,5.54,0-1.17-.16-4.13-.16-6.78v-16.7h10.14v54.6h-10.14Zm-18-13.34c0,5.46,3.74,9.83,9.13,9.83s9.12-4.37,9.12-9.83-3.74-9.75-9.12-9.75S1720.14,948.08,1720.14,953.62Z"/><path d="M1792.06,956.59h-26.6a8.49,8.49,0,0,0,15.37,3.51l10.53,1.09c-3.2,7.64-9.91,11.23-17.87,11.23-10.68,0-18.72-7.88-18.72-18.8s7.88-18.8,18.57-18.8c9.83,0,18.72,6.4,18.72,21.38Zm-26.84-6.79h16a7.73,7.73,0,0,0-7.87-6.55A8,8,0,0,0,1765.22,949.8Z"/><path d="M1805.16,953.7l-11.31-17.94h11.7l6.32,10.69,6.55-10.69h11.39l-11.31,17.71,11.46,18h-11.77l-6.48-10.68-6.24,10.68h-11.7Z"/><path d="M1842,935.76a6.83,6.83,0,1,1-6.79,6.86A6.82,6.82,0,0,1,1842,935.76Zm0,23.09a6.79,6.79,0,1,1-6.79,6.78A6.8,6.8,0,0,1,1842,958.85Z"/><path d="M1872.08,962.12s9.21-8.11,16.15-14.66,8.34-10.45,8.34-14.9a6.81,6.81,0,0,0-7.25-7c-4.13,0-7.25,2.5-7.25,6.47a14.13,14.13,0,0,0,1.4,5.7l-10,1.79a17.23,17.23,0,0,1-2-8.42c0-7.65,6.39-15.13,18-15.13,11.93,0,18.25,7.8,18.25,16.06,0,6.48-2.11,12.72-15.45,24.42l-6.47,5.69h22.62v9.36h-36.35Z"/><path d="M530.69,916.88h10.85v54.6H530.69Z"/><path d="M572.27,934.82c7.72,0,13.26,4.92,13.26,13.26v23.4H575.39V950.66c0-4.53-2.89-6.4-6.09-6.4a9.89,9.89,0,0,0-7.56,4.06v23.16H551.6V935.76h9.9v1.4c0,1.25-.15,2.81-.15,2.81A14.06,14.06,0,0,1,572.27,934.82Z"/><path d="M620.16,967c-1.79,3-6,5.46-11.16,5.46-9.82,0-17.31-7.88-17.31-18.8s7.41-18.8,17.24-18.8c5.46,0,9.59,2.5,11.39,5.54,0-1.17-.16-4.13-.16-6.78v-16.7H630.3v54.6H620.16Zm-18-13.34c0,5.46,3.74,9.83,9.13,9.83s9.12-4.37,9.12-9.83-3.74-9.75-9.12-9.75S602.14,948.08,602.14,953.62Z"/><path d="M674.06,956.59h-26.6a8.49,8.49,0,0,0,15.37,3.51l10.53,1.09c-3.2,7.64-9.91,11.23-17.87,11.23-10.68,0-18.72-7.88-18.72-18.8s7.88-18.8,18.57-18.8c9.83,0,18.72,6.4,18.72,21.38Zm-26.84-6.79h16a7.73,7.73,0,0,0-7.87-6.55A8,8,0,0,0,647.22,949.8Z"/><path d="M687.16,953.7l-11.31-17.94h11.7l6.32,10.69,6.55-10.69h11.39L700.5,953.47l11.46,18H700.19l-6.48-10.68-6.24,10.68h-11.7Z"/><path d="M724,935.76a6.83,6.83,0,1,1-6.79,6.86A6.82,6.82,0,0,1,724,935.76Zm0,23.09a6.79,6.79,0,1,1-6.79,6.78A6.8,6.8,0,0,1,724,958.85Z"/><path d="M757.44,916.88h20.9v45.24h10.53v9.36H756.81v-9.36h10.53V926.24h-9.9Z"/><path d="M1360.69,608.88h10.85v54.6h-10.85Z"/><path d="M1402.27,626.82c7.72,0,13.26,4.92,13.26,13.26v23.4h-10.14V642.66c0-4.53-2.89-6.4-6.09-6.4a9.89,9.89,0,0,0-7.56,4.06v23.16H1381.6V627.76h9.9v1.4c0,1.25-.15,2.81-.15,2.81A14.06,14.06,0,0,1,1402.27,626.82Z"/><path d="M1450.16,659c-1.79,3-6,5.46-11.16,5.46-9.82,0-17.31-7.88-17.31-18.8s7.41-18.8,17.24-18.8c5.46,0,9.59,2.5,11.39,5.54,0-1.17-.16-4.13-.16-6.78v-16.7h10.14v54.6h-10.14Zm-18-13.34c0,5.46,3.74,9.83,9.13,9.83s9.12-4.37,9.12-9.83-3.74-9.75-9.12-9.75S1432.14,640.08,1432.14,645.62Z"/><path d="M1504.06,648.59h-26.6a8.49,8.49,0,0,0,15.37,3.51l10.53,1.09c-3.2,7.64-9.91,11.23-17.87,11.23-10.68,0-18.72-7.88-18.72-18.8s7.88-18.8,18.57-18.8c9.83,0,18.72,6.4,18.72,21.38Zm-26.84-6.79h16a7.73,7.73,0,0,0-7.87-6.55A8,8,0,0,0,1477.22,641.8Z"/><path d="M1517.16,645.7l-11.31-17.94h11.7l6.32,10.69,6.55-10.69h11.39l-11.31,17.71,11.46,18h-11.77l-6.48-10.68-6.24,10.68h-11.7Z"/><path d="M1554,627.76a6.83,6.83,0,1,1-6.79,6.86A6.82,6.82,0,0,1,1554,627.76Zm0,23.09a6.79,6.79,0,1,1-6.79,6.78A6.8,6.8,0,0,1,1554,650.85Z"/><path d="M1621.05,636.11c0,19.42-7.56,28.31-19,28.31s-19.11-8.89-19.11-28.31c0-19.12,7.57-28.16,19.11-28.16S1621.05,617,1621.05,636.11Zm-19,18.33c5.38,0,8-6.17,8-18.33s-2.58-18.26-8-18.26-8,6.24-8,18.26S1596.56,654.44,1602,654.44Z"/><path d="M1306.19,1201.38H1317V1256h-10.85Z"/><path d="M1347.77,1219.32c7.72,0,13.26,4.92,13.26,13.26V1256h-10.14v-20.82c0-4.53-2.89-6.4-6.09-6.4a9.89,9.89,0,0,0-7.56,4.06V1256H1327.1v-35.72h9.9v1.4c0,1.25-.15,2.81-.15,2.81A14.06,14.06,0,0,1,1347.77,1219.32Z"/><path d="M1395.66,1251.46c-1.79,3-6,5.46-11.16,5.46-9.82,0-17.31-7.88-17.31-18.8s7.41-18.8,17.24-18.8c5.46,0,9.59,2.5,11.39,5.54,0-1.17-.16-4.13-.16-6.78v-16.7h10.14V1256h-10.14Zm-18-13.34c0,5.46,3.74,9.83,9.13,9.83s9.12-4.37,9.12-9.83-3.74-9.75-9.12-9.75S1377.64,1232.58,1377.64,1238.12Z"/><path d="M1449.56,1241.09H1423a8.49,8.49,0,0,0,15.37,3.51l10.53,1.09c-3.2,7.64-9.91,11.23-17.87,11.23-10.68,0-18.72-7.88-18.72-18.8s7.88-18.8,18.57-18.8c9.83,0,18.72,6.4,18.72,21.38Zm-26.84-6.79h16a7.73,7.73,0,0,0-7.87-6.55A8,8,0,0,0,1422.72,1234.3Z"/><path d="M1462.66,1238.2l-11.31-17.94h11.7l6.32,10.69,6.55-10.69h11.39L1476,1238l11.46,18h-11.77l-6.48-10.68L1463,1256h-11.7Z"/><path d="M1499.48,1220.26a6.83,6.83,0,1,1-6.79,6.86A6.82,6.82,0,0,1,1499.48,1220.26Zm0,23.09a6.79,6.79,0,1,1-6.79,6.78A6.8,6.8,0,0,1,1499.48,1243.35Z"/><path d="M1527.79,1233l18.41-31.59h13.88v31.67h6.86v9h-6.86v14h-10.53v-14h-21.76Zm9.36.08h12.4V1212.3h-.39Z"/><path d="M272.19,1201.38H283V1256H272.19Z"/><path d="M313.77,1219.32c7.72,0,13.26,4.92,13.26,13.26V1256H316.89v-20.82c0-4.53-2.89-6.4-6.09-6.4a9.89,9.89,0,0,0-7.56,4.06V1256H293.1v-35.72H303v1.4c0,1.25-.15,2.81-.15,2.81A14.06,14.06,0,0,1,313.77,1219.32Z"/><path d="M361.66,1251.46c-1.79,3-6,5.46-11.16,5.46-9.82,0-17.31-7.88-17.31-18.8s7.41-18.8,17.24-18.8c5.46,0,9.59,2.5,11.39,5.54,0-1.17-.16-4.13-.16-6.78v-16.7H371.8V1256H361.66Zm-18-13.34c0,5.46,3.74,9.83,9.13,9.83s9.12-4.37,9.12-9.83-3.74-9.75-9.12-9.75S343.64,1232.58,343.64,1238.12Z"/><path d="M415.56,1241.09H389a8.49,8.49,0,0,0,15.37,3.51l10.53,1.09c-3.2,7.64-9.91,11.23-17.87,11.23-10.68,0-18.72-7.88-18.72-18.8s7.88-18.8,18.57-18.8c9.83,0,18.72,6.4,18.72,21.38Zm-26.84-6.79h16a7.73,7.73,0,0,0-7.87-6.55A8,8,0,0,0,388.72,1234.3Z"/><path d="M428.66,1238.2l-11.31-17.94h11.7l6.32,10.69,6.55-10.69h11.39L442,1238l11.46,18H441.69l-6.48-10.68L429,1256h-11.7Z"/><path d="M465.48,1220.26a6.83,6.83,0,1,1-6.79,6.86A6.82,6.82,0,0,1,465.48,1220.26Zm0,23.09a6.79,6.79,0,1,1-6.79,6.78A6.8,6.8,0,0,1,465.48,1243.35Z"/><path d="M494.88,1240.38V1238H506v2.34c0,3.9,1.71,7.64,6.86,7.64,5,0,7.18-3.67,7.18-8.66s-3-8.73-8.82-8.73a30.13,30.13,0,0,0-5.69.54v-9.67L518,1210.74H497.45v-9.36h32.76v10.38l-14.11,11.31c8.89.23,15.21,7.41,15.21,16.07,0,10.45-7.34,17.78-18.26,17.78C501.43,1256.92,494.88,1250,494.88,1240.38Z"/><path d="M2941.45,1004.88h20.91v45.24h10.53v9.36h-32.06v-9.36h10.53v-35.88h-9.91Z"/><path d="M3166.1,1050.12s9.2-8.11,16.15-14.66,8.34-10.45,8.34-14.9a6.81,6.81,0,0,0-7.25-7c-4.14,0-7.26,2.5-7.26,6.47a14.18,14.18,0,0,0,1.41,5.7l-10,1.79a17.33,17.33,0,0,1-2-8.42c0-7.65,6.39-15.13,18-15.13,11.94,0,18.26,7.8,18.26,16.06,0,6.48-2.11,12.72-15.45,24.42l-6.47,5.69h22.62v9.36H3166.1Z"/><path d="M3390.4,1043.88v-2.41h11.07v2.34c0,3.9,1.72,7.64,6.87,7.64,5,0,7.17-3.67,7.17-8.66s-3-8.73-8.81-8.73a30.13,30.13,0,0,0-5.69.54v-9.67l12.48-10.69H3393v-9.36h32.76v10.38l-14.12,11.31c8.9.23,15.22,7.41,15.22,16.07,0,10.45-7.34,17.78-18.26,17.78C3397,1060.42,3390.4,1053.48,3390.4,1043.88Z"/><path d="M3627.31,1036.47l18.4-31.59h13.89v31.67h6.86v9h-6.86v14h-10.53v-14h-21.76Zm9.36.08h12.4V1015.8h-.39Z"/><line class="cls-1" x1="945" y1="983" x2="1140" y2="1190"/><line class="cls-1" x1="1260.5" y1="691.5" x2="1455.5" y2="898.5"/><line class="cls-1" x1="895" y1="981" x2="683" y2="1184"/><line class="cls-1" x1="1178" y1="698" x2="966" y2="901"/><circle class="cls-1" cx="926" cy="939" r="84"/><path d="M888.43,910.88h20.91v45.24h10.53v9.36H887.81v-9.36h10.53V920.24h-9.91Z"/><path d="M964.09,938.11c0,19.42-7.56,28.31-19,28.31S926,957.53,926,938.11C926,919,933.52,910,945.06,910S964.09,919,964.09,938.11Zm-19,18.33c5.38,0,8-6.17,8-18.33s-2.58-18.26-8-18.26-8,6.24-8,18.26S939.6,956.44,945.06,956.44Z"/><circle class="cls-1" cx="1163" cy="1234" r="84"/><path d="M1181.3,1218.82a13,13,0,0,1-7.8,11.85,14.23,14.23,0,0,1,9,13.11c0,10-7.72,16.15-18.88,16.15s-18.87-6.17-18.87-16.15a14.13,14.13,0,0,1,9-13.11,12.91,12.91,0,0,1-7.88-11.85c0-8.89,6.94-15.37,17.78-15.37S1181.3,1209.93,1181.3,1218.82Zm-9.75,24.41a7.51,7.51,0,0,0-8-7.72c-5.3,0-8,3.75-8,7.72s2.73,7.73,8,7.73S1171.55,1247.29,1171.55,1243.23Zm-.94-23.63c0-3.9-2.1-7.18-7-7.18s-7.1,3.28-7.1,7.18,2.11,7.25,7.1,7.25S1170.61,1223.5,1170.61,1219.6Z"/><circle class="cls-1" cx="665" cy="1234" r="84"/><path d="M662.73,1252.45c5.22,0,7.17-4.06,7.17-9.44s-2.1-9.51-7.33-9.51a8.83,8.83,0,0,0-6.24,2.34l-9.12-1v-28.94h32v9.36H656.72v11.31h.39c1.87-1.4,5.38-2,7.8-2,10.38,0,16.3,7.41,16.3,17.86,0,11.07-6.31,19-18.17,19-11.62,0-18.17-6.94-18.17-16.54v-2.41h11.07v2.34C655.94,1248.71,657.66,1252.45,662.73,1252.45Z"/><circle class="cls-1" cx="1219.5" cy="645.5" r="84"/><path d="M1181.93,617.38h20.91v45.24h10.53V672h-32.06v-9.36h10.53V626.74h-9.91Z"/><path d="M1224,617.38h20.91v45.24h10.53V672h-32.06v-9.36h10.53V626.74H1224Z"/><circle class="cls-1" cx="1505" cy="939" r="84"/><path d="M1507.49,942.86a11.22,11.22,0,0,1-7.26,2.27c-8.34,0-16.46-5.46-16.46-17.09,0-10.92,7.57-18.09,18.57-18.09,11.62,0,19.26,7.95,19.26,19.34,0,15.76-11.77,28.39-18.17,34.56l-1.72,1.63h-14.35l1.09-.93c4-3.43,13.73-12.48,19.43-21.53Zm-4.84-24.1c-5.23,0-7.88,4.06-7.88,8.82s2.65,9,7.88,9,8-4.13,8-9S1508,918.76,1502.65,918.76Z"/><line class="cls-2" x1="2082.73" y1="340.07" x2="2082.73" y2="1464.09"/><line class="cls-2" x1="120.57" y1="458.54" x2="4058.8" y2="458.54"/></svg>